<?xml version="1.0" encoding="utf-8"?>
<!-- Generator: Adobe Illustrator 17.1.0, SVG Export Plug-In . SVG Version: 6.00 Build 0)  -->
<!DOCTYPE svg PUBLIC "-//W3C//DTD SVG 1.1//EN" "http://www.w3.org/Graphics/SVG/1.1/DTD/svg11.dtd">
<svg version="1.1" id="Layer_1" xmlns="http://www.w3.org/2000/svg" xmlns:xlink="http://www.w3.org/1999/xlink" x="0px" y="0px"
	 viewBox="75 -25 1250 870" enable-background="new 75 -25 1250 870" xml:space="preserve">
<g opacity="0.2">
	<g>
		<g>
			<g>
				<g>
					<path fill="#FFCC39" d="M282.769,224.809c-9.337,0-17.304-6.366-19.375-15.483c-2.429-10.691,4.293-21.366,14.985-23.796
						c1.454-0.33,2.94-0.497,4.419-0.497c9.337,0,17.305,6.367,19.376,15.483c1.177,5.18,0.266,10.507-2.564,15.002
						c-2.831,4.494-7.242,7.617-12.421,8.794C285.735,224.642,284.248,224.809,282.769,224.809z M282.798,191.032
						c-1.032,0-2.072,0.117-3.09,0.349c-7.466,1.696-12.16,9.15-10.464,16.615c1.446,6.366,7.008,10.812,13.524,10.812
						c1.033,0,2.073-0.117,3.091-0.349c3.617-0.821,6.697-3.002,8.673-6.141c1.976-3.138,2.612-6.857,1.791-10.475
						C294.877,195.479,289.315,191.032,282.798,191.032z"/>
				</g>
				<g>
					<g>
						<path fill="#FFCC39" d="M274.305,279.913c-0.736,0-1.474-0.27-2.053-0.813c-1.208-1.134-1.268-3.032-0.133-4.24
							c13.442-14.314,7.894-40.055,7.836-40.312c-0.36-1.617,0.658-3.221,2.275-3.581c1.613-0.366,3.22,0.657,3.581,2.274
							c0.065,0.295,1.606,7.325,1.288,16.404c-0.43,12.251-4.098,22.391-10.606,29.322
							C275.902,279.596,275.104,279.913,274.305,279.913z"/>
					</g>
					<g>
						<g>
							<path fill="#FFCC39" d="M321.533,269.186c-0.361,0-0.728-0.065-1.084-0.204c-21.234-8.238-27.886-36.033-28.159-37.213
								c-0.374-1.614,0.632-3.226,2.247-3.599c1.618-0.372,3.225,0.632,3.599,2.244c0.063,0.271,6.235,25.894,24.484,32.974
								c1.545,0.6,2.311,2.337,1.712,3.882C323.869,268.458,322.734,269.186,321.533,269.186z"/>
						</g>
					</g>
				</g>
				<g>
					<path fill="#FFCC39" d="M275.688,235.331c-1.37,0-2.606-0.944-2.922-2.337c-0.367-1.615,0.645-3.223,2.261-3.59l25.331-5.754
						c1.613-0.369,3.223,0.646,3.59,2.262c0.367,1.615-0.645,3.223-2.261,3.59l-25.331,5.754
						C276.132,235.307,275.909,235.331,275.688,235.331z"/>
				</g>
				<g>
					<path fill="#FFCC39" d="M269.51,297.254c-1.37,0-2.606-0.944-2.922-2.336l-3.511-15.454c-0.176-0.776-0.037-1.591,0.387-2.264
						s1.098-1.15,1.874-1.327l63.834-14.501c1.614-0.368,3.223,0.646,3.59,2.261l3.511,15.454c0.176,0.776,0.037,1.591-0.387,2.264
						s-1.098,1.15-1.874,1.327l-63.834,14.501C269.954,297.229,269.73,297.254,269.51,297.254z M269.592,281.06l2.182,9.604
						l57.983-13.172l-2.182-9.604L269.592,281.06z"/>
				</g>
			</g>
			<g>
				<g>
					<path fill="#FFCC39" d="M580.86,207.371c-0.938,0-1.831-0.44-2.401-1.202l-26.726-35.71c-0.643-0.858-0.778-1.994-0.356-2.979
						l17.562-40.999c0.422-0.984,1.338-1.67,2.402-1.797l44.288-5.291c1.066-0.131,2.115,0.323,2.757,1.181l26.726,35.71
						c0.643,0.858,0.778,1.994,0.356,2.979l-17.562,40.999c-0.422,0.984-1.338,1.67-2.402,1.797l-44.288,5.291
						C581.097,207.364,580.979,207.371,580.86,207.371z M557.574,168.25l24.65,32.937l40.849-4.88l16.198-37.814l-24.65-32.937
						l-40.849,4.88L557.574,168.25z"/>
				</g>
				<g>
					<path fill="#FFCC39" d="M598.423,166.371c-0.938,0-1.831-0.44-2.401-1.202l-26.726-35.709
						c-0.993-1.327-0.723-3.207,0.604-4.199c1.326-0.994,3.206-0.723,4.199,0.604l25.688,34.322l42.568-5.084
						c1.634-0.194,3.139,0.979,3.334,2.623c0.197,1.645-0.978,3.138-2.623,3.334l-44.288,5.29
						C598.659,166.364,598.541,166.371,598.423,166.371z"/>
				</g>
				<g>
					<path fill="#FFCC39" d="M580.859,207.372c-0.395,0-0.795-0.078-1.181-0.243c-1.522-0.652-2.229-2.416-1.576-3.939l17.562-41
						c0.652-1.523,2.415-2.23,3.939-1.576c1.522,0.652,2.229,2.416,1.576,3.939l-17.562,41
						C583.131,206.69,582.023,207.372,580.859,207.372z"/>
				</g>
				<g>
					<circle fill="#FFCC39" cx="610.475" cy="135.235" r="3.92"/>
				</g>
				<g>
					<g>
						<circle fill="#FFCC39" cx="619.763" cy="147.199" r="3.92"/>
					</g>
					<g>
						<circle fill="#FFCC39" cx="595.407" cy="136.766" r="3.92"/>
					</g>
				</g>
				<g>
					<circle fill="#FFCC39" cx="604.327" cy="149.588" r="3.92"/>
				</g>
				<g>
					<circle fill="#FFCC39" cx="574.435" cy="155.358" r="3.92"/>
				</g>
				<g>
					<circle fill="#FFCC39" cx="577.897" cy="178.598" r="3.92"/>
				</g>
				<g>
					<circle fill="#FFCC39" cx="612.953" cy="183.012" r="3.92"/>
				</g>
			</g>
			<g>
				<g>
					<path fill="#FFCC39" d="M409.79,238.67c-0.872,0-1.711-0.38-2.287-1.058l-28.874-33.995c-0.694-0.817-0.899-1.942-0.539-2.951
						l15.004-42.004c0.36-1.01,1.232-1.75,2.287-1.942l43.878-8.008c1.057-0.192,2.132,0.192,2.825,1.009l28.874,33.996
						c0.694,0.817,0.899,1.942,0.539,2.951l-15.005,42.004c-0.36,1.01-1.232,1.75-2.287,1.942l-43.877,8.007
						C410.149,238.654,409.969,238.67,409.79,238.67z M384.324,201.053l26.632,31.355l40.47-7.386l13.839-38.741l-26.631-31.355
						l-40.47,7.386L384.324,201.053z"/>
				</g>
				<g>
					<path fill="#FFCC39" d="M415.838,221.737c-0.339,0-0.68-0.058-1.009-0.175c-1.009-0.36-1.75-1.232-1.942-2.286l-8.069-44.217
						c-0.192-1.055,0.192-2.132,1.009-2.825c0.816-0.694,1.941-0.899,2.951-0.539l42.328,15.12c1.009,0.36,1.75,1.232,1.942,2.286
						c0.192,1.055-0.192,2.132-1.01,2.825l-34.258,29.097C417.23,221.491,416.54,221.737,415.838,221.737z M411.654,179.094
						l6.204,33.993l26.337-22.369L411.654,179.094z"/>
				</g>
				<g>
					<path fill="#FFCC39" d="M453.921,229.956c-0.211,0-0.423-0.022-0.633-0.067l-38.082-8.219
						c-0.256-0.056-0.503-0.144-0.735-0.263l-34.67-17.77c-0.855-0.438-1.448-1.26-1.596-2.208c-0.147-0.949,0.168-1.912,0.849-2.59
						l26.601-26.447c0.116-0.114,0.24-0.22,0.373-0.314l32.029-22.857c0.8-0.57,1.827-0.712,2.752-0.383
						c0.925,0.33,1.629,1.093,1.886,2.04l10.298,37.978c0.043,0.157,0.073,0.317,0.089,0.479l3.789,36.969
						c0.046,0.21,0.07,0.429,0.07,0.652c0,1.657-1.343,3-3,3C453.936,229.957,453.928,229.956,453.921,229.956z M416.857,215.888
						l33.659,7.265l-3.378-32.963l-9.106-33.58l-28.32,20.211l-23.498,23.362L416.857,215.888z"/>
				</g>
				<g>
					<path fill="#FFCC39" d="M450.094,192.642c-1.384,0-2.628-0.964-2.931-2.372c-0.347-1.62,0.685-3.215,2.305-3.562l18.576-3.981
						c1.622-0.342,3.216,0.685,3.562,2.305s-0.685,3.215-2.305,3.562l-18.576,3.981
						C450.514,192.619,450.303,192.642,450.094,192.642z"/>
				</g>
				<g>
					<path fill="#FFCC39" d="M407.771,177.521c-0.881,0-1.754-0.387-2.347-1.129l-11.849-14.85
						c-1.034-1.295-0.821-3.183,0.474-4.216c1.295-1.035,3.183-0.821,4.216,0.474l11.849,14.85c1.034,1.295,0.821,3.183-0.474,4.216
						C409.088,177.307,408.427,177.521,407.771,177.521z"/>
				</g>
				<g>
					<path fill="#FFCC39" d="M409.79,238.671c-0.335,0-0.676-0.057-1.009-0.176c-1.56-0.558-2.373-2.274-1.816-3.834l6.049-16.933
						c0.557-1.562,2.274-2.374,3.834-1.816c1.56,0.558,2.373,2.274,1.816,3.834l-6.049,16.933
						C412.177,237.906,411.022,238.671,409.79,238.671z"/>
				</g>
			</g>
			<g>
				<g>
					<path fill="#FFCC39" d="M153.867,75.733c-0.001,0,0,0-0.002,0c-14.162,0-23.753-4.354-26.315-11.944
						c-2.236-6.623,1.218-14.497,9.727-22.17c7.862-7.091,19.3-13.395,32.207-17.752c10.862-3.666,21.663-5.604,31.234-5.604
						c14.162,0,23.754,4.354,26.316,11.945c2.236,6.622-1.219,14.496-9.728,22.169c-7.862,7.091-19.3,13.395-32.207,17.752
						C174.238,73.795,163.437,75.733,153.867,75.733z M200.718,24.263c-8.927,0-19.063,1.829-29.315,5.29
						c-12.148,4.101-22.84,9.968-30.108,16.521c-6.525,5.885-9.463,11.643-8.061,15.796c1.662,4.924,9.375,7.863,20.631,7.863
						c0,0,0.001,0,0.001,0c8.926,0,19.062-1.829,29.314-5.29c12.148-4.101,22.84-9.968,30.108-16.521
						c6.525-5.885,9.463-11.642,8.061-15.795C219.687,27.202,211.975,24.263,200.718,24.263z"/>
				</g>
				<g>
					<path fill="#FFCC39" d="M154.778,66.108C154.778,66.108,154.778,66.108,154.778,66.108c-10.475,0-13.865-3.531-14.865-6.493
						c-1.037-3.071-0.387-8.115,8.599-14.704c6.05-4.438,14.602-8.643,24.078-11.841c9.9-3.342,19.566-5.183,27.216-5.183
						c10.474,0,13.864,3.531,14.864,6.493c1.037,3.071,0.387,8.115-8.599,14.705c-6.05,4.437-14.601,8.642-24.078,11.841
						C172.093,64.269,162.428,66.108,154.778,66.108z M199.806,34.288c-6.871,0-16.044,1.767-25.169,4.847
						c-8.871,2.994-16.805,6.879-22.34,10.938c-5.791,4.246-6.52,6.9-6.319,7.496c0.188,0.555,2.206,2.14,8.8,2.14
						c6.871,0,16.044-1.767,25.168-4.846c20.66-6.975,29.453-16.083,28.659-18.435C208.418,35.873,206.399,34.288,199.806,34.288z"
						/>
				</g>
				<g>
					<path fill="#FFCC39" d="M159.319,91.101c-13.761,0-23.94-4.116-26.571-11.912L127.55,63.79c-0.53-1.57,0.313-3.272,1.883-3.803
						c1.568-0.53,3.272,0.313,3.802,1.883l5.198,15.399c1.402,4.154,7.229,6.953,15.985,7.68c9.755,0.811,21.814-1.005,33.962-5.105
						c12.148-4.101,22.84-9.969,30.108-16.522c6.525-5.884,9.463-11.642,8.061-15.795l-5.198-15.399
						c-0.53-1.57,0.313-3.272,1.883-3.803c1.567-0.529,3.272,0.313,3.802,1.883l5.198,15.399c2.236,6.624-1.218,14.497-9.727,22.171
						c-7.862,7.09-19.3,13.395-32.207,17.752C179.169,89.285,168.455,91.101,159.319,91.101z"/>
				</g>
			</g>
			<g>
				<g>
					<g>
						<path fill="#FFCC39" d="M542.279,353.335L542.279,353.335c-0.898,0-1.776-0.178-2.608-0.526l-21.797-9.135
							c-3.435-1.441-5.056-5.405-3.617-8.837l1.977-4.714c-4.824-8.317-5.503-18.415-1.766-27.331
							c4.807-11.468,15.947-18.878,28.381-18.878c4.085,0,8.082,0.807,11.878,2.398c15.644,6.557,23.036,24.616,16.48,40.259
							c-3.737,8.916-11.412,15.513-20.725,17.906l-1.976,4.714C547.453,351.708,545.008,353.335,542.279,353.335z M542.849,289.914
							c-10.01,0-18.978,5.965-22.848,15.197c-3.176,7.578-2.389,16.22,2.106,23.113c0.544,0.833,0.639,1.881,0.254,2.799
							l-2.571,6.134c-0.16,0.382,0.021,0.823,0.404,0.983l21.795,9.135c0.314,0.13,0.779,0.083,0.984-0.402l2.57-6.134
							c0.384-0.917,1.198-1.585,2.173-1.781c8.067-1.63,14.78-7.127,17.957-14.706c5.276-12.591-0.674-27.129-13.266-32.406
							C549.35,290.564,546.134,289.914,542.849,289.914z"/>
					</g>
					<g>
						<g>
							<path fill="#FFCC39" d="M529.931,347.976c-0.322,0-0.649-0.062-0.965-0.195c-1.273-0.533-1.874-1.999-1.34-3.271l3.045-7.266
								c0.534-1.274,1.998-1.877,3.271-1.34c1.273,0.533,1.874,1.999,1.34,3.271l-3.045,7.266
								C531.836,347.398,530.908,347.976,529.931,347.976z"/>
						</g>
						<g>
							<path fill="#FFCC39" d="M522.752,344.967c-0.322,0-0.649-0.062-0.965-0.195c-1.273-0.533-1.874-1.999-1.34-3.271l3.045-7.266
								c0.533-1.274,1.998-1.877,3.271-1.34c1.273,0.533,1.874,1.999,1.34,3.271l-3.045,7.266
								C524.657,344.39,523.729,344.967,522.752,344.967z"/>
						</g>
						<g>
							<path fill="#FFCC39" d="M537.11,350.984c-0.322,0-0.649-0.062-0.965-0.195c-1.273-0.533-1.874-1.999-1.34-3.271l3.045-7.266
								c0.533-1.273,1.998-1.876,3.271-1.34c1.273,0.533,1.874,1.999,1.34,3.271l-3.045,7.266
								C539.016,350.407,538.088,350.984,537.11,350.984z"/>
						</g>
					</g>
					<g>
						<g>
							<circle fill="#FFCC39" cx="530.182" cy="313.547" r="7.784"/>
						</g>
						<g>
							<circle fill="#FFCC39" cx="552.519" cy="322.909" r="7.784"/>
						</g>
					</g>
					<g>
						<path fill="#FFCC39" d="M539.635,331.786c-0.631,1.506-2.184,0.975-4.047,0.195s-3.331-1.516-2.699-3.022
							c0.631-1.506,3.591-4.332,5.454-3.551S540.266,330.28,539.635,331.786z"/>
					</g>
				</g>
				<g>
					<path fill="#FFCC39" d="M552.895,394.227c-1.728,0-3.417-0.341-5.021-1.014l-64.559-27.058
						c-6.611-2.771-9.735-10.403-6.965-17.014l42.261-100.836c2.031-4.847,6.738-7.979,11.993-7.979
						c1.728,0,3.417,0.341,5.021,1.014l64.56,27.058c3.203,1.342,5.691,3.851,7.007,7.064s1.301,6.747-0.042,9.949l-42.261,100.836
						C562.857,391.095,558.149,394.227,552.895,394.227z M530.604,246.327c-2.83,0-5.366,1.688-6.46,4.297L481.884,351.46
						c-1.491,3.561,0.19,7.67,3.75,9.162l64.559,27.058c0.866,0.362,1.775,0.547,2.702,0.547c2.831,0,5.367-1.687,6.461-4.297
						l42.261-100.836c0.723-1.725,0.73-3.628,0.022-5.357c-0.709-1.73-2.049-3.082-3.772-3.805l-64.56-27.058
						C532.44,246.512,531.531,246.327,530.604,246.327z"/>
				</g>
			</g>
			<g>
				<g>
					<path fill="#FFCC39" d="M155.234,269.401c-11.922,0-22.821-8.039-25.918-20.106c-1.49-5.806-1.021-11.776,1.355-17.266
						c0.545-1.259,1.875-1.986,3.231-1.77c1.355,0.219,2.389,1.33,2.51,2.697c0.273,3.079,2.352,7.503,5.233,9.281
						c1.323,0.817,2.582,0.944,3.959,0.397c1.547-0.611,2.084-1.822,2.262-2.73c0.299-1.523-0.198-3.215-1.236-4.211
						c-4.226-4.051-7.291-9.499-8.134-12.786c-2.783-10.845,2.948-21.544,9.88-27.366c0.15-0.133,0.313-0.249,0.484-0.348
						c0.343-0.199,0.714-0.323,1.092-0.376c0.412-0.055,0.835-0.029,1.248,0.092c0.409,0.118,0.797,0.325,1.132,0.617
						c0.179,0.156,0.338,0.331,0.473,0.521c0.353,0.493,0.536,1.062,0.556,1.634c0.01,0.259-0.014,0.521-0.074,0.78
						c-0.053,0.233-0.135,0.462-0.245,0.68c-1.407,3.019-1.546,5.968-0.415,8.764c1.601,3.952,5.423,6.892,8.501,8.051
						c10.616,3.996,17.724,11.112,20.015,20.035c3.667,14.289-4.974,28.898-19.264,32.566
						C159.659,269.128,157.428,269.4,155.234,269.401z M134.49,243.623c0.069,1.396,0.281,2.794,0.637,4.18
						c2.845,11.084,14.177,17.787,25.262,14.943c11.084-2.845,17.788-14.178,14.943-25.262c-2.294-8.938-10.14-13.587-16.317-15.912
						c-3.988-1.502-9.51-5.393-11.949-11.414c-0.342-0.845-0.61-1.702-0.805-2.568c-2.165,4.122-3.198,8.98-1.954,13.826
						c0.529,2.06,2.887,6.508,6.475,9.948c2.531,2.426,3.669,6.142,2.972,9.696c-0.65,3.31-2.816,5.918-5.943,7.155
						c-3.153,1.246-6.375,0.945-9.317-0.871C136.959,246.397,135.617,245.102,134.49,243.623z"/>
				</g>
				<g>
					<path fill="#FFCC39" d="M132.313,307.176c-5.933,0-11.108-4.018-12.584-9.771L92.548,191.504
						c-0.863-3.364-0.365-6.862,1.403-9.851s4.594-5.11,7.958-5.974l67.802-17.402c1.061-0.272,2.151-0.41,3.239-0.41
						c5.934,0,11.108,4.018,12.584,9.771l27.181,105.9c0.863,3.363,0.365,6.861-1.403,9.851c-1.768,2.988-4.594,5.11-7.957,5.974
						l-67.803,17.402C134.491,307.038,133.401,307.176,132.313,307.176z M172.95,163.867c-0.585,0-1.173,0.075-1.748,0.223
						L103.4,181.492c-1.811,0.465-3.333,1.606-4.285,3.216c-0.952,1.609-1.22,3.493-0.755,5.304l27.181,105.901
						c0.795,3.099,3.581,5.263,6.773,5.263c0.585,0,1.173-0.075,1.747-0.223l67.803-17.402c1.811-0.465,3.332-1.606,4.284-3.216
						s1.22-3.493,0.755-5.304L179.723,169.13C178.928,166.031,176.143,163.867,172.95,163.867z"/>
				</g>
			</g>
			<g>
				<g>
					<path fill="#FFCC39" d="M342.616,375.367c-0.279,0-0.559-0.039-0.832-0.117c-0.765-0.221-1.41-0.736-1.794-1.433
						l-11.168-20.225c-0.801-1.45-0.274-3.275,1.176-4.076l79.67-43.994c0.633-0.35,1.372-0.459,2.077-0.308l17.228,3.682
						c0.85,0.182,1.579,0.723,1.999,1.483c0.42,0.761,0.49,1.666,0.191,2.482l-6.06,16.542c-0.249,0.679-0.734,1.244-1.367,1.594
						l-79.67,43.995C343.618,375.241,343.119,375.367,342.616,375.367z M335.524,353.318l8.268,14.973l76.063-42.003l4.486-12.246
						l-12.753-2.726L335.524,353.318z"/>
				</g>
				<g>
					<path fill="#FFCC39" d="M337.035,365.256c-1.057,0-2.082-0.56-2.629-1.551c-0.801-1.45-0.274-3.275,1.176-4.076l91.314-50.425
						c1.451-0.802,3.276-0.274,4.076,1.176c0.801,1.45,0.274,3.275-1.176,4.076l-91.314,50.425
						C338.022,365.135,337.525,365.256,337.035,365.256z"/>
				</g>
				<g>
					<path fill="#FFCC39" d="M339.181,392.801c-0.151,0-0.304-0.012-0.456-0.035c-0.919-0.141-1.721-0.7-2.17-1.515l-24.318-44.037
						c-0.45-0.814-0.497-1.79-0.126-2.644s1.115-1.486,2.016-1.715l11.46-2.901c1.322-0.336,2.704,0.265,3.362,1.458l21.417,38.785
						c0.66,1.193,0.431,2.682-0.557,3.622l-8.56,8.153C340.688,392.508,339.945,392.801,339.181,392.801z M319.369,347.718
						l20.559,37.229l4.068-3.875l-19.18-34.732L319.369,347.718z"/>
				</g>
				<g>
					<path fill="#FFCC39" d="M299.856,397c0,0,0,0-0.001,0c-5.177,0-9.947-2.813-12.448-7.342c-3.787-6.858-1.288-15.52,5.57-19.306
						c3.369-1.861,7.461-2.255,11.092-1.118l18.204-10.052c1.45-0.801,3.276-0.275,4.076,1.176l6.598,11.948
						c0.385,0.696,0.477,1.518,0.256,2.281c-0.22,0.765-0.736,1.41-1.432,1.795l-18.203,10.052
						c-0.985,3.747-3.425,6.899-6.855,8.793C304.614,396.388,302.242,397,299.856,397z M299.814,374.586
						c-1.369,0-2.73,0.352-3.937,1.019c-3.962,2.188-5.406,7.191-3.218,11.153c1.444,2.616,4.202,4.242,7.196,4.242h0
						c1.375,0,2.743-0.354,3.957-1.024c2.239-1.236,3.747-3.407,4.136-5.956c0.141-0.92,0.701-1.723,1.516-2.173l16.779-9.266
						l-3.697-6.696l-16.78,9.266c-0.815,0.45-1.793,0.497-2.646,0.125C302.067,374.817,300.955,374.586,299.814,374.586z"/>
				</g>
				<g>
					<circle fill="#FFCC39" cx="300.134" cy="382.63" r="4"/>
				</g>
			</g>
			<g>
				<g>
					<path fill="#FFCC39" d="M474.795,109.479c-1.85,0-3.646-0.388-5.342-1.153l-65.704-29.658
						c-3.165-1.429-5.584-4.005-6.812-7.253c-1.228-3.248-1.117-6.779,0.312-9.944l29.658-65.703
						c2.099-4.649,6.752-7.654,11.854-7.654c1.85,0,3.647,0.389,5.343,1.154l65.704,29.657c3.165,1.429,5.584,4.005,6.812,7.253
						s1.117,6.78-0.312,9.944l-29.658,65.703C484.551,106.474,479.897,109.479,474.795,109.479z M438.761-5.888
						c-2.749,0-5.255,1.618-6.385,4.123l-29.658,65.703c-0.77,1.704-0.829,3.605-0.168,5.354s1.964,3.136,3.668,3.905l65.703,29.658
						c0.914,0.413,1.882,0.622,2.874,0.622c2.748,0,5.255-1.618,6.386-4.123l29.658-65.703c0.77-1.704,0.829-3.605,0.168-5.354
						s-1.964-3.136-3.668-3.905L441.635-5.265C440.72-5.678,439.753-5.888,438.761-5.888z"/>
				</g>
				<g>
					<path fill="#FFCC39" d="M479.207,45.037l-0.039-0.018l1.154-10.049l-0.042-0.019c1.747-5.005-0.586-10.603-5.51-12.825
						c-1.625-0.734-3.34-1.012-5.002-0.891l-19.429-8.77c-1.163-0.525-2.584-0.22-3.319,0.824c-0.989,1.404-0.425,3.277,1.059,3.946
						l15.252,6.885c-0.705,0.681-1.323,1.468-1.823,2.358l-4.624-2.087c-0.875-0.395-1.886-0.347-2.719,0.128l-9.023,5.142
						l-0.169-0.077c-4.194-1.893-9.284-0.381-11.444,3.682c-2.367,4.452-0.456,9.903,4.066,11.944l34.563,15.602
						c5.156,2.327,11.392-0.824,12.17-6.982C484.796,50.119,482.615,46.575,479.207,45.037z M445.533,39.314
						c-0.909,2.013-3.278,2.909-5.291,2s-2.909-3.278-2-5.292c0.909-2.013,3.278-2.909,5.292-2
						C445.546,34.931,446.442,37.3,445.533,39.314z M456.849,44.422c-0.909,2.014-3.278,2.909-5.292,2s-2.909-3.278-2-5.292
						c0.909-2.013,3.278-2.909,5.292-2C456.862,40.039,457.758,42.409,456.849,44.422z M468.165,49.53
						c-0.909,2.013-3.278,2.909-5.292,2s-2.909-3.278-2-5.291c0.909-2.014,3.278-2.909,5.292-2
						C468.179,45.148,469.074,47.517,468.165,49.53z M479.481,54.638c-0.909,2.013-3.278,2.909-5.292,2
						c-2.013-0.909-2.909-3.278-2-5.292c0.909-2.013,3.278-2.909,5.292-2C479.495,50.256,480.39,52.625,479.481,54.638z"/>
				</g>
				<g>
					<path fill="#FFCC39" d="M421.068,68.411c-0.344,0-0.693-0.071-1.027-0.223c-1.258-0.567-1.818-2.049-1.25-3.307l4.492-9.951
						c0.568-1.258,2.048-1.82,3.308-1.25c1.258,0.567,1.818,2.049,1.25,3.307l-4.492,9.951
						C422.931,67.863,422.021,68.411,421.068,68.411z"/>
				</g>
				<g>
					<path fill="#FFCC39" d="M434.254,68.373c-0.344,0-0.693-0.071-1.027-0.223l-2.278-1.028c-1.259-0.567-1.818-2.048-1.25-3.307
						c0.568-1.259,2.049-1.82,3.307-1.25l2.278,1.028c1.259,0.567,1.818,2.048,1.25,3.307
						C436.117,67.825,435.207,68.373,434.254,68.373z"/>
				</g>
				<g>
					<path fill="#FFCC39" d="M461.145,80.513c-0.344,0-0.693-0.071-1.027-0.223l-2.278-1.029c-1.258-0.568-1.817-2.05-1.249-3.308
						c0.568-1.257,2.048-1.819,3.308-1.249l2.278,1.029c1.258,0.568,1.817,2.05,1.249,3.308
						C463.008,79.965,462.099,80.513,461.145,80.513z"/>
				</g>
				<g>
					<path fill="#FFCC39" d="M467.561,89.397c-0.345,0-0.693-0.071-1.027-0.223c-1.259-0.567-1.818-2.049-1.25-3.307l4.492-9.951
						c0.567-1.26,2.05-1.82,3.307-1.25c1.259,0.567,1.818,2.049,1.25,3.307l-4.492,9.951
						C469.424,88.85,468.514,89.397,467.561,89.397z"/>
				</g>
				<g>
					<path fill="#FFCC39" d="M448.469,79.682c-0.344,0-0.693-0.071-1.027-0.223l-7.485-3.378c-1.039-0.469-1.628-1.58-1.435-2.703
						s1.123-1.973,2.258-2.066c3.487-0.289,7.303-1.393,7.853-2.27c0.067-0.197,0.252-0.706-0.456-1.217
						c-0.629-0.455-1.532-0.549-1.969-0.203c-1.084,0.855-2.655,0.67-3.511-0.417c-0.854-1.084-0.668-2.656,0.417-3.511
						c2.221-1.75,5.509-1.718,7.993,0.078c2.323,1.68,3.168,4.371,2.204,7.023c-0.321,0.885-1.32,2.546-4.401,3.841l0.588,0.266
						c1.258,0.567,1.818,2.048,1.25,3.307C450.332,79.134,449.421,79.682,448.469,79.682z"/>
				</g>
			</g>
			<g>
				<path fill="#FFCC39" d="M340.421,120.612c-1.183,0-2.303-0.704-2.778-1.866l-4.37-10.696c-0.548-1.342-0.059-2.883,1.163-3.663
					l7.628-4.873l-3.424-8.379c-0.626-1.534,0.109-3.285,1.643-3.912c1.534-0.626,3.286,0.109,3.912,1.643l4.37,10.695
					c0.548,1.342,0.059,2.883-1.163,3.663l-7.628,4.873l3.424,8.38c0.626,1.534-0.109,3.285-1.643,3.912
					C341.184,120.54,340.799,120.612,340.421,120.612z"/>
			</g>
			<g>
				<path fill="#FFCC39" d="M666.805,278.517c-7.489,0-13.583-6.094-13.583-13.583c0-7.49,6.094-13.584,13.583-13.584
					s13.583,6.094,13.583,13.584C680.388,272.423,674.294,278.517,666.805,278.517z M666.805,257.35
					c-4.182,0-7.583,3.402-7.583,7.584s3.401,7.583,7.583,7.583s7.583-3.401,7.583-7.583S670.986,257.35,666.805,257.35z"/>
			</g>
			<g>
				<path fill="#FFCC39" d="M585.01,43.13c-0.606,0-1.209-0.184-1.723-0.544c-0.878-0.615-1.36-1.652-1.266-2.72l2.002-22.667
					c0.094-1.068,0.751-2.004,1.723-2.456c0.972-0.451,2.11-0.353,2.988,0.264l18.629,13.067c0.878,0.615,1.36,1.652,1.266,2.72
					c-0.094,1.068-0.751,2.004-1.723,2.456l-20.631,9.6C585.872,43.037,585.44,43.13,585.01,43.13z M589.543,22.903l-1.088,12.314
					l11.209-5.216L589.543,22.903z"/>
			</g>
			<g>
				<path fill="#FFCC39" d="M260.967,142.315c-0.787,0-1.555-0.311-2.125-0.883l-16.06-16.122c-0.756-0.76-1.05-1.864-0.771-2.899
					c0.28-1.034,1.09-1.842,2.125-2.117l21.992-5.847c1.036-0.274,2.14,0.023,2.896,0.782c0.756,0.76,1.05,1.864,0.771,2.899
					l-5.932,21.969c-0.28,1.034-1.09,1.842-2.125,2.117C261.483,142.282,261.224,142.315,260.967,142.315z M250.7,124.758
					l8.726,8.759l3.223-11.936L250.7,124.758z"/>
			</g>
			<g>
				<path fill="#FFCC39" d="M639.397,376.311c-1.015,0-2.005-0.515-2.569-1.446c-0.858-1.417-0.404-3.262,1.013-4.12l7.743-4.688
					l-3.221-8.46c-0.516-1.354,0.011-2.884,1.25-3.634l9.884-5.983c1.416-0.858,3.261-0.404,4.12,1.013
					c0.858,1.417,0.404,3.262-1.013,4.12l-7.743,4.688l3.221,8.46c0.516,1.354-0.011,2.883-1.25,3.634l-9.884,5.984
					C640.463,376.171,639.927,376.311,639.397,376.311z"/>
			</g>
			<g>
				<path fill="#FFCC39" d="M313.205,42.38c-7.49,0-13.583-6.094-13.583-13.583s6.094-13.583,13.583-13.583
					s13.583,6.094,13.583,13.583S320.694,42.38,313.205,42.38z M313.205,21.214c-4.182,0-7.583,3.401-7.583,7.583
					s3.402,7.583,7.583,7.583c4.181,0,7.583-3.401,7.583-7.583S317.386,21.214,313.205,21.214z"/>
			</g>
			<g>
				<path fill="#FFCC39" d="M652.91,84.791c-0.278,0-0.561-0.039-0.841-0.121c-1.591-0.464-2.504-2.13-2.04-3.72l2.535-8.69
					l-8.093-4.054c-1.296-0.649-1.942-2.132-1.536-3.522l3.235-11.092c0.463-1.591,2.13-2.507,3.72-2.04
					c1.591,0.464,2.504,2.129,2.04,3.72l-2.535,8.69l8.094,4.054c1.296,0.649,1.942,2.132,1.536,3.522l-3.236,11.092
					C655.407,83.94,654.21,84.791,652.91,84.791z"/>
			</g>
			<g>
				<path fill="#FFCC39" d="M189.43,377.272c-0.204,0-0.409-0.021-0.613-0.063l-22.275-4.651c-1.049-0.219-1.902-0.981-2.236-1.999
					c-0.335-1.019-0.102-2.138,0.613-2.937l15.165-16.965c0.715-0.799,1.799-1.158,2.85-0.938c1.049,0.219,1.902,0.981,2.236,1.999
					l7.005,21.296c0.177,0.383,0.275,0.809,0.275,1.258C192.451,375.936,191.112,377.312,189.43,377.272z M172.855,367.746
					l12.102,2.527l-3.863-11.744L172.855,367.746z"/>
			</g>
		</g>
		<g>
			<g>
				<g>
					<path fill="#FFCC39" d="M910.247,224.809c-9.337,0-17.305-6.366-19.377-15.482c-2.428-10.692,4.294-21.367,14.985-23.797
						c1.454-0.33,2.941-0.497,4.42-0.497c9.337,0,17.305,6.366,19.377,15.482c2.429,10.693-4.294,21.368-14.986,23.797
						C913.213,224.642,911.726,224.809,910.247,224.809z M910.275,191.032c-1.032,0-2.072,0.117-3.091,0.349
						c-7.465,1.696-12.159,9.15-10.463,16.616c1.446,6.365,7.008,10.812,13.525,10.812c1.032,0,2.072-0.117,3.091-0.349
						c7.465-1.695,12.159-9.149,10.463-16.616C922.354,195.479,916.793,191.032,910.275,191.032z"/>
				</g>
				<g>
					<g>
						<path fill="#FFCC39" d="M901.782,279.913c-0.736,0-1.474-0.27-2.053-0.813c-1.208-1.134-1.268-3.032-0.133-4.24
							c13.401-14.272,7.893-40.057,7.835-40.315c-0.357-1.617,0.662-3.219,2.278-3.578c1.619-0.351,3.218,0.658,3.578,2.274
							c0.066,0.295,1.606,7.325,1.288,16.404c-0.43,12.251-4.098,22.391-10.606,29.322
							C903.38,279.596,902.582,279.913,901.782,279.913z"/>
					</g>
					<g>
						<g>
							<path fill="#FFCC39" d="M949.01,269.186c-0.36,0-0.728-0.065-1.084-0.204c-21.235-8.238-27.887-36.033-28.159-37.213
								c-0.373-1.614,0.633-3.226,2.247-3.599c1.614-0.374,3.224,0.631,3.598,2.244c0.064,0.273,6.236,25.895,24.484,32.974
								c1.545,0.6,2.312,2.337,1.712,3.882C951.347,268.458,950.212,269.186,949.01,269.186z"/>
						</g>
					</g>
				</g>
				<g>
					<path fill="#FFCC39" d="M903.166,235.331c-1.369,0-2.606-0.944-2.923-2.337c-0.367-1.615,0.646-3.223,2.262-3.59l25.331-5.754
						c1.611-0.363,3.223,0.645,3.59,2.262c0.367,1.615-0.646,3.223-2.262,3.59l-25.331,5.754
						C903.609,235.307,903.387,235.331,903.166,235.331z"/>
				</g>
				<g>
					<path fill="#FFCC39" d="M896.99,297.253c-0.562,0-1.116-0.157-1.599-0.462c-0.674-0.424-1.15-1.098-1.327-1.874l-3.51-15.454
						c-0.366-1.615,0.646-3.223,2.261-3.59l63.833-14.501c1.612-0.365,3.224,0.645,3.591,2.261l3.511,15.454
						c0.176,0.776,0.037,1.591-0.388,2.264c-0.424,0.673-1.098,1.15-1.873,1.327l-63.834,14.501
						C897.435,297.229,897.212,297.253,896.99,297.253z M897.07,281.06l2.181,9.604l57.983-13.172l-2.182-9.604L897.07,281.06z"/>
				</g>
			</g>
			<g>
				<g>
					<path fill="#FFCC39" d="M1208.338,207.371c-0.938,0-1.831-0.44-2.401-1.202l-26.726-35.71
						c-0.643-0.858-0.778-1.994-0.356-2.979l17.562-40.999c0.422-0.984,1.338-1.67,2.402-1.797l44.288-5.291
						c1.062-0.131,2.114,0.323,2.757,1.181l26.726,35.71c0.643,0.858,0.778,1.994,0.356,2.979l-17.562,40.999
						c-0.422,0.984-1.338,1.67-2.402,1.797l-44.288,5.291C1208.574,207.364,1208.456,207.371,1208.338,207.371z M1185.052,168.25
						l24.65,32.937l40.849-4.88l16.198-37.814l-24.65-32.937l-40.849,4.88L1185.052,168.25z"/>
				</g>
				<g>
					<path fill="#FFCC39" d="M1225.9,166.371c-0.938,0-1.831-0.44-2.401-1.202l-26.726-35.709c-0.993-1.327-0.723-3.207,0.604-4.199
						c1.326-0.994,3.207-0.723,4.199,0.604l25.688,34.322l42.568-5.084c1.639-0.194,3.138,0.979,3.334,2.623
						c0.197,1.645-0.978,3.138-2.623,3.334l-44.288,5.29C1226.137,166.364,1226.019,166.371,1225.9,166.371z"/>
				</g>
				<g>
					<path fill="#FFCC39" d="M1208.337,207.372c-0.395,0-0.795-0.078-1.181-0.243c-1.522-0.652-2.229-2.416-1.576-3.939l17.562-41
						c0.651-1.523,2.414-2.23,3.939-1.576c1.522,0.652,2.229,2.416,1.576,3.939l-17.562,41
						C1210.608,206.69,1209.501,207.372,1208.337,207.372z"/>
				</g>
				<g>
					<circle fill="#FFCC39" cx="1237.953" cy="135.235" r="3.92"/>
				</g>
				<g>
					<g>
						<circle fill="#FFCC39" cx="1247.241" cy="147.199" r="3.92"/>
					</g>
					<g>
						<circle fill="#FFCC39" cx="1222.884" cy="136.766" r="3.92"/>
					</g>
				</g>
				<g>
					<circle fill="#FFCC39" cx="1231.805" cy="149.588" r="3.92"/>
				</g>
				<g>
					<circle fill="#FFCC39" cx="1201.912" cy="155.358" r="3.92"/>
				</g>
				<g>
					<circle fill="#FFCC39" cx="1205.374" cy="178.598" r="3.92"/>
				</g>
				<g>
					<circle fill="#FFCC39" cx="1240.431" cy="183.012" r="3.92"/>
				</g>
			</g>
			<g>
				<g>
					<path fill="#FFCC39" d="M1037.268,238.67c-0.872,0-1.711-0.38-2.286-1.058l-28.874-33.995
						c-0.694-0.817-0.899-1.942-0.539-2.951l15.005-42.004c0.36-1.01,1.232-1.75,2.286-1.942l43.878-8.008
						c1.057-0.196,2.132,0.192,2.825,1.009l28.874,33.996c0.694,0.817,0.899,1.942,0.539,2.951l-15.005,42.004
						c-0.36,1.01-1.232,1.75-2.287,1.942l-43.878,8.007C1037.627,238.654,1037.446,238.67,1037.268,238.67z M1011.802,201.053
						l26.631,31.355l40.471-7.386l13.839-38.741l-26.631-31.355l-40.471,7.386L1011.802,201.053z"/>
				</g>
				<g>
					<path fill="#FFCC39" d="M1043.316,221.737c-0.339,0-0.681-0.058-1.009-0.175c-1.01-0.36-1.75-1.232-1.942-2.286l-8.069-44.217
						c-0.192-1.055,0.192-2.132,1.009-2.825s1.944-0.899,2.951-0.539l42.327,15.12c1.01,0.36,1.75,1.232,1.942,2.286
						c0.192,1.055-0.192,2.132-1.009,2.825l-34.258,29.097C1044.708,221.491,1044.017,221.737,1043.316,221.737z M1039.131,179.094
						l6.204,33.993l26.337-22.369L1039.131,179.094z"/>
				</g>
				<g>
					<path fill="#FFCC39" d="M1081.398,229.956c-0.211,0-0.423-0.022-0.633-0.067l-38.082-8.219
						c-0.256-0.056-0.503-0.144-0.735-0.263l-34.671-17.77c-0.855-0.438-1.448-1.26-1.596-2.208
						c-0.148-0.949,0.168-1.912,0.849-2.59l26.602-26.447c0.115-0.114,0.24-0.22,0.373-0.314l32.029-22.857
						c0.799-0.57,1.827-0.712,2.751-0.383c0.925,0.33,1.63,1.093,1.887,2.04l10.298,37.978c0.043,0.157,0.072,0.317,0.089,0.479
						l3.789,36.969c0.046,0.21,0.07,0.429,0.07,0.652c0,1.657-1.343,3-3,3C1081.414,229.957,1081.405,229.956,1081.398,229.956z
						 M1044.334,215.888l33.659,7.265l-3.378-32.963l-9.105-33.58l-28.321,20.211l-23.498,23.362L1044.334,215.888z"/>
				</g>
				<g>
					<path fill="#FFCC39" d="M1077.571,192.642c-1.384,0-2.629-0.964-2.931-2.372c-0.347-1.62,0.685-3.215,2.305-3.562l18.576-3.981
						c1.623-0.342,3.216,0.685,3.562,2.305s-0.685,3.215-2.305,3.562l-18.576,3.981
						C1077.991,192.619,1077.779,192.642,1077.571,192.642z"/>
				</g>
				<g>
					<path fill="#FFCC39" d="M1035.249,177.521c-0.882,0-1.755-0.387-2.347-1.129l-11.849-14.85
						c-1.033-1.295-0.821-3.183,0.474-4.216c1.295-1.034,3.184-0.821,4.216,0.474l11.849,14.85c1.033,1.295,0.821,3.183-0.474,4.216
						C1036.565,177.307,1035.905,177.521,1035.249,177.521z"/>
				</g>
				<g>
					<path fill="#FFCC39" d="M1037.268,238.671c-0.335,0-0.676-0.057-1.009-0.176c-1.561-0.558-2.374-2.274-1.816-3.834
						l6.049-16.933c0.558-1.562,2.277-2.374,3.834-1.816c1.561,0.558,2.374,2.274,1.816,3.834l-6.049,16.933
						C1039.654,237.906,1038.499,238.671,1037.268,238.671z"/>
				</g>
			</g>
			<g>
				<g>
					<path fill="#FFCC39" d="M781.345,75.733c-0.002,0-0.001,0-0.002,0c-14.162,0-23.754-4.354-26.316-11.944
						c-2.235-6.623,1.219-14.497,9.728-22.17c7.862-7.091,19.301-13.395,32.208-17.752c10.861-3.666,21.662-5.604,31.233-5.604
						c14.162,0,23.754,4.354,26.316,11.945c2.235,6.622-1.219,14.496-9.728,22.169c-7.862,7.091-19.3,13.395-32.207,17.752
						C801.716,73.795,790.914,75.733,781.345,75.733z M828.195,24.263c-8.927,0-19.063,1.829-29.315,5.29
						c-12.147,4.101-22.84,9.968-30.107,16.521c-6.525,5.885-9.463,11.643-8.061,15.797c1.661,4.923,9.374,7.862,20.631,7.862
						c0,0,0.001,0,0.002,0c8.926,0,19.062-1.829,29.313-5.29c12.148-4.101,22.84-9.968,30.107-16.521
						c6.525-5.885,9.463-11.642,8.061-15.795C847.164,27.202,839.452,24.263,828.195,24.263z"/>
				</g>
				<g>
					<path fill="#FFCC39" d="M782.256,66.108L782.256,66.108c-10.474,0-13.865-3.53-14.865-6.492
						c-1.037-3.072-0.387-8.116,8.599-14.705c6.05-4.438,14.602-8.643,24.078-11.841c9.9-3.342,19.566-5.183,27.216-5.183
						c10.474,0,13.864,3.531,14.864,6.493c1.037,3.071,0.387,8.115-8.599,14.705c-6.05,4.437-14.602,8.642-24.078,11.841
						C799.571,64.269,789.905,66.108,782.256,66.108z M827.283,34.288c-6.871,0-16.045,1.767-25.169,4.847
						c-8.871,2.994-16.805,6.879-22.34,10.938c-5.79,4.246-6.521,6.9-6.319,7.496c0.188,0.555,2.207,2.14,8.801,2.14
						c6.87,0,16.044-1.767,25.168-4.846c20.66-6.975,29.453-16.083,28.659-18.435C835.896,35.873,833.877,34.288,827.283,34.288z"/>
				</g>
				<g>
					<path fill="#FFCC39" d="M786.797,91.101c-13.761,0-23.94-4.116-26.572-11.912l-5.198-15.398
						c-0.529-1.57,0.313-3.272,1.883-3.803c1.575-0.531,3.272,0.314,3.803,1.883l5.198,15.399c1.401,4.154,7.229,6.953,15.984,7.68
						c9.752,0.809,21.813-1.005,33.963-5.105c12.147-4.101,22.84-9.969,30.107-16.522c6.525-5.884,9.463-11.642,8.061-15.796
						l-5.199-15.398c-0.529-1.57,0.313-3.272,1.883-3.803c1.576-0.529,3.273,0.315,3.803,1.883l5.199,15.399
						c4.378,12.971-14.042,30.507-41.935,39.923C806.646,89.285,795.932,91.101,786.797,91.101z"/>
				</g>
			</g>
			<g>
				<g>
					<g>
						<path fill="#FFCC39" d="M1169.757,353.335L1169.757,353.335c-0.898,0-1.776-0.178-2.608-0.526l-21.797-9.135
							c-3.435-1.44-5.057-5.404-3.617-8.837l1.976-4.714c-4.823-8.317-5.501-18.415-1.765-27.331
							c4.807-11.468,15.947-18.878,28.381-18.878c4.085,0,8.082,0.807,11.878,2.398c15.644,6.557,23.036,24.617,16.479,40.26
							c-3.735,8.915-11.41,15.512-20.724,17.905l-1.976,4.714C1174.931,351.708,1172.485,353.335,1169.757,353.335z
							 M1170.326,289.914c-10.01,0-18.978,5.965-22.848,15.197c-3.176,7.578-2.389,16.219,2.105,23.113
							c0.543,0.833,0.639,1.881,0.254,2.798l-2.57,6.134c-0.16,0.383,0.021,0.824,0.403,0.984l21.796,9.135
							c0.314,0.13,0.779,0.083,0.984-0.402l2.57-6.134c0.384-0.917,1.198-1.585,2.173-1.781c8.067-1.63,14.78-7.127,17.956-14.705
							c5.277-12.592-0.673-27.129-13.266-32.407C1176.827,290.564,1173.611,289.914,1170.326,289.914z"/>
					</g>
					<g>
						<g>
							<path fill="#FFCC39" d="M1157.408,347.976c-0.322,0-0.649-0.062-0.965-0.195c-1.273-0.533-1.874-1.999-1.34-3.271
								l3.045-7.266c0.533-1.274,1.999-1.877,3.271-1.34c1.273,0.533,1.874,1.999,1.34,3.271l-3.045,7.266
								C1159.313,347.398,1158.386,347.976,1157.408,347.976z"/>
						</g>
						<g>
							<path fill="#FFCC39" d="M1150.229,344.967c-0.322,0-0.649-0.062-0.965-0.195c-1.273-0.533-1.874-1.999-1.34-3.271
								l3.045-7.266c0.533-1.274,1.999-1.877,3.271-1.34c1.273,0.533,1.874,1.999,1.34,3.271l-3.045,7.266
								C1152.135,344.39,1151.207,344.967,1150.229,344.967z"/>
						</g>
						<g>
							<path fill="#FFCC39" d="M1164.588,350.984c-0.322,0-0.649-0.062-0.965-0.195c-1.273-0.533-1.874-1.999-1.34-3.271
								l3.045-7.266c0.533-1.273,1.997-1.876,3.271-1.34c1.273,0.533,1.874,1.999,1.34,3.271l-3.045,7.266
								C1166.493,350.407,1165.565,350.984,1164.588,350.984z"/>
						</g>
					</g>
					<g>
						<g>
							<circle fill="#FFCC39" cx="1157.66" cy="313.547" r="7.784"/>
						</g>
						<g>
							<circle fill="#FFCC39" cx="1179.997" cy="322.909" r="7.784"/>
						</g>
					</g>
					<g>
						<path fill="#FFCC39" d="M1167.112,331.786c-0.631,1.506-2.184,0.975-4.047,0.195s-3.33-1.516-2.699-3.022
							c0.631-1.506,3.591-4.332,5.454-3.551S1167.743,330.28,1167.112,331.786z"/>
					</g>
				</g>
				<g>
					<path fill="#FFCC39" d="M1180.372,394.227c-1.728,0-3.417-0.341-5.021-1.014l-64.559-27.058
						c-6.611-2.771-9.735-10.403-6.965-17.014l42.261-100.836c2.031-4.847,6.738-7.979,11.993-7.979
						c1.728,0,3.417,0.341,5.021,1.014l64.56,27.058c3.203,1.342,5.691,3.851,7.007,7.064s1.301,6.747-0.042,9.949l-42.262,100.836
						C1190.334,391.095,1185.627,394.227,1180.372,394.227z M1158.082,246.327c-2.83,0-5.366,1.688-6.46,4.297l-42.261,100.836
						c-1.491,3.561,0.19,7.67,3.75,9.162l64.559,27.058c0.866,0.362,1.775,0.547,2.702,0.547c2.83,0,5.366-1.688,6.46-4.297
						l42.262-100.836c0.723-1.725,0.73-3.628,0.022-5.357c-0.709-1.73-2.049-3.082-3.772-3.805l-64.56-27.058
						C1159.918,246.512,1159.009,246.327,1158.082,246.327z"/>
				</g>
			</g>
			<g>
				<g>
					<path fill="#FFCC39" d="M782.712,269.4c-11.922,0.001-22.822-8.038-25.92-20.105c-1.489-5.807-1.021-11.777,1.355-17.266
						c0.545-1.258,1.875-1.984,3.23-1.77c1.355,0.219,2.39,1.329,2.511,2.696c0.273,3.08,2.353,7.505,5.234,9.283
						c1.324,0.816,2.582,0.943,3.959,0.396c1.547-0.611,2.084-1.823,2.262-2.731c0.299-1.522-0.198-3.214-1.236-4.209
						c-4.226-4.053-7.29-9.501-8.134-12.788c-2.782-10.839,2.942-21.533,9.871-27.357c0.179-0.159,0.376-0.296,0.585-0.407
						c0.304-0.162,0.628-0.268,0.957-0.317c0.407-0.063,0.827-0.043,1.239,0.07c0.524,0.142,1.016,0.427,1.409,0.85
						c0.001,0.001,0.001,0.001,0.002,0.002l0,0c0.023,0.025,0.046,0.051,0.068,0.076l0,0c0.001,0.001,0.001,0.002,0.002,0.002
						c0.012,0.015,0.024,0.029,0.037,0.044c0.793,0.95,0.898,2.247,0.369,3.285c-1.401,3.016-1.539,5.959-0.408,8.752
						c1.601,3.952,5.423,6.892,8.502,8.051c10.615,3.996,17.724,11.111,20.015,20.035c3.666,14.289-4.976,28.898-19.264,32.566
						C787.137,269.128,784.906,269.4,782.712,269.4z M761.968,243.623c0.068,1.396,0.28,2.794,0.637,4.181
						c2.845,11.083,14.178,17.787,25.262,14.942c11.085-2.845,17.788-14.178,14.943-25.262c-2.294-8.938-10.14-13.587-16.316-15.912
						c-3.988-1.502-9.511-5.393-11.949-11.414c-0.342-0.845-0.61-1.702-0.805-2.568c-2.165,4.122-3.197,8.98-1.953,13.826
						c0.527,2.06,2.886,6.507,6.474,9.948c2.53,2.426,3.67,6.141,2.972,9.695c-0.649,3.311-2.815,5.919-5.942,7.156
						c-3.151,1.246-6.373,0.944-9.316-0.87C764.438,246.398,763.095,245.102,761.968,243.623z"/>
				</g>
				<g>
					<path fill="#FFCC39" d="M759.791,307.176c-5.933,0-11.108-4.018-12.585-9.771l-27.181-105.901
						c-0.863-3.364-0.364-6.862,1.403-9.851s4.594-5.11,7.957-5.974l67.802-17.402c1.062-0.272,2.151-0.41,3.239-0.41
						c5.934,0,11.109,4.018,12.586,9.771l27.18,105.901c0.863,3.363,0.365,6.861-1.402,9.85c-1.768,2.989-4.594,5.111-7.957,5.975
						l-67.803,17.402C761.969,307.038,760.879,307.176,759.791,307.176z M800.427,163.867c-0.585,0-1.173,0.075-1.747,0.223
						l-67.802,17.402c-1.812,0.465-3.333,1.606-4.285,3.216s-1.22,3.493-0.755,5.304l27.181,105.901
						c0.795,3.099,3.58,5.263,6.772,5.263c0.585,0,1.173-0.075,1.747-0.223l67.803-17.402c1.812-0.465,3.333-1.606,4.284-3.216
						c0.952-1.609,1.22-3.493,0.755-5.304L807.2,169.13C806.405,166.031,803.62,163.867,800.427,163.867z"/>
				</g>
			</g>
			<g>
				<g>
					<path fill="#FFCC39" d="M970.093,375.367c-0.279,0-0.559-0.039-0.832-0.117c-0.764-0.221-1.409-0.736-1.794-1.433
						l-11.168-20.225c-0.801-1.45-0.274-3.275,1.176-4.076l79.671-43.994c0.633-0.35,1.371-0.46,2.077-0.308l17.228,3.682
						c0.85,0.182,1.579,0.723,1.999,1.483s0.49,1.666,0.191,2.482l-6.061,16.542c-0.249,0.679-0.734,1.244-1.367,1.594
						l-79.67,43.995C971.095,375.241,970.596,375.367,970.093,375.367z M963.001,353.318l8.268,14.973l76.062-42.003l4.487-12.246
						l-12.754-2.726L963.001,353.318z"/>
				</g>
				<g>
					<path fill="#FFCC39" d="M964.512,365.256c-1.058,0-2.082-0.56-2.629-1.551c-0.801-1.45-0.274-3.275,1.176-4.076l91.314-50.425
						c1.451-0.803,3.275-0.274,4.076,1.176s0.274,3.275-1.176,4.076l-91.314,50.425
						C965.499,365.135,965.002,365.256,964.512,365.256z"/>
				</g>
				<g>
					<path fill="#FFCC39" d="M966.658,392.801c-0.151,0-0.304-0.012-0.456-0.035c-0.919-0.141-1.721-0.7-2.17-1.515l-24.318-44.037
						c-0.45-0.814-0.496-1.79-0.126-2.644c0.369-0.854,1.114-1.486,2.016-1.715l11.461-2.901c1.324-0.338,2.703,0.265,3.362,1.458
						l21.417,38.785c0.659,1.193,0.431,2.682-0.557,3.622l-8.56,8.153C968.165,392.508,967.423,392.801,966.658,392.801z
						 M946.846,347.718l20.559,37.229l4.068-3.875l-19.18-34.732L946.846,347.718z"/>
				</g>
				<g>
					<path fill="#FFCC39" d="M927.333,397L927.333,397c-5.179,0-9.948-2.813-12.448-7.342c-3.787-6.858-1.289-15.52,5.569-19.306
						c3.368-1.862,7.462-2.254,11.092-1.118l18.204-10.052c1.453-0.801,3.276-0.274,4.076,1.176l6.598,11.948
						c0.801,1.45,0.274,3.275-1.176,4.076l-18.202,10.052c-0.986,3.747-3.425,6.899-6.855,8.793
						C932.091,396.388,929.719,397,927.333,397z M927.292,374.586c-1.369,0-2.73,0.352-3.938,1.019
						c-3.962,2.188-5.405,7.191-3.218,11.153c1.445,2.616,4.202,4.242,7.195,4.242c0.001,0,0.001,0,0.001,0
						c1.375,0,2.743-0.354,3.957-1.024c2.239-1.236,3.747-3.407,4.137-5.956c0.141-0.921,0.701-1.723,1.516-2.173l16.779-9.266
						l-3.697-6.696l-16.78,9.266c-0.815,0.45-1.792,0.497-2.646,0.125C929.545,374.817,928.433,374.586,927.292,374.586z"/>
				</g>
				<g>
					<circle fill="#FFCC39" cx="927.611" cy="382.63" r="4"/>
				</g>
			</g>
			<g>
				<g>
					<path fill="#FFCC39" d="M1102.272,109.479c-1.85,0-3.646-0.388-5.342-1.153l-65.704-29.658
						c-3.165-1.429-5.584-4.005-6.812-7.253s-1.117-6.779,0.312-9.944l29.657-65.703c2.099-4.649,6.752-7.654,11.854-7.654
						c1.85,0,3.647,0.389,5.344,1.154l65.702,29.657c6.533,2.949,9.449,10.664,6.501,17.197l-29.658,65.703
						C1112.028,106.474,1107.375,109.479,1102.272,109.479z M1066.238-5.888c-2.749,0-5.255,1.618-6.386,4.123l-29.657,65.703
						c-0.77,1.704-0.829,3.605-0.168,5.354s1.964,3.136,3.668,3.905l65.703,29.658c0.914,0.413,1.882,0.622,2.874,0.622
						c2.748,0,5.255-1.618,6.386-4.123l29.658-65.703c1.588-3.518,0.018-7.672-3.501-9.26l-65.702-29.657
						C1068.198-5.678,1067.231-5.888,1066.238-5.888z"/>
				</g>
				<g>
					<path fill="#FFCC39" d="M1106.685,45.037l-0.039-0.018l1.154-10.049l-0.042-0.019c1.747-5.005-0.586-10.603-5.51-12.825
						c-1.625-0.734-3.34-1.012-5.002-0.891l-19.429-8.77c-1.163-0.525-2.584-0.22-3.319,0.824c-0.989,1.404-0.425,3.277,1.059,3.946
						l15.252,6.885c-0.705,0.681-1.323,1.468-1.823,2.358l-4.624-2.087c-0.875-0.395-1.886-0.347-2.719,0.128l-9.023,5.142
						l-0.169-0.077c-4.194-1.893-9.284-0.381-11.444,3.682c-2.367,4.452-0.456,9.903,4.066,11.944l34.563,15.602
						c5.156,2.327,11.392-0.824,12.17-6.982C1112.274,50.119,1110.092,46.575,1106.685,45.037z M1073.01,39.314
						c-0.909,2.013-3.278,2.909-5.291,2s-2.909-3.278-2-5.292c0.909-2.013,3.278-2.909,5.292-2
						C1073.024,34.931,1073.919,37.3,1073.01,39.314z M1084.326,44.422c-0.909,2.014-3.278,2.909-5.292,2s-2.909-3.278-2-5.292
						c0.909-2.013,3.278-2.909,5.292-2C1084.34,40.039,1085.235,42.409,1084.326,44.422z M1095.643,49.53
						c-0.909,2.013-3.278,2.909-5.292,2s-2.909-3.278-2-5.291c0.909-2.014,3.278-2.909,5.292-2
						C1095.656,45.148,1096.552,47.517,1095.643,49.53z M1106.959,54.638c-0.909,2.013-3.278,2.909-5.292,2
						c-2.013-0.909-2.909-3.278-2-5.292c0.909-2.013,3.278-2.909,5.292-2C1106.972,50.256,1107.868,52.625,1106.959,54.638z"/>
				</g>
				<g>
					<path fill="#FFCC39" d="M1048.546,68.411c-0.345,0-0.693-0.071-1.027-0.223c-1.259-0.567-1.818-2.049-1.25-3.307l4.492-9.951
						c0.568-1.26,2.05-1.818,3.307-1.25c1.259,0.567,1.818,2.049,1.25,3.307l-4.492,9.951
						C1050.408,67.863,1049.498,68.411,1048.546,68.411z"/>
				</g>
				<g>
					<path fill="#FFCC39" d="M1061.731,68.373c-0.345,0-0.693-0.071-1.027-0.223l-2.278-1.028c-1.259-0.567-1.818-2.048-1.25-3.307
						c0.567-1.259,2.047-1.821,3.307-1.25l2.278,1.028c1.259,0.567,1.818,2.048,1.25,3.307
						C1063.594,67.825,1062.684,68.373,1061.731,68.373z"/>
				</g>
				<g>
					<path fill="#FFCC39" d="M1088.623,80.513c-0.344,0-0.693-0.071-1.027-0.223l-2.278-1.029c-1.258-0.568-1.817-2.05-1.249-3.308
						c0.568-1.257,2.048-1.819,3.308-1.249l2.278,1.029c1.258,0.568,1.817,2.05,1.249,3.308
						C1090.485,79.965,1089.576,80.513,1088.623,80.513z"/>
				</g>
				<g>
					<path fill="#FFCC39" d="M1095.039,89.397c-0.345,0-0.693-0.071-1.027-0.223c-1.259-0.567-1.818-2.049-1.25-3.307l4.492-9.951
						c0.568-1.26,2.051-1.82,3.307-1.25c1.259,0.567,1.818,2.049,1.25,3.307l-4.492,9.951
						C1096.901,88.85,1095.991,89.397,1095.039,89.397z"/>
				</g>
				<g>
					<path fill="#FFCC39" d="M1075.946,79.682c-0.345,0-0.693-0.071-1.027-0.223l-7.484-3.378c-1.039-0.469-1.628-1.58-1.435-2.703
						s1.123-1.973,2.258-2.066c3.487-0.289,7.304-1.393,7.853-2.27c0.068-0.197,0.253-0.706-0.455-1.217
						c-0.628-0.455-1.531-0.547-1.97-0.203c-1.085,0.856-2.657,0.666-3.511-0.417c-0.854-1.084-0.668-2.656,0.417-3.511
						c2.22-1.75,5.509-1.719,7.993,0.079c2.323,1.68,3.168,4.37,2.204,7.022c-0.321,0.885-1.32,2.546-4.401,3.841l0.588,0.266
						c1.259,0.567,1.818,2.048,1.25,3.307C1077.809,79.134,1076.898,79.682,1075.946,79.682z"/>
				</g>
			</g>
			<g>
				<path fill="#FFCC39" d="M967.898,120.612c-1.183,0-2.304-0.704-2.778-1.866l-4.369-10.696c-0.548-1.342-0.059-2.883,1.162-3.663
					l7.629-4.873l-3.424-8.379c-0.627-1.534,0.108-3.285,1.643-3.912c1.531-0.626,3.285,0.109,3.912,1.643l4.37,10.695
					c0.548,1.342,0.059,2.883-1.162,3.663l-7.629,4.873l3.423,8.38c0.626,1.534-0.109,3.285-1.643,3.912
					C968.66,120.54,968.276,120.612,967.898,120.612z"/>
			</g>
			<g>
				<path fill="#FFCC39" d="M1294.282,278.517c-7.489,0-13.583-6.094-13.583-13.583c0-7.49,6.094-13.584,13.583-13.584
					s13.583,6.094,13.583,13.584C1307.865,272.423,1301.771,278.517,1294.282,278.517z M1294.282,257.35
					c-4.182,0-7.583,3.402-7.583,7.584s3.401,7.583,7.583,7.583s7.583-3.401,7.583-7.583S1298.464,257.35,1294.282,257.35z"/>
			</g>
			<g>
				<path fill="#FFCC39" d="M1212.487,43.13c-0.606,0-1.209-0.184-1.723-0.544c-0.878-0.615-1.36-1.652-1.266-2.72l2.002-22.667
					c0.094-1.068,0.751-2.004,1.723-2.456c0.971-0.451,2.109-0.353,2.988,0.264l18.629,13.067c0.878,0.615,1.36,1.652,1.266,2.72
					c-0.094,1.068-0.751,2.004-1.723,2.456l-20.631,9.6C1213.35,43.037,1212.918,43.13,1212.487,43.13z M1217.021,22.903
					l-1.088,12.314l11.209-5.216L1217.021,22.903z"/>
			</g>
			<g>
				<path fill="#FFCC39" d="M888.444,142.315c-0.787,0-1.555-0.311-2.126-0.883l-16.059-16.122c-0.756-0.76-1.05-1.864-0.771-2.899
					c0.279-1.034,1.09-1.842,2.126-2.117l21.991-5.847c1.035-0.274,2.14,0.023,2.896,0.782c0.757,0.76,1.051,1.864,0.771,2.899
					l-5.933,21.969c-0.279,1.034-1.09,1.842-2.126,2.117C888.96,142.282,888.701,142.315,888.444,142.315z M878.178,124.758
					l8.725,8.759l3.224-11.936L878.178,124.758z"/>
			</g>
			<g>
				<path fill="#FFCC39" d="M1266.875,376.311c-1.015,0-2.005-0.515-2.569-1.446c-0.858-1.417-0.404-3.262,1.013-4.12l7.743-4.688
					l-3.221-8.46c-0.516-1.354,0.011-2.884,1.25-3.634l9.884-5.983c1.415-0.858,3.262-0.404,4.12,1.013s0.404,3.262-1.013,4.12
					l-7.743,4.688l3.221,8.46c0.516,1.354-0.011,2.883-1.25,3.634l-9.884,5.984C1267.94,376.171,1267.404,376.311,1266.875,376.311z
					"/>
			</g>
			<g>
				<path fill="#FFCC39" d="M940.682,42.38c-7.489,0-13.583-6.094-13.583-13.583s6.094-13.583,13.583-13.583
					c7.49,0,13.584,6.094,13.584,13.583S948.172,42.38,940.682,42.38z M940.682,21.214c-4.182,0-7.583,3.401-7.583,7.583
					s3.401,7.583,7.583,7.583s7.584-3.401,7.584-7.583S944.863,21.214,940.682,21.214z"/>
			</g>
			<g>
				<path fill="#FFCC39" d="M1280.388,84.791c-0.278,0-0.561-0.039-0.841-0.121c-1.591-0.464-2.504-2.13-2.04-3.72l2.535-8.69
					l-8.094-4.054c-1.296-0.649-1.942-2.132-1.536-3.522l3.236-11.092c0.464-1.591,2.129-2.507,3.72-2.04
					c1.591,0.464,2.504,2.13,2.04,3.72l-2.535,8.69l8.094,4.054c1.296,0.649,1.942,2.132,1.536,3.522l-3.236,11.092
					C1282.885,83.94,1281.688,84.791,1280.388,84.791z"/>
			</g>
			<g>
				<path fill="#FFCC39" d="M816.908,377.272c-0.204,0-0.409-0.021-0.613-0.063l-22.275-4.651c-1.049-0.219-1.901-0.981-2.236-1.999
					c-0.335-1.019-0.102-2.138,0.613-2.937l15.165-16.965c0.715-0.799,1.801-1.157,2.85-0.938c1.049,0.219,1.901,0.981,2.236,1.999
					l7.005,21.296c0.177,0.383,0.275,0.809,0.275,1.258c0,1.656-1.343,3-2.999,3C816.922,377.272,816.915,377.272,816.908,377.272z
					 M800.332,367.746l12.103,2.527l-3.863-11.744L800.332,367.746z"/>
			</g>
		</g>
	</g>
	<g>
		<g>
			<g>
				<g>
					<path fill="#FFCC39" d="M282.769,659.696c-9.337,0-17.304-6.366-19.375-15.483c-2.429-10.691,4.293-21.366,14.985-23.796
						c1.454-0.33,2.94-0.497,4.42-0.497c9.337,0,17.304,6.366,19.375,15.482c2.429,10.692-4.294,21.367-14.986,23.797
						C285.735,659.529,284.248,659.696,282.769,659.696z M282.799,625.92c-1.033,0-2.073,0.117-3.091,0.349
						c-7.466,1.696-12.16,9.15-10.464,16.615c1.446,6.366,7.008,10.812,13.524,10.812c1.033,0,2.073-0.117,3.091-0.349
						c7.465-1.696,12.16-9.15,10.464-16.616C294.877,630.366,289.315,625.92,282.799,625.92z"/>
				</g>
				<g>
					<g>
						<path fill="#FFCC39" d="M274.305,714.801c-0.736,0-1.474-0.27-2.053-0.813c-1.208-1.134-1.268-3.032-0.133-4.24
							c13.442-14.314,7.894-40.055,7.836-40.312c-0.36-1.617,0.658-3.221,2.275-3.581c1.613-0.367,3.22,0.656,3.581,2.274
							c0.065,0.295,1.606,7.325,1.288,16.404c-0.43,12.251-4.098,22.391-10.606,29.322
							C275.902,714.483,275.104,714.801,274.305,714.801z"/>
					</g>
					<g>
						<g>
							<path fill="#FFCC39" d="M321.533,704.073c-0.361,0-0.728-0.065-1.084-0.204c-21.234-8.238-27.886-36.033-28.159-37.213
								c-0.374-1.614,0.632-3.226,2.247-3.599c1.618-0.373,3.225,0.632,3.599,2.244c0.063,0.271,6.235,25.894,24.484,32.974
								c1.545,0.6,2.311,2.337,1.712,3.882C323.869,703.346,322.734,704.073,321.533,704.073z"/>
						</g>
					</g>
				</g>
				<g>
					<path fill="#FFCC39" d="M275.688,670.219c-1.37,0-2.606-0.944-2.922-2.337c-0.367-1.615,0.645-3.223,2.261-3.59l25.331-5.754
						c1.613-0.369,3.223,0.646,3.59,2.262c0.367,1.615-0.645,3.223-2.261,3.59l-25.331,5.754
						C276.132,670.194,275.909,670.219,275.688,670.219z"/>
				</g>
				<g>
					<path fill="#FFCC39" d="M269.51,732.142c-1.37,0-2.606-0.944-2.922-2.336l-3.511-15.454c-0.176-0.776-0.037-1.591,0.387-2.264
						s1.098-1.15,1.874-1.327l63.834-14.501c1.614-0.368,3.223,0.646,3.59,2.261l3.511,15.454c0.176,0.776,0.037,1.591-0.387,2.264
						s-1.098,1.15-1.874,1.327l-63.834,14.501C269.954,732.117,269.73,732.142,269.51,732.142z M269.592,715.947l2.182,9.604
						l57.983-13.172l-2.182-9.604L269.592,715.947z"/>
				</g>
			</g>
			<g>
				<g>
					<path fill="#FFCC39" d="M580.86,642.259c-0.938,0-1.831-0.44-2.401-1.202l-26.726-35.71c-0.643-0.858-0.778-1.994-0.356-2.979
						l17.562-40.999c0.422-0.984,1.338-1.67,2.402-1.797l44.288-5.291c1.066-0.133,2.115,0.323,2.757,1.181l26.726,35.71
						c0.643,0.858,0.778,1.994,0.356,2.979l-17.562,40.999c-0.422,0.984-1.338,1.67-2.402,1.797l-44.288,5.291
						C581.097,642.252,580.979,642.259,580.86,642.259z M557.574,603.138l24.65,32.937l40.849-4.88l16.198-37.814l-24.65-32.937
						l-40.849,4.88L557.574,603.138z"/>
				</g>
				<g>
					<path fill="#FFCC39" d="M598.423,601.259c-0.938,0-1.831-0.44-2.401-1.202l-26.726-35.709
						c-0.993-1.327-0.723-3.207,0.604-4.199c1.326-0.994,3.206-0.723,4.199,0.604l25.688,34.322l42.568-5.084
						c1.634-0.19,3.139,0.978,3.334,2.623c0.197,1.645-0.978,3.138-2.623,3.334l-44.288,5.29
						C598.659,601.252,598.541,601.259,598.423,601.259z"/>
				</g>
				<g>
					<path fill="#FFCC39" d="M580.859,642.26c-0.395,0-0.795-0.078-1.181-0.243c-1.522-0.652-2.229-2.416-1.576-3.939l17.562-41
						c0.652-1.523,2.415-2.229,3.939-1.576c1.522,0.652,2.229,2.416,1.576,3.939l-17.562,41
						C583.131,641.578,582.023,642.26,580.859,642.26z"/>
				</g>
				<g>
					<circle fill="#FFCC39" cx="610.475" cy="570.123" r="3.92"/>
				</g>
				<g>
					<g>
						<circle fill="#FFCC39" cx="619.763" cy="582.087" r="3.92"/>
					</g>
					<g>
						<circle fill="#FFCC39" cx="595.407" cy="571.653" r="3.92"/>
					</g>
				</g>
				<g>
					<circle fill="#FFCC39" cx="604.327" cy="584.475" r="3.92"/>
				</g>
				<g>
					<circle fill="#FFCC39" cx="574.435" cy="590.246" r="3.92"/>
				</g>
				<g>
					<circle fill="#FFCC39" cx="577.897" cy="613.486" r="3.92"/>
				</g>
				<g>
					<circle fill="#FFCC39" cx="612.953" cy="617.9" r="3.92"/>
				</g>
			</g>
			<g>
				<g>
					<path fill="#FFCC39" d="M409.79,673.558c-0.872,0-1.711-0.38-2.287-1.058l-28.874-33.996c-0.694-0.817-0.899-1.942-0.539-2.951
						l15.004-42.003c0.361-1.01,1.232-1.75,2.287-1.942l43.878-8.008c1.057-0.192,2.132,0.192,2.825,1.009l28.874,33.996
						c0.694,0.817,0.899,1.942,0.539,2.951l-15.005,42.004c-0.36,1.01-1.232,1.75-2.287,1.942l-43.877,8.007
						C410.149,673.542,409.969,673.558,409.79,673.558z M384.324,635.939l26.632,31.356l40.47-7.386l13.839-38.741l-26.631-31.355
						l-40.47,7.386L384.324,635.939z"/>
				</g>
				<g>
					<path fill="#FFCC39" d="M415.838,656.625c-0.339,0-0.68-0.058-1.009-0.175c-1.009-0.36-1.75-1.232-1.942-2.286l-8.069-44.217
						c-0.192-1.055,0.192-2.132,1.009-2.825c0.816-0.694,1.941-0.899,2.951-0.539l42.328,15.12c1.009,0.36,1.75,1.232,1.942,2.286
						c0.192,1.055-0.192,2.132-1.01,2.825l-34.258,29.097C417.23,656.379,416.54,656.625,415.838,656.625z M411.654,613.981
						l6.204,33.993l26.337-22.369L411.654,613.981z"/>
				</g>
				<g>
					<path fill="#FFCC39" d="M453.921,664.844c-0.211,0-0.423-0.022-0.633-0.067l-38.082-8.219
						c-0.256-0.056-0.503-0.144-0.735-0.263l-34.67-17.77c-0.855-0.438-1.448-1.26-1.596-2.208c-0.147-0.949,0.168-1.912,0.849-2.59
						l26.601-26.447c0.116-0.114,0.24-0.22,0.373-0.314l32.029-22.857c0.8-0.569,1.827-0.713,2.752-0.383s1.629,1.093,1.886,2.04
						l10.298,37.978c0.043,0.157,0.073,0.317,0.089,0.479l3.789,36.969c0.046,0.21,0.07,0.429,0.07,0.652c0,1.657-1.343,3-3,3
						C453.936,664.844,453.928,664.844,453.921,664.844z M416.857,650.775l33.659,7.265l-3.378-32.963l-9.106-33.58l-28.32,20.211
						l-23.498,23.362L416.857,650.775z"/>
				</g>
				<g>
					<path fill="#FFCC39" d="M450.094,627.529c-1.384,0-2.628-0.964-2.931-2.372c-0.347-1.62,0.685-3.215,2.305-3.562l18.576-3.981
						c1.622-0.344,3.216,0.685,3.562,2.305s-0.685,3.215-2.305,3.562l-18.576,3.981
						C450.514,627.507,450.303,627.529,450.094,627.529z"/>
				</g>
				<g>
					<path fill="#FFCC39" d="M407.771,612.408c-0.881,0-1.754-0.387-2.347-1.129l-11.849-14.85
						c-1.034-1.295-0.821-3.183,0.474-4.216c1.295-1.035,3.183-0.82,4.216,0.474l11.849,14.85c1.034,1.295,0.821,3.183-0.474,4.216
						C409.088,612.194,408.427,612.408,407.771,612.408z"/>
				</g>
				<g>
					<path fill="#FFCC39" d="M409.79,673.559c-0.335,0-0.676-0.057-1.009-0.176c-1.56-0.558-2.373-2.274-1.816-3.834l6.049-16.933
						c0.557-1.562,2.274-2.375,3.834-1.816c1.56,0.558,2.373,2.274,1.816,3.834l-6.049,16.933
						C412.177,672.794,411.022,673.559,409.79,673.559z"/>
				</g>
			</g>
			<g>
				<g>
					<path fill="#FFCC39" d="M153.869,510.621c-0.001,0-0.001,0-0.003,0c-14.162,0-23.754-4.354-26.316-11.943
						c-2.236-6.624,1.219-14.498,9.727-22.171c7.862-7.091,19.301-13.395,32.208-17.752c10.862-3.666,21.663-5.604,31.234-5.604
						c14.162,0,23.754,4.354,26.316,11.943c2.236,6.624-1.219,14.498-9.727,22.171c-7.862,7.091-19.301,13.395-32.208,17.752
						C174.238,508.683,163.438,510.621,153.869,510.621z M200.718,459.15c-8.927,0-19.064,1.829-29.315,5.29
						c-12.148,4.101-22.84,9.968-30.108,16.521c-6.525,5.885-9.463,11.643-8.061,15.797c1.662,4.923,9.375,7.862,20.632,7.862
						c0,0,0.002,0,0.002,0c8.925,0,19.061-1.829,29.312-5.29c12.148-4.101,22.84-9.968,30.108-16.521
						c6.525-5.885,9.463-11.643,8.061-15.797C219.687,462.09,211.975,459.15,200.718,459.15z"/>
				</g>
				<g>
					<path fill="#FFCC39" d="M154.778,500.996C154.778,500.996,154.778,500.996,154.778,500.996
						c-10.475,0-13.865-3.531-14.865-6.493c-1.037-3.071-0.387-8.115,8.599-14.704c6.05-4.438,14.602-8.643,24.078-11.841
						c9.9-3.342,19.566-5.183,27.216-5.183c10.474,0,13.864,3.531,14.864,6.493c1.037,3.071,0.387,8.115-8.599,14.705
						c-6.05,4.437-14.601,8.642-24.078,11.841C172.093,499.156,162.428,500.996,154.778,500.996z M199.806,469.176
						c-6.871,0-16.044,1.767-25.169,4.847c-8.871,2.994-16.805,6.879-22.34,10.938c-5.791,4.246-6.52,6.9-6.319,7.496
						c0.188,0.555,2.206,2.14,8.8,2.14c6.871,0,16.044-1.767,25.168-4.846c20.66-6.975,29.453-16.083,28.659-18.435
						C208.418,470.761,206.399,469.176,199.806,469.176z"/>
				</g>
				<g>
					<path fill="#FFCC39" d="M159.319,525.988c-13.761,0-23.94-4.116-26.571-11.912l-5.199-15.398
						c-0.53-1.57,0.313-3.272,1.883-3.803c1.568-0.529,3.272,0.313,3.802,1.883l5.199,15.399c1.402,4.154,7.229,6.953,15.985,7.68
						c9.755,0.811,21.814-1.005,33.962-5.105c12.148-4.101,22.84-9.969,30.108-16.522c6.525-5.884,9.463-11.642,8.061-15.795
						l-5.198-15.401c-0.53-1.569,0.313-3.271,1.883-3.802c1.57-0.528,3.272,0.313,3.802,1.884l5.198,15.4
						c2.236,6.623-1.218,14.496-9.727,22.17c-7.862,7.09-19.3,13.395-32.207,17.752
						C179.169,524.173,168.455,525.988,159.319,525.988z"/>
				</g>
			</g>
			<g>
				<g>
					<g>
						<path fill="#FFCC39" d="M542.279,788.223L542.279,788.223c-0.898,0-1.776-0.178-2.608-0.526l-21.797-9.136
							c-3.434-1.439-5.057-5.403-3.617-8.836l1.977-4.714c-4.824-8.317-5.503-18.415-1.766-27.331
							c4.807-11.468,15.947-18.878,28.381-18.878c4.085,0,8.082,0.807,11.878,2.398c15.644,6.557,23.036,24.616,16.48,40.259
							c-3.737,8.916-11.412,15.513-20.725,17.906l-1.976,4.714C547.453,786.596,545.008,788.223,542.279,788.223z M542.849,724.802
							c-10.01,0-18.978,5.965-22.848,15.197c-3.176,7.578-2.389,16.22,2.106,23.113c0.544,0.833,0.639,1.881,0.254,2.799
							l-2.571,6.134c-0.16,0.381,0.021,0.822,0.403,0.982l21.796,9.136c0.314,0.129,0.779,0.084,0.984-0.402l2.57-6.134
							c0.384-0.917,1.198-1.585,2.173-1.781c8.067-1.63,14.78-7.127,17.957-14.706c5.276-12.591-0.674-27.129-13.266-32.406
							C549.35,725.452,546.134,724.802,542.849,724.802z"/>
					</g>
					<g>
						<g>
							<path fill="#FFCC39" d="M529.931,782.863c-0.322,0-0.649-0.062-0.965-0.195c-1.273-0.533-1.874-1.999-1.34-3.271l3.045-7.266
								c0.534-1.274,1.998-1.877,3.271-1.34c1.273,0.533,1.874,1.999,1.34,3.271l-3.045,7.266
								C531.836,782.286,530.908,782.863,529.931,782.863z"/>
						</g>
						<g>
							<path fill="#FFCC39" d="M522.752,779.854c-0.322,0-0.649-0.062-0.965-0.195c-1.273-0.533-1.874-1.999-1.34-3.271l3.045-7.266
								c0.533-1.274,1.998-1.876,3.271-1.34c1.273,0.533,1.874,1.999,1.34,3.271l-3.045,7.266
								C524.657,779.277,523.729,779.854,522.752,779.854z"/>
						</g>
						<g>
							<path fill="#FFCC39" d="M537.11,785.872c-0.322,0-0.649-0.062-0.965-0.195c-1.273-0.533-1.874-1.999-1.34-3.271l3.045-7.266
								c0.533-1.274,1.998-1.877,3.271-1.34c1.273,0.533,1.874,1.999,1.34,3.271l-3.045,7.266
								C539.016,785.295,538.088,785.872,537.11,785.872z"/>
						</g>
					</g>
					<g>
						<g>
							<circle fill="#FFCC39" cx="530.182" cy="748.435" r="7.784"/>
						</g>
						<g>
							<circle fill="#FFCC39" cx="552.519" cy="757.797" r="7.784"/>
						</g>
					</g>
					<g>
						<path fill="#FFCC39" d="M539.635,766.674c-0.631,1.506-2.184,0.975-4.047,0.195c-1.863-0.781-3.331-1.516-2.699-3.022
							c0.631-1.506,3.591-4.332,5.454-3.551C540.205,761.076,540.266,765.168,539.635,766.674z"/>
					</g>
				</g>
				<g>
					<path fill="#FFCC39" d="M552.894,829.113c-1.728,0-3.416-0.341-5.02-1.013l-64.559-27.058
						c-3.203-1.342-5.691-3.851-7.007-7.064s-1.301-6.747,0.042-9.949l42.261-100.836c2.031-4.847,6.738-7.979,11.993-7.979
						c1.728,0,3.417,0.341,5.021,1.014l64.56,27.058c6.611,2.771,9.735,10.403,6.965,17.014l-42.261,100.836
						C562.857,825.982,558.149,829.113,552.894,829.113z M530.604,681.215c-2.83,0-5.366,1.688-6.46,4.297l-42.261,100.836
						c-0.723,1.725-0.73,3.628-0.022,5.357c0.709,1.73,2.049,3.082,3.772,3.805l64.559,27.058c0.866,0.362,1.774,0.546,2.701,0.546
						c2.831,0,5.367-1.687,6.462-4.297l42.261-100.835c1.491-3.561-0.19-7.67-3.75-9.162l-64.56-27.058
						C532.44,681.399,531.531,681.215,530.604,681.215z"/>
				</g>
			</g>
			<g>
				<g>
					<path fill="#FFCC39" d="M155.234,704.289c-11.922,0-22.821-8.039-25.918-20.106c-1.49-5.806-1.021-11.776,1.355-17.266
						c0.545-1.26,1.875-1.983,3.231-1.77c1.355,0.219,2.389,1.33,2.51,2.697c0.273,3.079,2.352,7.503,5.233,9.281
						c1.323,0.816,2.582,0.944,3.959,0.397c1.547-0.611,2.084-1.822,2.262-2.73c0.299-1.523-0.198-3.215-1.236-4.211
						c-4.226-4.051-7.291-9.499-8.134-12.786c-2.783-10.845,2.947-21.543,9.879-27.366c0.152-0.134,0.317-0.251,0.491-0.352
						c0.339-0.195,0.706-0.318,1.08-0.371c0.412-0.058,0.84-0.031,1.256,0.091c0.411,0.119,0.798,0.326,1.133,0.619
						c0.178,0.155,0.335,0.329,0.469,0.518c0.354,0.493,0.537,1.063,0.557,1.636c0.01,0.259-0.014,0.521-0.074,0.78
						c-0.053,0.234-0.135,0.462-0.245,0.68c-1.407,3.019-1.546,5.968-0.415,8.764c1.601,3.952,5.423,6.892,8.501,8.051
						c10.616,3.996,17.724,11.112,20.015,20.035c3.667,14.289-4.974,28.898-19.264,32.566
						C159.659,704.016,157.428,704.288,155.234,704.289z M134.49,678.511c0.069,1.396,0.281,2.794,0.637,4.18
						c2.845,11.084,14.177,17.787,25.262,14.943c11.084-2.845,17.788-14.178,14.943-25.262c-2.294-8.938-10.14-13.587-16.317-15.912
						c-3.988-1.502-9.51-5.393-11.949-11.415c-0.342-0.844-0.61-1.701-0.805-2.567c-2.165,4.122-3.198,8.98-1.954,13.826
						c0.529,2.06,2.887,6.508,6.475,9.948c2.531,2.426,3.669,6.142,2.972,9.696c-0.65,3.31-2.816,5.918-5.943,7.155
						c-3.153,1.245-6.375,0.945-9.317-0.871C136.959,681.285,135.617,679.989,134.49,678.511z"/>
				</g>
				<g>
					<path fill="#FFCC39" d="M132.313,742.063c-5.933,0-11.108-4.018-12.584-9.771L92.548,626.392
						c-0.863-3.364-0.365-6.862,1.403-9.851s4.594-5.11,7.958-5.974l67.802-17.402c1.061-0.272,2.151-0.41,3.239-0.41
						c5.934,0,11.108,4.018,12.584,9.771l27.181,105.9c0.863,3.363,0.365,6.861-1.403,9.851c-1.768,2.988-4.594,5.11-7.957,5.974
						l-67.803,17.402C134.491,741.926,133.401,742.063,132.313,742.063z M172.95,598.755c-0.585,0-1.173,0.075-1.748,0.223
						L103.4,616.38c-1.811,0.465-3.333,1.606-4.285,3.216c-0.952,1.609-1.22,3.493-0.755,5.304l27.181,105.901
						c0.795,3.099,3.581,5.263,6.773,5.263c0.585,0,1.173-0.075,1.747-0.223l67.803-17.402c1.811-0.465,3.332-1.606,4.284-3.216
						s1.22-3.493,0.755-5.304l-27.181-105.901C178.928,600.919,176.143,598.755,172.95,598.755z"/>
				</g>
			</g>
			<g>
				<g>
					<path fill="#FFCC39" d="M342.616,810.255c-0.279,0-0.559-0.039-0.832-0.117c-0.765-0.221-1.41-0.736-1.794-1.433
						l-11.168-20.225c-0.801-1.45-0.274-3.275,1.176-4.076l79.67-43.994c0.633-0.349,1.372-0.46,2.077-0.308l17.228,3.682
						c0.85,0.182,1.579,0.723,1.999,1.483c0.42,0.761,0.49,1.666,0.191,2.482l-6.06,16.542c-0.249,0.679-0.734,1.244-1.367,1.594
						l-79.67,43.995C343.618,810.129,343.119,810.255,342.616,810.255z M335.524,788.206l8.268,14.973l76.063-42.003l4.486-12.246
						l-12.753-2.726L335.524,788.206z"/>
				</g>
				<g>
					<path fill="#FFCC39" d="M337.035,800.144c-1.057,0-2.082-0.561-2.629-1.551c-0.801-1.45-0.274-3.275,1.176-4.076l91.314-50.425
						c1.451-0.802,3.276-0.274,4.076,1.176c0.801,1.45,0.274,3.275-1.176,4.076l-91.314,50.425
						C338.022,800.022,337.525,800.144,337.035,800.144z"/>
				</g>
				<g>
					<path fill="#FFCC39" d="M339.181,827.688c-0.151,0-0.304-0.012-0.456-0.035c-0.919-0.141-1.721-0.7-2.17-1.515l-24.318-44.037
						c-0.45-0.814-0.497-1.79-0.126-2.644s1.115-1.486,2.016-1.715l11.46-2.901c1.322-0.335,2.704,0.264,3.362,1.458l21.417,38.785
						c0.66,1.193,0.431,2.682-0.557,3.622l-8.56,8.153C340.688,827.396,339.945,827.688,339.181,827.688z M319.369,782.605
						l20.559,37.229l4.068-3.875l-19.18-34.732L319.369,782.605z"/>
				</g>
				<g>
					<path fill="#FFCC39" d="M299.856,831.888c0,0,0,0-0.001,0c-5.177,0-9.947-2.813-12.448-7.342
						c-3.787-6.858-1.288-15.52,5.57-19.306c3.369-1.861,7.461-2.254,11.092-1.118l18.204-10.052
						c1.45-0.801,3.276-0.274,4.076,1.176l6.598,11.948c0.385,0.696,0.477,1.518,0.256,2.281c-0.22,0.765-0.736,1.41-1.432,1.795
						l-18.203,10.052c-0.985,3.747-3.425,6.899-6.855,8.793C304.614,831.275,302.242,831.888,299.856,831.888z M299.814,809.474
						c-1.369,0-2.73,0.352-3.937,1.019c-3.962,2.188-5.406,7.191-3.218,11.153c1.444,2.616,4.202,4.242,7.196,4.242h0
						c1.375,0,2.743-0.354,3.957-1.024c2.239-1.236,3.747-3.407,4.136-5.956c0.141-0.92,0.701-1.723,1.516-2.173l16.779-9.266
						l-3.697-6.696l-16.78,9.266c-0.815,0.45-1.793,0.497-2.646,0.125C302.067,809.705,300.955,809.474,299.814,809.474z"/>
				</g>
				<g>
					<circle fill="#FFCC39" cx="300.134" cy="817.518" r="4"/>
				</g>
			</g>
			<g>
				<g>
					<path fill="#FFCC39" d="M474.795,544.366c-1.85,0-3.646-0.388-5.342-1.153l-65.704-29.658
						c-3.165-1.429-5.584-4.005-6.812-7.253c-1.228-3.248-1.117-6.779,0.312-9.944l29.658-65.703
						c2.099-4.649,6.752-7.654,11.854-7.654c1.85,0,3.647,0.389,5.343,1.154l65.704,29.657c3.165,1.429,5.584,4.005,6.812,7.253
						s1.117,6.78-0.312,9.944l-29.658,65.703C484.551,541.361,479.897,544.366,474.795,544.366z M438.761,429
						c-2.749,0-5.255,1.618-6.385,4.123l-29.658,65.703c-0.77,1.704-0.829,3.605-0.168,5.354s1.964,3.136,3.668,3.905l65.703,29.658
						c0.914,0.413,1.882,0.622,2.874,0.622c2.748,0,5.255-1.618,6.386-4.123l29.658-65.703c0.77-1.704,0.829-3.605,0.168-5.354
						s-1.964-3.136-3.668-3.905l-65.704-29.657C440.72,429.21,439.753,429,438.761,429z"/>
				</g>
				<g>
					<path fill="#FFCC39" d="M479.207,479.924l-0.039-0.018l1.154-10.049l-0.042-0.019c1.747-5.005-0.586-10.603-5.51-12.825
						c-1.625-0.734-3.34-1.012-5.002-0.891l-19.429-8.77c-1.163-0.525-2.584-0.22-3.319,0.824c-0.989,1.404-0.425,3.277,1.059,3.946
						l15.252,6.885c-0.705,0.681-1.323,1.468-1.823,2.358l-4.624-2.087c-0.875-0.395-1.886-0.347-2.719,0.128l-9.023,5.142
						l-0.169-0.077c-4.194-1.893-9.284-0.381-11.444,3.682c-2.367,4.452-0.456,9.903,4.066,11.944l34.563,15.602
						c5.156,2.327,11.392-0.824,12.17-6.982C484.796,485.006,482.615,481.462,479.207,479.924z M445.533,474.202
						c-0.909,2.013-3.278,2.909-5.291,2s-2.909-3.278-2-5.292c0.909-2.013,3.278-2.909,5.292-2
						C445.546,469.819,446.442,472.188,445.533,474.202z M456.849,479.31c-0.909,2.014-3.278,2.909-5.292,2s-2.909-3.278-2-5.292
						c0.909-2.013,3.278-2.909,5.292-2C456.862,474.927,457.758,477.296,456.849,479.31z M468.165,484.418
						c-0.909,2.013-3.278,2.909-5.292,2s-2.909-3.278-2-5.291c0.909-2.014,3.278-2.909,5.292-2
						C468.179,480.035,469.074,482.404,468.165,484.418z M479.481,489.526c-0.909,2.013-3.278,2.909-5.292,2
						c-2.013-0.909-2.909-3.278-2-5.292c0.909-2.013,3.278-2.909,5.292-2C479.495,485.143,480.39,487.512,479.481,489.526z"/>
				</g>
				<g>
					<path fill="#FFCC39" d="M421.068,503.299c-0.344,0-0.693-0.071-1.027-0.223c-1.258-0.567-1.818-2.049-1.25-3.307l4.492-9.951
						c0.568-1.259,2.048-1.82,3.308-1.25c1.258,0.567,1.818,2.049,1.25,3.307l-4.492,9.951
						C422.931,502.751,422.021,503.299,421.068,503.299z"/>
				</g>
				<g>
					<path fill="#FFCC39" d="M434.254,503.261c-0.344,0-0.693-0.071-1.027-0.223l-2.278-1.028c-1.259-0.567-1.818-2.048-1.25-3.307
						c0.568-1.259,2.049-1.821,3.307-1.25l2.278,1.028c1.259,0.567,1.818,2.048,1.25,3.307
						C436.117,502.713,435.207,503.261,434.254,503.261z"/>
				</g>
				<g>
					<path fill="#FFCC39" d="M461.145,515.4c-0.344,0-0.693-0.071-1.027-0.223l-2.278-1.029c-1.258-0.568-1.817-2.05-1.249-3.308
						c0.568-1.257,2.048-1.819,3.308-1.249l2.278,1.029c1.258,0.568,1.817,2.05,1.249,3.308
						C463.008,514.853,462.099,515.4,461.145,515.4z"/>
				</g>
				<g>
					<path fill="#FFCC39" d="M467.561,524.285c-0.345,0-0.693-0.071-1.027-0.223c-1.259-0.567-1.818-2.049-1.25-3.307l4.492-9.951
						c0.567-1.26,2.05-1.819,3.307-1.25c1.259,0.567,1.818,2.049,1.25,3.307l-4.492,9.951
						C469.424,523.737,468.514,524.285,467.561,524.285z"/>
				</g>
				<g>
					<path fill="#FFCC39" d="M448.469,514.569c-0.344,0-0.693-0.071-1.027-0.223l-7.485-3.378c-1.039-0.469-1.628-1.58-1.435-2.703
						s1.123-1.973,2.258-2.066c3.487-0.289,7.303-1.393,7.853-2.27c0.067-0.197,0.252-0.706-0.456-1.217
						c-0.629-0.456-1.532-0.548-1.969-0.203c-1.084,0.854-2.655,0.67-3.511-0.417c-0.854-1.084-0.668-2.656,0.417-3.511
						c2.221-1.75,5.509-1.718,7.993,0.078c2.323,1.68,3.168,4.371,2.204,7.023c-0.321,0.885-1.32,2.546-4.401,3.841l0.588,0.266
						c1.258,0.567,1.818,2.048,1.25,3.307C450.332,514.021,449.421,514.569,448.469,514.569z"/>
				</g>
			</g>
			<g>
				<path fill="#FFCC39" d="M340.421,555.5c-1.183,0-2.303-0.704-2.778-1.866l-4.37-10.696c-0.548-1.342-0.059-2.883,1.163-3.663
					l7.628-4.873l-3.424-8.379c-0.626-1.534,0.109-3.285,1.643-3.912c1.534-0.625,3.286,0.109,3.912,1.643l4.37,10.695
					c0.548,1.342,0.059,2.883-1.163,3.663l-7.628,4.873l3.424,8.38c0.626,1.534-0.109,3.285-1.643,3.912
					C341.184,555.428,340.799,555.5,340.421,555.5z"/>
			</g>
			<g>
				<path fill="#FFCC39" d="M666.805,713.404c-7.489,0-13.583-6.094-13.583-13.583c0-7.49,6.094-13.584,13.583-13.584
					s13.583,6.094,13.583,13.584C680.388,707.311,674.294,713.404,666.805,713.404z M666.805,692.237
					c-4.182,0-7.583,3.402-7.583,7.584s3.401,7.583,7.583,7.583s7.583-3.401,7.583-7.583S670.986,692.237,666.805,692.237z"/>
			</g>
			<g>
				<path fill="#FFCC39" d="M585.01,478.018c-0.606,0-1.209-0.184-1.723-0.544c-0.878-0.615-1.36-1.652-1.266-2.72l2.002-22.667
					c0.094-1.068,0.751-2.004,1.723-2.456c0.972-0.451,2.11-0.353,2.988,0.264l18.629,13.067c0.878,0.615,1.36,1.652,1.266,2.72
					c-0.094,1.068-0.751,2.004-1.723,2.456l-20.631,9.6C585.872,477.925,585.44,478.018,585.01,478.018z M589.543,457.791
					l-1.088,12.314l11.209-5.216L589.543,457.791z"/>
			</g>
			<g>
				<path fill="#FFCC39" d="M260.967,577.203c-0.787,0-1.555-0.311-2.125-0.883l-16.06-16.122c-0.756-0.76-1.05-1.864-0.771-2.899
					c0.28-1.034,1.09-1.842,2.125-2.117l21.992-5.847c1.036-0.275,2.14,0.023,2.896,0.782c0.756,0.76,1.05,1.864,0.771,2.899
					l-5.932,21.969c-0.28,1.034-1.09,1.842-2.125,2.117C261.483,577.17,261.224,577.203,260.967,577.203z M250.7,559.646
					l8.726,8.759l3.223-11.936L250.7,559.646z"/>
			</g>
			<g>
				<path fill="#FFCC39" d="M639.397,811.198c-1.015,0-2.005-0.515-2.569-1.446c-0.858-1.417-0.404-3.262,1.013-4.12l7.743-4.688
					l-3.221-8.46c-0.516-1.354,0.011-2.884,1.25-3.634l9.884-5.983c1.416-0.857,3.261-0.405,4.12,1.013
					c0.858,1.417,0.404,3.262-1.013,4.12l-7.743,4.688l3.221,8.46c0.516,1.354-0.011,2.883-1.25,3.634l-9.884,5.984
					C640.463,811.059,639.927,811.198,639.397,811.198z"/>
			</g>
			<g>
				<path fill="#FFCC39" d="M313.205,477.268c-7.49,0-13.583-6.094-13.583-13.583c0-7.49,6.094-13.584,13.583-13.584
					s13.583,6.094,13.583,13.584C326.788,471.174,320.694,477.268,313.205,477.268z M313.205,456.101
					c-4.182,0-7.583,3.402-7.583,7.584s3.402,7.583,7.583,7.583c4.181,0,7.583-3.401,7.583-7.583S317.386,456.101,313.205,456.101z"
					/>
			</g>
			<g>
				<path fill="#FFCC39" d="M652.91,519.679c-0.278,0-0.561-0.039-0.841-0.121c-1.591-0.464-2.504-2.13-2.04-3.72l2.535-8.69
					l-8.093-4.054c-1.296-0.649-1.942-2.132-1.536-3.522l3.235-11.092c0.463-1.592,2.13-2.507,3.72-2.04
					c1.591,0.464,2.504,2.129,2.04,3.72l-2.535,8.69l8.094,4.054c1.296,0.649,1.942,2.132,1.536,3.522l-3.236,11.092
					C655.407,518.828,654.21,519.679,652.91,519.679z"/>
			</g>
			<g>
				<path fill="#FFCC39" d="M189.43,812.16c-0.204,0-0.409-0.021-0.613-0.063l-22.275-4.651c-1.049-0.219-1.902-0.981-2.236-1.999
					c-0.335-1.019-0.102-2.138,0.613-2.937l15.165-16.965c0.715-0.799,1.799-1.157,2.85-0.938c1.049,0.219,1.902,0.981,2.236,1.999
					l7.005,21.296c0.177,0.383,0.275,0.809,0.275,1.258C192.451,810.823,191.112,812.218,189.43,812.16z M172.855,802.634
					l12.102,2.527l-3.863-11.744L172.855,802.634z"/>
			</g>
		</g>
		<g>
			<g>
				<g>
					<path fill="#FFCC39" d="M910.247,659.696c-9.337,0-17.305-6.366-19.377-15.482c-2.428-10.692,4.294-21.367,14.985-23.797
						c1.454-0.33,2.941-0.497,4.42-0.497c9.337,0,17.305,6.366,19.377,15.482c2.428,10.692-4.294,21.367-14.985,23.797
						C913.213,659.529,911.726,659.696,910.247,659.696z M910.275,625.92c-1.032,0-2.072,0.117-3.091,0.349
						c-7.465,1.696-12.159,9.15-10.463,16.616c1.446,6.365,7.008,10.812,13.525,10.812c1.032,0,2.072-0.117,3.091-0.349
						c7.465-1.696,12.159-9.15,10.463-16.616C922.354,630.366,916.793,625.92,910.275,625.92z"/>
				</g>
				<g>
					<g>
						<path fill="#FFCC39" d="M901.782,714.801c-0.736,0-1.474-0.27-2.053-0.813c-1.208-1.134-1.268-3.032-0.133-4.24
							c13.401-14.272,7.893-40.057,7.835-40.315c-0.357-1.617,0.662-3.219,2.278-3.578c1.619-0.352,3.218,0.659,3.578,2.274
							c0.066,0.295,1.606,7.325,1.288,16.404c-0.43,12.251-4.098,22.391-10.606,29.322
							C903.38,714.483,902.582,714.801,901.782,714.801z"/>
					</g>
					<g>
						<g>
							<path fill="#FFCC39" d="M949.01,704.073c-0.36,0-0.728-0.065-1.084-0.204c-21.235-8.238-27.887-36.033-28.159-37.213
								c-0.373-1.614,0.633-3.226,2.247-3.599c1.614-0.374,3.224,0.631,3.598,2.244c0.064,0.273,6.236,25.895,24.484,32.974
								c1.545,0.6,2.312,2.337,1.712,3.882C951.347,703.346,950.212,704.073,949.01,704.073z"/>
						</g>
					</g>
				</g>
				<g>
					<path fill="#FFCC39" d="M903.166,670.219c-1.369,0-2.606-0.944-2.923-2.337c-0.367-1.615,0.646-3.223,2.262-3.59l25.331-5.754
						c1.611-0.366,3.223,0.645,3.59,2.262c0.367,1.615-0.646,3.223-2.262,3.59l-25.331,5.754
						C903.609,670.194,903.387,670.219,903.166,670.219z"/>
				</g>
				<g>
					<path fill="#FFCC39" d="M896.99,732.141c-0.562,0-1.116-0.157-1.599-0.462c-0.674-0.424-1.15-1.098-1.327-1.874l-3.51-15.454
						c-0.366-1.615,0.646-3.223,2.261-3.59l63.833-14.501c1.612-0.364,3.224,0.646,3.591,2.261l3.511,15.454
						c0.176,0.776,0.037,1.591-0.388,2.264c-0.424,0.673-1.098,1.15-1.873,1.327l-63.834,14.501
						C897.435,732.116,897.212,732.141,896.99,732.141z M897.07,715.947l2.181,9.604l57.983-13.172l-2.182-9.604L897.07,715.947z"/>
				</g>
			</g>
			<g>
				<g>
					<path fill="#FFCC39" d="M1208.338,642.259c-0.938,0-1.831-0.44-2.401-1.202l-26.726-35.71
						c-0.643-0.858-0.778-1.994-0.356-2.979l17.562-40.999c0.422-0.984,1.338-1.67,2.402-1.797l44.288-5.291
						c1.062-0.133,2.114,0.323,2.757,1.181l26.726,35.71c0.643,0.858,0.778,1.994,0.356,2.979l-17.562,40.999
						c-0.422,0.984-1.338,1.67-2.402,1.797l-44.288,5.291C1208.574,642.252,1208.456,642.259,1208.338,642.259z M1185.052,603.138
						l24.65,32.937l40.849-4.88l16.198-37.814l-24.65-32.937l-40.849,4.88L1185.052,603.138z"/>
				</g>
				<g>
					<path fill="#FFCC39" d="M1225.9,601.259c-0.938,0-1.831-0.44-2.401-1.202l-26.726-35.709c-0.993-1.327-0.723-3.207,0.604-4.199
						c1.326-0.994,3.207-0.723,4.199,0.604l25.688,34.322l42.568-5.084c1.639-0.19,3.138,0.978,3.334,2.623
						c0.197,1.645-0.978,3.138-2.623,3.334l-44.288,5.29C1226.137,601.252,1226.019,601.259,1225.9,601.259z"/>
				</g>
				<g>
					<path fill="#FFCC39" d="M1208.337,642.26c-0.395,0-0.795-0.078-1.181-0.243c-1.522-0.652-2.229-2.416-1.576-3.939l17.562-41
						c0.651-1.523,2.414-2.229,3.939-1.576c1.522,0.652,2.229,2.416,1.576,3.939l-17.562,41
						C1210.608,641.578,1209.501,642.26,1208.337,642.26z"/>
				</g>
				<g>
					<circle fill="#FFCC39" cx="1237.953" cy="570.123" r="3.92"/>
				</g>
				<g>
					<g>
						<circle fill="#FFCC39" cx="1247.241" cy="582.087" r="3.92"/>
					</g>
					<g>
						<circle fill="#FFCC39" cx="1222.884" cy="571.653" r="3.92"/>
					</g>
				</g>
				<g>
					<circle fill="#FFCC39" cx="1231.805" cy="584.475" r="3.92"/>
				</g>
				<g>
					<circle fill="#FFCC39" cx="1201.912" cy="590.245" r="3.92"/>
				</g>
				<g>
					<circle fill="#FFCC39" cx="1205.374" cy="613.486" r="3.92"/>
				</g>
				<g>
					<circle fill="#FFCC39" cx="1240.431" cy="617.9" r="3.92"/>
				</g>
			</g>
			<g>
				<g>
					<path fill="#FFCC39" d="M1037.268,673.558c-0.872,0-1.711-0.38-2.286-1.058l-28.874-33.996
						c-0.694-0.817-0.899-1.942-0.539-2.951l15.005-42.003c0.36-1.01,1.232-1.75,2.286-1.942l43.878-8.008
						c1.057-0.195,2.132,0.191,2.825,1.009l28.874,33.996c0.694,0.817,0.899,1.942,0.539,2.951l-15.005,42.004
						c-0.36,1.01-1.232,1.75-2.287,1.942l-43.878,8.007C1037.627,673.542,1037.446,673.558,1037.268,673.558z M1011.802,635.939
						l26.631,31.356l40.471-7.386l13.839-38.741l-26.631-31.355l-40.471,7.386L1011.802,635.939z"/>
				</g>
				<g>
					<path fill="#FFCC39" d="M1043.316,656.625c-0.339,0-0.681-0.058-1.009-0.175c-1.01-0.36-1.75-1.232-1.942-2.286l-8.069-44.217
						c-0.192-1.055,0.192-2.132,1.009-2.825c0.816-0.694,1.944-0.898,2.951-0.539l42.327,15.12c1.01,0.36,1.75,1.232,1.942,2.286
						c0.192,1.055-0.192,2.132-1.009,2.825l-34.258,29.097C1044.708,656.379,1044.017,656.625,1043.316,656.625z M1039.131,613.981
						l6.204,33.993l26.337-22.369L1039.131,613.981z"/>
				</g>
				<g>
					<path fill="#FFCC39" d="M1081.398,664.844c-0.211,0-0.423-0.022-0.633-0.067l-38.082-8.219
						c-0.256-0.056-0.503-0.144-0.735-0.263l-34.671-17.77c-0.855-0.438-1.448-1.26-1.596-2.208
						c-0.148-0.949,0.168-1.912,0.849-2.59l26.602-26.447c0.115-0.114,0.24-0.22,0.373-0.314l32.029-22.857
						c0.799-0.569,1.827-0.713,2.751-0.383c0.925,0.33,1.63,1.093,1.887,2.04l10.298,37.978c0.043,0.157,0.072,0.317,0.089,0.479
						l3.789,36.969c0.046,0.21,0.07,0.429,0.07,0.652c0,1.657-1.343,3-3,3C1081.414,664.844,1081.405,664.844,1081.398,664.844z
						 M1044.334,650.775l33.659,7.265l-3.378-32.963l-9.105-33.58l-28.321,20.211l-23.498,23.362L1044.334,650.775z"/>
				</g>
				<g>
					<path fill="#FFCC39" d="M1077.571,627.529c-1.384,0-2.629-0.964-2.931-2.372c-0.347-1.62,0.685-3.215,2.305-3.562l18.576-3.981
						c1.623-0.344,3.216,0.685,3.562,2.305s-0.685,3.215-2.305,3.562l-18.576,3.981
						C1077.991,627.507,1077.779,627.529,1077.571,627.529z"/>
				</g>
				<g>
					<path fill="#FFCC39" d="M1035.249,612.408c-0.882,0-1.755-0.387-2.347-1.129l-11.849-14.85
						c-1.033-1.295-0.821-3.183,0.474-4.216c1.295-1.034,3.184-0.821,4.216,0.474l11.849,14.85c1.033,1.295,0.821,3.183-0.474,4.216
						C1036.565,612.194,1035.905,612.408,1035.249,612.408z"/>
				</g>
				<g>
					<path fill="#FFCC39" d="M1037.268,673.559c-0.335,0-0.676-0.057-1.009-0.176c-1.561-0.558-2.374-2.274-1.816-3.834
						l6.049-16.933c0.558-1.562,2.277-2.373,3.834-1.816c1.561,0.558,2.374,2.274,1.816,3.834l-6.049,16.933
						C1039.654,672.794,1038.499,673.559,1037.268,673.559z"/>
				</g>
			</g>
			<g>
				<g>
					<path fill="#FFCC39" d="M781.346,510.621c-0.001,0-0.001,0-0.002,0c-14.163,0-23.755-4.354-26.317-11.943
						c-2.235-6.624,1.219-14.498,9.728-22.171c7.862-7.091,19.301-13.395,32.208-17.752c10.862-3.666,21.662-5.604,31.233-5.604
						c14.162,0,23.754,4.354,26.316,11.943c4.378,12.972-14.042,30.507-41.935,39.923
						C801.716,508.683,790.916,510.621,781.346,510.621z M828.195,459.15c-8.926,0-19.063,1.829-29.315,5.29
						c-12.147,4.101-22.84,9.968-30.107,16.521c-6.525,5.885-9.463,11.643-8.061,15.797c1.661,4.923,9.374,7.862,20.632,7.862h0.002
						c8.926,0,19.062-1.829,29.312-5.29c12.148-4.101,22.84-9.968,30.107-16.521c6.525-5.885,9.463-11.643,8.061-15.797
						C847.165,462.09,839.452,459.15,828.195,459.15z"/>
				</g>
				<g>
					<path fill="#FFCC39" d="M782.256,500.996L782.256,500.996c-10.474,0-13.865-3.53-14.865-6.492
						c-1.037-3.072-0.387-8.116,8.599-14.705c6.05-4.438,14.602-8.643,24.078-11.841c9.9-3.342,19.566-5.183,27.216-5.183
						c10.474,0,13.864,3.531,14.864,6.493c1.037,3.071,0.387,8.115-8.599,14.705c-6.05,4.437-14.602,8.642-24.078,11.841
						C799.571,499.156,789.905,500.996,782.256,500.996z M827.283,469.176c-6.871,0-16.045,1.767-25.169,4.847
						c-8.871,2.994-16.805,6.879-22.34,10.938c-5.79,4.246-6.521,6.9-6.319,7.496c0.188,0.555,2.207,2.14,8.801,2.14
						c6.87,0,16.044-1.767,25.168-4.846c20.66-6.975,29.453-16.083,28.659-18.435C835.896,470.761,833.877,469.176,827.283,469.176z
						"/>
				</g>
				<g>
					<path fill="#FFCC39" d="M786.797,525.988c-13.761,0-23.94-4.116-26.572-11.912l-5.198-15.398
						c-0.529-1.57,0.313-3.272,1.883-3.803c1.575-0.529,3.272,0.315,3.803,1.883l5.198,15.399c1.401,4.154,7.229,6.953,15.984,7.68
						c9.752,0.808,21.813-1.005,33.963-5.105c12.147-4.101,22.84-9.969,30.107-16.522c6.525-5.884,9.463-11.642,8.061-15.796
						l-5.199-15.399c-0.529-1.57,0.313-3.272,1.883-3.803c1.576-0.529,3.273,0.315,3.803,1.883l5.199,15.4
						c4.378,12.971-14.042,30.507-41.935,39.923C806.646,524.173,795.932,525.988,786.797,525.988z"/>
				</g>
			</g>
			<g>
				<g>
					<g>
						<path fill="#FFCC39" d="M1169.757,788.223L1169.757,788.223c-0.898,0-1.776-0.178-2.608-0.526l-21.797-9.136
							c-1.664-0.696-2.956-2-3.639-3.669c-0.684-1.669-0.676-3.504,0.021-5.167l1.976-4.714c-4.823-8.317-5.501-18.415-1.765-27.331
							c4.807-11.468,15.947-18.878,28.381-18.878c4.085,0,8.082,0.807,11.878,2.398c15.644,6.557,23.036,24.617,16.479,40.26
							c-3.735,8.915-11.41,15.512-20.724,17.905l-1.976,4.714C1174.931,786.596,1172.485,788.223,1169.757,788.223z
							 M1170.326,724.802c-10.01,0-18.978,5.965-22.848,15.197c-3.176,7.578-2.389,16.219,2.105,23.113
							c0.543,0.833,0.639,1.881,0.254,2.798l-2.57,6.134c-0.1,0.237-0.056,0.443-0.002,0.575c0.054,0.131,0.167,0.309,0.404,0.408
							l21.797,9.136c0.314,0.129,0.779,0.084,0.984-0.402l2.57-6.134c0.384-0.917,1.198-1.585,2.173-1.781
							c8.067-1.63,14.78-7.127,17.956-14.705c5.277-12.592-0.673-27.129-13.266-32.407
							C1176.827,725.452,1173.611,724.802,1170.326,724.802z"/>
					</g>
					<g>
						<g>
							<path fill="#FFCC39" d="M1157.408,782.863c-0.322,0-0.649-0.062-0.965-0.195c-1.273-0.533-1.874-1.999-1.34-3.271
								l3.045-7.266c0.533-1.274,1.999-1.877,3.271-1.34c1.273,0.533,1.874,1.999,1.34,3.271l-3.045,7.266
								C1159.313,782.286,1158.386,782.863,1157.408,782.863z"/>
						</g>
						<g>
							<path fill="#FFCC39" d="M1150.229,779.854c-0.322,0-0.649-0.062-0.965-0.195c-1.273-0.533-1.874-1.999-1.34-3.271
								l3.045-7.266c0.533-1.274,1.999-1.876,3.271-1.34c1.273,0.533,1.874,1.999,1.34,3.271l-3.045,7.266
								C1152.135,779.277,1151.207,779.854,1150.229,779.854z"/>
						</g>
						<g>
							<path fill="#FFCC39" d="M1164.588,785.872c-0.322,0-0.649-0.062-0.965-0.195c-1.273-0.533-1.874-1.999-1.34-3.271
								l3.045-7.266c0.533-1.274,1.997-1.877,3.271-1.34c1.273,0.533,1.874,1.999,1.34,3.271l-3.045,7.266
								C1166.493,785.295,1165.565,785.872,1164.588,785.872z"/>
						</g>
					</g>
					<g>
						<g>
							<circle fill="#FFCC39" cx="1157.66" cy="748.435" r="7.784"/>
						</g>
						<g>
							<circle fill="#FFCC39" cx="1179.997" cy="757.797" r="7.784"/>
						</g>
					</g>
					<g>
						<path fill="#FFCC39" d="M1167.112,766.674c-0.631,1.506-2.184,0.975-4.047,0.195s-3.33-1.516-2.699-3.022
							c0.631-1.506,3.591-4.332,5.454-3.551C1167.683,761.076,1167.743,765.168,1167.112,766.674z"/>
					</g>
				</g>
				<g>
					<path fill="#FFCC39" d="M1180.371,829.113c-1.728,0-3.416-0.341-5.02-1.013l-64.559-27.058
						c-3.203-1.342-5.691-3.851-7.007-7.064s-1.301-6.747,0.042-9.949l42.261-100.836c2.031-4.847,6.738-7.979,11.993-7.979
						c1.728,0,3.417,0.341,5.021,1.014l64.56,27.058c6.611,2.771,9.735,10.403,6.965,17.014l-42.262,100.836
						C1190.334,825.982,1185.626,829.113,1180.371,829.113z M1158.082,681.215c-2.83,0-5.366,1.688-6.46,4.297l-42.261,100.836
						c-0.723,1.725-0.73,3.628-0.022,5.357c0.709,1.73,2.049,3.082,3.772,3.805l64.559,27.058c0.866,0.362,1.774,0.546,2.701,0.546
						c2.831,0,5.366-1.687,6.461-4.297l42.262-100.835c1.491-3.561-0.19-7.67-3.75-9.162l-64.56-27.058
						C1159.918,681.399,1159.009,681.215,1158.082,681.215z"/>
				</g>
			</g>
			<g>
				<g>
					<path fill="#FFCC39" d="M782.712,704.288c-11.922,0.001-22.822-8.038-25.92-20.105c-1.489-5.807-1.021-11.777,1.355-17.266
						c0.545-1.259,1.875-1.983,3.23-1.77c1.355,0.219,2.39,1.329,2.511,2.696c0.273,3.08,2.353,7.505,5.234,9.283
						c1.324,0.816,2.582,0.942,3.959,0.396c1.547-0.611,2.084-1.823,2.262-2.731c0.299-1.522-0.198-3.214-1.236-4.209
						c-4.226-4.053-7.29-9.501-8.134-12.788c-2.782-10.839,2.942-21.533,9.871-27.357c0.18-0.159,0.376-0.296,0.586-0.407
						c0.304-0.162,0.628-0.268,0.958-0.317c0.404-0.063,0.823-0.042,1.232,0.069c0.534,0.143,1.033,0.435,1.432,0.869
						c0.013,0.015,0.026,0.03,0.04,0.045c0.018,0.02,0.034,0.04,0.052,0.061c0.793,0.95,0.898,2.247,0.369,3.285
						c-1.401,3.016-1.539,5.959-0.408,8.752c1.601,3.952,5.423,6.892,8.502,8.051c10.615,3.996,17.724,11.111,20.015,20.035
						c3.666,14.289-4.976,28.898-19.264,32.566C787.137,704.016,784.906,704.288,782.712,704.288z M761.968,678.511
						c0.068,1.396,0.28,2.794,0.637,4.181c2.845,11.083,14.178,17.788,25.262,14.942c11.085-2.845,17.788-14.178,14.943-25.262
						c-2.294-8.938-10.14-13.587-16.316-15.912c-3.988-1.502-9.511-5.393-11.949-11.414c-0.342-0.845-0.61-1.702-0.805-2.568
						c-2.165,4.122-3.197,8.98-1.953,13.826c0.527,2.06,2.886,6.507,6.474,9.948c2.53,2.426,3.67,6.141,2.972,9.695
						c-0.649,3.311-2.815,5.919-5.942,7.156c-3.151,1.245-6.373,0.944-9.316-0.87C764.438,681.286,763.095,679.989,761.968,678.511z
						"/>
				</g>
				<g>
					<path fill="#FFCC39" d="M759.791,742.063c-5.933,0-11.108-4.018-12.585-9.771l-27.181-105.901
						c-0.863-3.364-0.364-6.862,1.403-9.851s4.594-5.11,7.957-5.974l67.802-17.402c1.062-0.272,2.151-0.41,3.239-0.41
						c5.934,0,11.109,4.018,12.586,9.771l27.18,105.901c0.863,3.363,0.365,6.861-1.402,9.85c-1.768,2.989-4.594,5.111-7.957,5.975
						l-67.803,17.402C761.969,741.926,760.879,742.063,759.791,742.063z M800.427,598.755c-0.585,0-1.173,0.075-1.747,0.223
						l-67.802,17.402c-1.812,0.465-3.333,1.606-4.285,3.216s-1.22,3.493-0.755,5.304l27.181,105.901
						c0.795,3.099,3.58,5.263,6.772,5.263c0.585,0,1.173-0.075,1.747-0.223l67.803-17.402c1.812-0.465,3.333-1.606,4.284-3.216
						c0.952-1.609,1.22-3.493,0.755-5.304L807.2,604.018C806.405,600.919,803.62,598.755,800.427,598.755z"/>
				</g>
			</g>
			<g>
				<g>
					<path fill="#FFCC39" d="M970.093,810.255c-0.279,0-0.559-0.039-0.832-0.117c-0.764-0.221-1.409-0.736-1.794-1.433
						l-11.168-20.225c-0.801-1.45-0.274-3.275,1.176-4.076l79.671-43.994c0.633-0.35,1.371-0.461,2.077-0.308l17.228,3.682
						c0.85,0.182,1.579,0.723,1.999,1.483s0.49,1.666,0.191,2.482l-6.061,16.542c-0.249,0.679-0.734,1.244-1.367,1.594
						l-79.67,43.995C971.095,810.129,970.596,810.255,970.093,810.255z M963.001,788.206l8.268,14.973l76.062-42.003l4.487-12.246
						l-12.754-2.726L963.001,788.206z"/>
				</g>
				<g>
					<path fill="#FFCC39" d="M964.512,800.144c-1.058,0-2.082-0.56-2.629-1.551c-0.801-1.45-0.274-3.275,1.176-4.076l91.314-50.425
						c1.451-0.803,3.275-0.274,4.076,1.176s0.274,3.275-1.176,4.076l-91.314,50.425
						C965.499,800.022,965.002,800.144,964.512,800.144z"/>
				</g>
				<g>
					<path fill="#FFCC39" d="M966.658,827.688c-0.151,0-0.304-0.012-0.456-0.035c-0.919-0.141-1.721-0.7-2.17-1.515l-24.318-44.037
						c-0.45-0.814-0.496-1.79-0.126-2.644c0.369-0.854,1.114-1.486,2.016-1.715l11.461-2.901c1.324-0.336,2.703,0.264,3.362,1.458
						l21.417,38.785c0.659,1.193,0.431,2.682-0.557,3.622l-8.56,8.153C968.165,827.396,967.423,827.688,966.658,827.688z
						 M946.846,782.605l20.559,37.229l4.068-3.875l-19.18-34.732L946.846,782.605z"/>
				</g>
				<g>
					<path fill="#FFCC39" d="M927.333,831.888L927.333,831.888c-5.179,0-9.948-2.813-12.448-7.342
						c-3.787-6.858-1.289-15.52,5.569-19.306c3.368-1.861,7.462-2.254,11.092-1.118l18.204-10.052
						c1.453-0.801,3.276-0.274,4.076,1.176l6.598,11.948c0.801,1.45,0.274,3.275-1.176,4.076l-18.202,10.052
						c-0.986,3.747-3.425,6.899-6.855,8.793C932.091,831.275,929.719,831.888,927.333,831.888z M927.292,809.474
						c-1.369,0-2.73,0.352-3.938,1.019c-3.962,2.188-5.405,7.191-3.218,11.153c1.445,2.616,4.202,4.242,7.195,4.242
						c0.001,0,0.001,0,0.001,0c1.375,0,2.743-0.354,3.957-1.024c2.239-1.236,3.747-3.407,4.137-5.956
						c0.141-0.921,0.701-1.723,1.516-2.173l16.779-9.266l-3.697-6.696l-16.78,9.266c-0.815,0.45-1.792,0.497-2.646,0.125
						C929.545,809.705,928.433,809.474,927.292,809.474z"/>
				</g>
				<g>
					<circle fill="#FFCC39" cx="927.611" cy="817.518" r="4"/>
				</g>
			</g>
			<g>
				<g>
					<path fill="#FFCC39" d="M1102.272,544.366c-1.85,0-3.646-0.388-5.342-1.153l-65.704-29.658
						c-3.165-1.429-5.584-4.005-6.812-7.253s-1.117-6.779,0.312-9.944l29.657-65.703c2.099-4.649,6.752-7.654,11.854-7.654
						c1.85,0,3.647,0.389,5.344,1.154l65.702,29.657c6.533,2.949,9.449,10.664,6.501,17.197l-29.658,65.703
						C1112.028,541.361,1107.375,544.366,1102.272,544.366z M1066.238,429c-2.749,0-5.255,1.618-6.386,4.123l-29.657,65.703
						c-0.77,1.704-0.829,3.605-0.168,5.354s1.964,3.136,3.668,3.905l65.703,29.658c0.914,0.413,1.882,0.622,2.874,0.622
						c2.748,0,5.255-1.618,6.386-4.123l29.658-65.703c1.588-3.518,0.018-7.672-3.501-9.26l-65.702-29.657
						C1068.198,429.21,1067.231,429,1066.238,429z"/>
				</g>
				<g>
					<path fill="#FFCC39" d="M1106.685,479.924l-0.039-0.018l1.154-10.049l-0.042-0.019c1.747-5.005-0.586-10.603-5.51-12.825
						c-1.625-0.734-3.34-1.012-5.002-0.891l-19.429-8.77c-1.163-0.525-2.584-0.22-3.319,0.824c-0.989,1.404-0.425,3.277,1.059,3.946
						l15.252,6.885c-0.705,0.681-1.323,1.468-1.823,2.358l-4.624-2.087c-0.875-0.395-1.886-0.347-2.719,0.128l-9.023,5.142
						l-0.169-0.077c-4.194-1.893-9.284-0.381-11.444,3.682c-2.367,4.452-0.456,9.903,4.066,11.944l34.563,15.602
						c5.156,2.327,11.392-0.824,12.17-6.982C1112.274,485.006,1110.092,481.462,1106.685,479.924z M1073.01,474.202
						c-0.909,2.013-3.278,2.909-5.291,2s-2.909-3.278-2-5.292c0.909-2.013,3.278-2.909,5.292-2
						C1073.024,469.819,1073.919,472.188,1073.01,474.202z M1084.326,479.31c-0.909,2.014-3.278,2.909-5.292,2s-2.909-3.278-2-5.292
						c0.909-2.013,3.278-2.909,5.292-2C1084.34,474.927,1085.235,477.296,1084.326,479.31z M1095.643,484.418
						c-0.909,2.013-3.278,2.909-5.292,2s-2.909-3.278-2-5.291c0.909-2.014,3.278-2.909,5.292-2
						C1095.656,480.035,1096.552,482.404,1095.643,484.418z M1106.959,489.526c-0.909,2.013-3.278,2.909-5.292,2
						c-2.013-0.909-2.909-3.278-2-5.292c0.909-2.013,3.278-2.909,5.292-2C1106.972,485.143,1107.868,487.512,1106.959,489.526z"/>
				</g>
				<g>
					<path fill="#FFCC39" d="M1048.546,503.299c-0.345,0-0.693-0.071-1.027-0.223c-1.259-0.567-1.818-2.049-1.25-3.307l4.492-9.951
						c0.568-1.26,2.05-1.819,3.307-1.25c1.259,0.567,1.818,2.049,1.25,3.307l-4.492,9.951
						C1050.408,502.751,1049.498,503.299,1048.546,503.299z"/>
				</g>
				<g>
					<path fill="#FFCC39" d="M1061.73,503.261c-0.344,0-0.692-0.071-1.026-0.223l-2.278-1.028c-1.259-0.567-1.818-2.048-1.25-3.307
						c0.568-1.26,2.051-1.819,3.307-1.25l2.278,1.028c1.259,0.567,1.818,2.048,1.25,3.307
						C1063.594,502.713,1062.684,503.261,1061.73,503.261z"/>
				</g>
				<g>
					<path fill="#FFCC39" d="M1088.623,515.4c-0.344,0-0.693-0.071-1.027-0.223l-2.278-1.029c-1.258-0.568-1.817-2.05-1.249-3.308
						c0.568-1.257,2.048-1.819,3.308-1.249l2.278,1.029c1.258,0.568,1.817,2.05,1.249,3.308
						C1090.485,514.853,1089.576,515.4,1088.623,515.4z"/>
				</g>
				<g>
					<path fill="#FFCC39" d="M1095.039,524.285c-0.345,0-0.693-0.071-1.027-0.223c-1.259-0.567-1.818-2.049-1.25-3.307l4.492-9.951
						c0.568-1.26,2.051-1.819,3.307-1.25c1.259,0.567,1.818,2.049,1.25,3.307l-4.492,9.951
						C1096.901,523.737,1095.991,524.285,1095.039,524.285z"/>
				</g>
				<g>
					<path fill="#FFCC39" d="M1075.946,514.569c-0.345,0-0.693-0.071-1.027-0.223l-7.484-3.378c-1.039-0.469-1.628-1.58-1.435-2.703
						s1.123-1.973,2.258-2.066c3.487-0.289,7.304-1.393,7.853-2.27c0.068-0.197,0.253-0.706-0.455-1.217
						c-0.628-0.455-1.531-0.547-1.97-0.203c-1.085,0.855-2.657,0.666-3.511-0.417c-0.854-1.084-0.668-2.656,0.417-3.511
						c2.22-1.75,5.509-1.719,7.993,0.079c2.323,1.68,3.168,4.37,2.204,7.022c-0.321,0.885-1.32,2.546-4.401,3.841l0.588,0.266
						c1.259,0.567,1.818,2.048,1.25,3.307C1077.809,514.021,1076.898,514.569,1075.946,514.569z"/>
				</g>
			</g>
			<g>
				<path fill="#FFCC39" d="M967.898,555.5c-1.183,0-2.304-0.704-2.778-1.866l-4.369-10.696c-0.548-1.342-0.059-2.883,1.162-3.663
					l7.629-4.873l-3.424-8.379c-0.627-1.534,0.108-3.285,1.643-3.912c1.531-0.625,3.285,0.109,3.912,1.643l4.37,10.695
					c0.548,1.342,0.059,2.883-1.162,3.663l-7.629,4.873l3.423,8.38c0.626,1.534-0.109,3.285-1.643,3.912
					C968.66,555.428,968.276,555.5,967.898,555.5z"/>
			</g>
			<g>
				<path fill="#FFCC39" d="M1294.282,713.404c-7.489,0-13.583-6.094-13.583-13.584c0-7.489,6.094-13.583,13.583-13.583
					s13.583,6.094,13.583,13.583C1307.865,707.311,1301.771,713.404,1294.282,713.404z M1294.282,692.237
					c-4.182,0-7.583,3.401-7.583,7.583s3.401,7.584,7.583,7.584s7.583-3.402,7.583-7.584S1298.464,692.237,1294.282,692.237z"/>
			</g>
			<g>
				<path fill="#FFCC39" d="M1212.487,478.018c-0.606,0-1.209-0.184-1.723-0.544c-0.878-0.615-1.36-1.652-1.266-2.72l2.002-22.667
					c0.094-1.068,0.751-2.004,1.723-2.456c0.971-0.451,2.109-0.353,2.988,0.264l18.629,13.067c0.878,0.615,1.36,1.652,1.266,2.72
					c-0.094,1.068-0.751,2.004-1.723,2.456l-20.631,9.6C1213.35,477.925,1212.918,478.018,1212.487,478.018z M1217.021,457.791
					l-1.088,12.314l11.209-5.216L1217.021,457.791z"/>
			</g>
			<g>
				<path fill="#FFCC39" d="M888.444,577.203c-0.787,0-1.555-0.311-2.126-0.883l-16.059-16.122c-0.756-0.76-1.05-1.864-0.771-2.899
					c0.279-1.034,1.09-1.842,2.126-2.117l21.991-5.847c1.035-0.275,2.14,0.023,2.896,0.782c0.757,0.76,1.051,1.864,0.771,2.899
					l-5.933,21.969c-0.279,1.034-1.09,1.842-2.126,2.117C888.96,577.17,888.701,577.203,888.444,577.203z M878.178,559.646
					l8.725,8.759l3.224-11.936L878.178,559.646z"/>
			</g>
			<g>
				<path fill="#FFCC39" d="M1266.875,811.198c-1.015,0-2.005-0.515-2.569-1.446c-0.858-1.417-0.404-3.262,1.013-4.12l7.743-4.688
					l-3.221-8.46c-0.516-1.354,0.011-2.884,1.25-3.634l9.884-5.983c1.415-0.857,3.262-0.405,4.12,1.013
					c0.858,1.417,0.404,3.262-1.013,4.12l-7.743,4.688l3.221,8.46c0.516,1.354-0.011,2.883-1.25,3.634l-9.884,5.984
					C1267.94,811.059,1267.404,811.198,1266.875,811.198z"/>
			</g>
			<g>
				<path fill="#FFCC39" d="M940.682,477.268c-7.489,0-13.583-6.094-13.583-13.583c0-7.49,6.094-13.584,13.583-13.584
					c7.49,0,13.584,6.094,13.584,13.584C954.266,471.174,948.172,477.268,940.682,477.268z M940.682,456.101
					c-4.182,0-7.583,3.402-7.583,7.584s3.401,7.583,7.583,7.583s7.584-3.401,7.584-7.583S944.863,456.101,940.682,456.101z"/>
			</g>
			<g>
				<path fill="#FFCC39" d="M1280.388,519.679c-0.278,0-0.561-0.039-0.841-0.121c-1.591-0.464-2.504-2.13-2.04-3.72l2.535-8.69
					l-8.094-4.054c-1.296-0.649-1.942-2.132-1.536-3.522l3.236-11.092c0.464-1.592,2.129-2.507,3.72-2.04
					c1.591,0.464,2.504,2.13,2.04,3.72l-2.535,8.69l8.094,4.054c1.296,0.649,1.942,2.132,1.536,3.522l-3.236,11.092
					C1282.885,518.828,1281.688,519.679,1280.388,519.679z"/>
			</g>
			<g>
				<path fill="#FFCC39" d="M816.908,812.16c-0.204,0-0.409-0.021-0.613-0.063l-22.275-4.651c-1.049-0.219-1.901-0.981-2.236-1.999
					c-0.335-1.019-0.102-2.138,0.613-2.937l15.165-16.965c0.715-0.799,1.801-1.157,2.85-0.938c1.049,0.219,1.901,0.981,2.236,1.999
					l7.005,21.296c0.177,0.383,0.275,0.809,0.275,1.258c0,1.656-1.343,3-2.999,3C816.922,812.16,816.915,812.16,816.908,812.16z
					 M800.332,802.634l12.103,2.527l-3.863-11.744L800.332,802.634z"/>
			</g>
		</g>
	</g>
	<g>
		<path fill="#FFCC39" d="M718.032,438.584c-7.49,0-13.584-6.094-13.584-13.584c0-7.489,6.094-13.583,13.584-13.583
			c7.489,0,13.583,6.094,13.583,13.583C731.615,432.49,725.521,438.584,718.032,438.584z M718.032,417.417
			c-4.182,0-7.584,3.401-7.584,7.583s3.402,7.584,7.584,7.584s7.583-3.402,7.583-7.584S722.214,417.417,718.032,417.417z"/>
	</g>
</g>
</svg>
