<?xml version="1.0" encoding="utf-8"?>
<!-- Generator: Adobe Illustrator 17.1.0, SVG Export Plug-In . SVG Version: 6.00 Build 0)  -->
<!DOCTYPE svg PUBLIC "-//W3C//DTD SVG 1.1//EN" "http://www.w3.org/Graphics/SVG/1.1/DTD/svg11.dtd">
<svg version="1.1" id="Layer_1" xmlns="http://www.w3.org/2000/svg" xmlns:xlink="http://www.w3.org/1999/xlink" x="0px" y="0px"
	 viewBox="0 0 1600 1100" enable-background="new 0 0 1600 1100" xml:space="preserve">
<g opacity="0.2">
	<path fill="#FFCC39" d="M302.985,364.052l-80.307-30.514c-1.871-0.711-3.828-1.073-5.817-1.073c-6.763,0-12.92,4.25-15.321,10.573
		l-47.659,125.433c-3.209,8.445,1.051,17.927,9.5,21.138l80.307,30.512c1.871,0.711,3.828,1.073,5.817,1.073
		c6.763,0,12.92-4.248,15.321-10.571l47.657-125.433C315.695,376.743,311.433,367.261,302.985,364.052z M304.792,382.269
		l-47.657,125.433c-1.198,3.147-4.262,5.262-7.629,5.262c-0.987,0-1.961-0.181-2.895-0.534l-80.305-30.512
		c-4.206-1.599-6.327-6.319-4.732-10.525l47.661-125.433c1.196-3.149,4.26-5.264,7.627-5.264c0.987,0,1.961,0.181,2.895,0.534
		l80.307,30.514C304.267,373.344,306.389,378.063,304.792,382.269z"/>
	<path fill="#FFCC39" d="M245.57,397.695c-0.081-1.149-1.478-1.68-2.302-0.875c-4.006,3.916-11.737,8.986-22.409,11.954
		c-20.183,5.614-21.329,24.29-11.363,30.995c7.324,4.928,13.922,2.396,17.093,0.549c-2.915,4.223-7.193,8.986-12.738,11.352
		c-1.12,0.478-1.057,2.095,0.081,2.527l7.734,2.939l7.735,2.939c1.138,0.433,2.258-0.734,1.739-1.836
		c-2.575-5.45-2.611-11.853-1.986-16.946c1.144,3.486,4.396,9.761,13.145,10.94c11.904,1.604,23.45-13.12,12.086-30.721
		C248.379,412.208,245.966,403.283,245.57,397.695z"/>
	<path fill="#FFCC39" d="M63.863,192.317c2.678,0,5.333-0.436,7.891-1.292c6.291-2.106,11.385-6.536,14.345-12.474
		c2.958-5.938,3.428-12.673,1.32-18.962c-3.398-10.143-12.862-16.957-23.551-16.957c-2.674,0-5.329,0.434-7.887,1.29
		c-6.291,2.108-11.385,6.538-14.345,12.476c-2.958,5.938-3.428,12.673-1.32,18.962C43.713,185.503,53.175,192.317,63.863,192.317z
		 M49.002,160.067c1.979-3.97,5.385-6.932,9.591-8.341c1.714-0.573,3.488-0.864,5.274-0.864c7.147,0,13.475,4.557,15.747,11.341
		c1.409,4.206,1.095,8.706-0.882,12.677c-1.979,3.97-5.385,6.932-9.591,8.341c-1.716,0.575-3.49,0.866-5.279,0.866
		c-7.145,0-13.471-4.557-15.743-11.339C46.711,168.54,47.025,164.037,49.002,160.067z"/>
	<path fill="#FFCC39" d="M132.486,232.927c-0.721-2.154-3.058-3.319-5.208-2.596l-8.644,2.894
		c-20.987-6.662-31.291-33.336-32.39-36.345l3.849-1.289c2.156-0.721,3.317-3.054,2.596-5.208c-0.723-2.154-3.054-3.321-5.208-2.596
		l-30.23,10.123c-2.156,0.721-3.317,3.054-2.596,5.208c0.577,1.722,2.18,2.811,3.902,2.811c0.432,0,0.874-0.07,1.306-0.215
		l3.85-1.289c0.93,3.024,8.827,30.496-3.969,48.521l-8.644,2.895c-2.156,0.721-3.317,3.054-2.596,5.208l6.175,18.442
		c0.346,1.035,1.089,1.891,2.068,2.377c0.575,0.287,1.204,0.432,1.835,0.432c0.44,0,0.882-0.07,1.306-0.213l76.18-25.51
		c1.035-0.346,1.891-1.091,2.377-2.068c0.486-0.977,0.565-2.106,0.219-3.141L132.486,232.927z M71.521,201.811l6.915-2.316
		c1.025,2.91,9.778,26.333,28.766,37.559L71.173,249.12C79.575,228.72,72.452,204.745,71.521,201.811z M61.176,272.977
		l-3.563-10.637l62.364-20.886c0.006-0.002,0.011-0.004,0.017-0.006l5.993-2.007l3.565,10.637L61.176,272.977z"/>
	<path fill="#FFCC39" d="M587.622,215.912c0.039,0.052,0.092,0.09,0.134,0.14c0.125,0.152,0.26,0.295,0.408,0.43
		c0.08,0.073,0.159,0.143,0.245,0.208c0.151,0.117,0.312,0.219,0.482,0.314c0.096,0.055,0.188,0.113,0.288,0.16
		c0.042,0.02,0.076,0.048,0.119,0.066c0.149,0.063,0.302,0.096,0.453,0.142c0.092,0.027,0.18,0.064,0.274,0.085
		c0.296,0.066,0.594,0.106,0.89,0.106c0.007,0,0.014-0.003,0.022-0.003c0.154-0.001,0.312-0.01,0.469-0.027l54.352-6.494
		c1.459-0.175,2.715-1.115,3.295-2.467l21.554-50.318c0.022-0.051,0.024-0.105,0.044-0.157c0.089-0.233,0.155-0.472,0.201-0.72
		c0.016-0.086,0.037-0.17,0.047-0.256c0.038-0.318,0.051-0.642,0.011-0.975c-0.039-0.331-0.128-0.642-0.24-0.941
		c-0.033-0.087-0.076-0.169-0.115-0.254c-0.097-0.214-0.209-0.416-0.34-0.608c-0.038-0.056-0.057-0.12-0.097-0.174l-32.8-43.826
		c-0.88-1.175-2.321-1.778-3.784-1.622l-54.352,6.494c-0.055,0.007-0.104,0.032-0.158,0.041c-0.246,0.039-0.486,0.101-0.723,0.185
		c-0.083,0.03-0.166,0.053-0.247,0.088c-0.294,0.126-0.581,0.277-0.849,0.478c-0.269,0.201-0.495,0.435-0.7,0.682
		c-0.054,0.066-0.099,0.137-0.15,0.206c-0.149,0.205-0.277,0.42-0.384,0.646c-0.024,0.05-0.062,0.09-0.084,0.142l-21.554,50.318
		c-0.579,1.35-0.392,2.908,0.488,4.085L587.622,215.912z M642.422,203.149l-44.915,5.366l17.811-41.581l44.916-5.366
		L642.422,203.149z M659.258,153.394l-44.917,5.367l-27.106-36.217l44.917-5.366L659.258,153.394z M580.647,127.476l27.105,36.217
		l-17.812,41.582l-27.106-36.216L580.647,127.476z"/>
	<circle fill="#FFCC39" cx="627.261" cy="128.598" r="4.811"/>
	<circle fill="#FFCC39" cx="638.66" cy="143.28" r="4.811"/>
	<circle fill="#FFCC39" cx="608.768" cy="130.476" r="4.811"/>
	<circle fill="#FFCC39" cx="619.716" cy="146.212" r="4.811"/>
	<circle fill="#FFCC39" cx="583.03" cy="153.294" r="4.811"/>
	<circle fill="#FFCC39" cx="587.279" cy="181.816" r="4.811"/>
	<circle fill="#FFCC39" cx="630.302" cy="187.233" r="4.811"/>
	<path fill="#FFCC39" d="M318.961,108.055c0.005,0.095,0.014,0.188,0.026,0.283c0.03,0.258,0.084,0.508,0.161,0.752
		c0.016,0.052,0.015,0.105,0.033,0.156l18.416,51.549c0.496,1.384,1.692,2.399,3.137,2.664l53.85,9.828
		c0.237,0.042,0.473,0.062,0.708,0.063c0.011,0.001,0.021,0.005,0.031,0.005c0.269,0,0.539-0.035,0.81-0.09
		c0.078-0.016,0.152-0.04,0.229-0.06c0.115-0.031,0.231-0.05,0.346-0.091c0.064-0.023,0.119-0.06,0.181-0.086
		c0.114-0.047,0.223-0.101,0.333-0.158c0.15-0.078,0.294-0.163,0.431-0.258c0.094-0.065,0.185-0.133,0.274-0.206
		c0.137-0.113,0.262-0.233,0.382-0.36c0.048-0.051,0.106-0.089,0.152-0.143l35.437-41.722c0.952-1.121,1.234-2.664,0.739-4.049
		l-18.416-51.549c-0.02-0.056-0.058-0.101-0.08-0.156c-0.093-0.231-0.206-0.452-0.343-0.664c-0.053-0.084-0.107-0.165-0.166-0.245
		c-0.148-0.198-0.317-0.382-0.504-0.556c-0.056-0.052-0.104-0.111-0.164-0.16c-0.02-0.016-0.034-0.036-0.053-0.052
		c-0.241-0.193-0.498-0.348-0.765-0.478c-0.05-0.024-0.103-0.038-0.154-0.06c-0.253-0.112-0.512-0.195-0.778-0.252
		c-0.045-0.01-0.084-0.034-0.13-0.042l-53.85-9.828c-0.029-0.005-0.057,0.001-0.085-0.004c-0.273-0.044-0.549-0.048-0.826-0.037
		c-0.064,0.003-0.129-0.009-0.193-0.004c-0.345,0.031-0.687,0.099-1.02,0.218c-0.331,0.119-0.637,0.28-0.921,0.473
		c-0.079,0.053-0.143,0.127-0.219,0.186c-0.196,0.154-0.386,0.311-0.551,0.496c-0.019,0.021-0.044,0.035-0.062,0.056l-35.437,41.722
		c-0.035,0.041-0.053,0.092-0.087,0.135c-0.155,0.197-0.29,0.409-0.408,0.634c-0.033,0.064-0.076,0.122-0.106,0.188
		c-0.122,0.267-0.222,0.547-0.286,0.845c-0.005,0.025-0.004,0.049-0.008,0.073c-0.015,0.074-0.015,0.149-0.025,0.224
		C318.964,107.553,318.949,107.805,318.961,108.055z M420.46,110.918l-17.141-17.042l7.634-9.567L420.46,110.918z M396.8,161.142
		l-3.812-10.668l22.797-11.685L396.8,161.142z M385.129,140.709l-31.179-26.483l38.523-13.76L385.129,140.709z M400.447,102.626
		l23.081,22.947l-30.083,15.42L400.447,102.626z M351.887,106.224l9.029-33.298l28.082,20.041L351.887,106.224z M378.877,146.197
		l-33.042,7.131l3.316-32.379L378.877,146.197z M385.237,153.243l3.812,10.669l-28.849-5.264L385.237,153.243z M397.018,88.578
		l-21.131-15.08l28.948,5.283L397.018,88.578z M342.903,107.907l-12.254-2.627l19.047-22.425L342.903,107.907z M341.385,116.001
		l-2.463,24.042l-9.506-26.608L341.385,116.001z"/>
	<path fill="#FFCC39" d="M590.895,393.075c-10.023,0-21.11,1.497-32.067,4.326c-16.243,4.197-30.861,10.921-41.163,18.934
		c-11.244,8.747-16.229,18.235-14.037,26.718l4.989,19.314c2.19,8.485,11.148,14.373,25.221,16.579
		c4.093,0.641,8.501,0.958,13.135,0.958c9.964,0,20.961-1.467,32.049-4.332c16.243-4.195,30.861-10.919,41.163-18.932
		c11.244-8.747,16.229-18.235,14.037-26.718l-4.989-19.314C626.398,399.63,612.065,393.075,590.895,393.075z M522.718,422.831
		c9.434-7.338,22.989-13.539,38.167-17.461c10.296-2.658,20.672-4.065,30.009-4.065c16.665,0,28.587,4.459,30.369,11.361
		c1.3,5.035-2.753,11.654-11.122,18.164c-9.434,7.338-22.989,13.539-38.167,17.459c-10.296,2.66-20.674,4.067-30.011,4.067
		c-16.665,0-28.585-4.461-30.367-11.361C510.296,435.96,514.349,429.342,522.718,422.831z M615.131,450.144
		c-9.434,7.338-22.989,13.539-38.167,17.459c-15.178,3.922-30.042,5.061-41.85,3.211c-10.475-1.642-17.228-5.469-18.528-10.505
		l-1.199-4.642c6.636,3.175,15.693,4.919,26.577,4.919c10.023,0,21.112-1.497,32.069-4.328
		c16.243-4.195,30.861-10.919,41.163-18.932c4.167-3.242,7.47-6.585,9.87-9.941l1.187,4.594
		C627.553,437.015,623.5,443.634,615.131,450.144z"/>
	<path fill="#FFCC39" d="M541.99,448.569c8.618,0,18.647-1.415,28.999-4.089c22.665-5.853,45.634-17.678,42.501-29.806
		c-1.131-4.37-5.972-9.581-22.619-9.581c-8.618,0-18.647,1.415-28.999,4.089c-22.665,5.853-45.634,17.678-42.501,29.804
		C520.5,443.359,525.34,448.569,541.99,448.569z M563.929,417.151c9.552-2.469,19.121-3.828,26.941-3.828
		c10.302,0,14.375,2.343,14.65,3.41c0.725,2.809-11.198,13.219-36.59,19.778c-9.552,2.469-19.121,3.828-26.941,3.828
		c-10.302,0-14.375-2.341-14.65-3.41C526.614,434.12,538.538,423.709,563.929,417.151z"/>
	<path fill="#FFCC39" d="M450.402,288.988c-10.495,0-19.032,8.538-19.032,19.032c0,10.495,8.538,19.032,19.032,19.032
		c10.495,0,19.032-8.538,19.032-19.032C469.435,297.525,460.897,288.988,450.402,288.988z M450.402,318.822
		c-5.956,0-10.802-4.846-10.802-10.802s4.846-10.802,10.802-10.802s10.802,4.847,10.802,10.802S456.358,318.822,450.402,318.822z"/>
	<path fill="#FFCC39" d="M245.627,245.875l29.997,11.351c0.472,0.179,0.966,0.267,1.457,0.267c0.01,0,0.026,0,0.04,0
		c2.275,0,4.115-1.843,4.115-4.115c0-0.43-0.064-0.844-0.187-1.234l-5.076-31.084c-0.237-1.451-1.23-2.666-2.604-3.185
		c-1.374-0.52-2.926-0.269-4.061,0.663l-24.829,20.304c-1.139,0.93-1.694,2.397-1.457,3.848
		C243.26,244.141,244.253,245.357,245.627,245.875z M269,229.421l2.871,17.586l-16.665-6.305L269,229.421z"/>
	<path fill="#FFCC39" d="M199.085,74.807c10.495,0,19.032-8.538,19.032-19.032s-8.538-19.032-19.032-19.032
		c-10.495,0-19.032,8.538-19.032,19.032S188.59,74.807,199.085,74.807z M199.085,44.972c5.956,0,10.802,4.847,10.802,10.802
		s-4.847,10.802-10.802,10.802s-10.802-4.847-10.802-10.802S193.129,44.972,199.085,44.972z"/>
	<path fill="#FFCC39" d="M726.048,277.522l-16.46,17.698l-20.367-13.016c-1.68-1.071-3.876-0.79-5.23,0.665l-18.799,20.21
		c-1.547,1.664-1.453,4.268,0.211,5.817c0.794,0.735,1.798,1.101,2.803,1.101c1.103,0,2.202-0.44,3.014-1.312l16.46-17.698
		l20.367,13.016c1.68,1.073,3.874,0.79,5.23-0.665l18.799-20.21c1.547-1.664,1.453-4.268-0.211-5.817
		C730.202,275.768,727.6,275.857,726.048,277.522z"/>
	<path fill="#FFCC39" d="M504.994,87.741c0.195,0.028,0.388,0.04,0.581,0.04c2.017,0,3.78-1.485,4.069-3.54l3.374-23.933
		l24.148-0.981c1.985-0.08,3.631-1.569,3.908-3.536l3.852-27.331c0.318-2.25-1.25-4.332-3.5-4.65c-2.236-0.324-4.332,1.25-4.65,3.5
		l-3.374,23.933l-24.148,0.981c-1.985,0.08-3.631,1.569-3.908,3.536l-3.852,27.331C501.176,85.342,502.743,87.424,504.994,87.741z"
		/>
	<path fill="#FFCC39" d="M1144.359,364.052l-80.307-30.516c-1.871-0.709-3.83-1.071-5.817-1.071c-6.763,0-12.92,4.25-15.321,10.573
		l-47.659,125.433c-3.209,8.443,1.051,17.927,9.498,21.138l80.307,30.514c1.871,0.709,3.83,1.071,5.817,1.071
		c6.763,0,12.92-4.248,15.321-10.571l47.659-125.433c1.555-4.091,1.425-8.544-0.37-12.536S1148.452,365.606,1144.359,364.052z
		 M1146.166,382.269l-47.659,125.433c-1.198,3.147-4.262,5.262-7.63,5.262c-0.987,0-1.959-0.181-2.895-0.534l-80.305-30.512
		c-4.206-1.599-6.325-6.319-4.73-10.525l47.661-125.433c1.196-3.149,4.26-5.264,7.627-5.264c0.987,0,1.959,0.181,2.896,0.534
		l80.307,30.514C1145.641,373.344,1147.763,378.063,1146.166,382.269z"/>
	<path fill="#FFCC39" d="M1086.944,397.695c-0.081-1.149-1.478-1.68-2.302-0.875c-4.007,3.916-11.738,8.986-22.409,11.954
		c-20.184,5.614-21.329,24.29-11.363,30.995c7.324,4.928,13.922,2.396,17.092,0.549c-2.913,4.223-7.192,8.986-12.737,11.352
		c-1.12,0.478-1.057,2.095,0.081,2.527l7.735,2.939l7.735,2.939c1.138,0.433,2.259-0.734,1.738-1.836
		c-2.575-5.45-2.611-11.853-1.985-16.946c1.144,3.486,4.395,9.761,13.144,10.94c11.904,1.604,23.45-13.12,12.087-30.721
		C1089.752,412.208,1087.339,403.283,1086.944,397.695z"/>
	<path fill="#FFCC39" d="M905.237,192.317c2.676,0,5.331-0.436,7.889-1.292c6.291-2.106,11.385-6.536,14.345-12.474
		c2.958-5.938,3.428-12.673,1.322-18.962c-3.398-10.143-12.862-16.957-23.551-16.957c-2.674,0-5.329,0.434-7.887,1.29
		c-6.291,2.108-11.385,6.538-14.345,12.476c-2.958,5.938-3.428,12.673-1.32,18.962C885.085,185.503,894.547,192.317,905.237,192.317
		z M890.376,160.067c1.979-3.97,5.385-6.932,9.591-8.341c1.714-0.573,3.488-0.864,5.274-0.864c7.147,0,13.475,4.557,15.747,11.339
		c1.409,4.206,1.093,8.708-0.884,12.679c-1.979,3.97-5.385,6.932-9.593,8.341c-1.714,0.575-3.488,0.866-5.274,0.866
		c-7.147,0-13.473-4.557-15.743-11.339C888.085,168.54,888.398,164.037,890.376,160.067z"/>
	<path fill="#FFCC39" d="M973.859,232.927c-0.721-2.154-3.058-3.319-5.208-2.596l-8.644,2.895
		c-20.99-6.662-31.291-33.339-32.389-36.346l3.847-1.288c2.156-0.721,3.317-3.054,2.596-5.208c-0.723-2.154-3.062-3.321-5.208-2.596
		l-30.228,10.123c-2.156,0.721-3.317,3.054-2.596,5.208c0.577,1.722,2.18,2.811,3.902,2.811c0.432,0,0.874-0.07,1.306-0.215
		l3.849-1.289c0.931,3.027,8.828,30.496-3.966,48.52l-8.647,2.895c-1.035,0.346-1.891,1.091-2.377,2.068s-0.565,2.106-0.219,3.141
		l6.177,18.442c0.577,1.722,2.18,2.811,3.902,2.811c0.432,0,0.874-0.07,1.306-0.215l76.18-25.51
		c1.035-0.346,1.891-1.091,2.377-2.068s0.565-2.106,0.219-3.141L973.859,232.927z M912.893,201.811l6.916-2.316
		c1.026,2.906,9.777,26.332,28.766,37.559l-36.027,12.065C920.948,228.721,913.825,204.747,912.893,201.811z M902.55,272.977
		l-3.565-10.637l62.368-20.887c0.004-0.001,0.007-0.002,0.01-0.004l5.998-2.008l3.565,10.637L902.55,272.977z"/>
	<path fill="#FFCC39" d="M1428.995,215.912c0.039,0.052,0.093,0.09,0.134,0.14c0.126,0.152,0.26,0.295,0.408,0.43
		c0.08,0.073,0.16,0.143,0.245,0.208c0.151,0.117,0.312,0.219,0.482,0.314c0.095,0.055,0.188,0.113,0.288,0.16
		c0.041,0.02,0.076,0.048,0.119,0.066c0.149,0.063,0.302,0.096,0.453,0.142c0.092,0.027,0.18,0.064,0.274,0.085
		c0.296,0.066,0.594,0.106,0.89,0.106c0.007,0,0.014-0.003,0.021-0.003c0.155-0.001,0.312-0.01,0.469-0.027l54.353-6.494
		c1.459-0.175,2.715-1.115,3.295-2.467l21.554-50.318c0.022-0.051,0.024-0.105,0.044-0.157c0.088-0.233,0.156-0.472,0.201-0.72
		c0.016-0.086,0.037-0.17,0.047-0.256c0.038-0.318,0.051-0.642,0.011-0.975c-0.039-0.33-0.128-0.639-0.239-0.937
		c-0.034-0.092-0.079-0.178-0.121-0.268c-0.094-0.207-0.203-0.403-0.328-0.588c-0.04-0.059-0.06-0.127-0.104-0.184l-32.8-43.826
		c-0.882-1.175-2.309-1.778-3.784-1.622l-54.352,6.494c-0.055,0.007-0.104,0.032-0.16,0.041c-0.244,0.039-0.483,0.1-0.719,0.184
		c-0.084,0.03-0.169,0.054-0.25,0.089c-0.293,0.126-0.581,0.277-0.848,0.477c-0.268,0.201-0.495,0.435-0.7,0.682
		c-0.054,0.066-0.099,0.137-0.15,0.206c-0.149,0.205-0.276,0.42-0.384,0.646c-0.024,0.05-0.062,0.09-0.084,0.142l-21.554,50.318
		c-0.579,1.35-0.392,2.908,0.488,4.085L1428.995,215.912z M1483.796,203.149l-44.916,5.366l17.81-41.581l44.918-5.366
		L1483.796,203.149z M1500.632,153.393l-44.919,5.367l-27.104-36.217l44.917-5.366L1500.632,153.393z M1422.02,127.476
		l27.104,36.217l-17.81,41.581l-27.106-36.215L1422.02,127.476z"/>
	<circle fill="#FFCC39" cx="1468.634" cy="128.598" r="4.811"/>
	<circle fill="#FFCC39" cx="1480.033" cy="143.28" r="4.811"/>
	<circle fill="#FFCC39" cx="1450.141" cy="130.476" r="4.812"/>
	<circle fill="#FFCC39" cx="1461.089" cy="146.212" r="4.811"/>
	<circle fill="#FFCC39" cx="1424.403" cy="153.294" r="4.811"/>
	<circle fill="#FFCC39" cx="1428.652" cy="181.816" r="4.811"/>
	<circle fill="#FFCC39" cx="1471.676" cy="187.233" r="4.811"/>
	<path fill="#FFCC39" d="M1160.334,108.055c0.004,0.095,0.014,0.188,0.025,0.283c0.03,0.258,0.084,0.508,0.162,0.752
		c0.016,0.052,0.015,0.105,0.033,0.156l18.413,51.549c0.494,1.384,1.692,2.399,3.137,2.664l53.852,9.828
		c0.237,0.042,0.473,0.062,0.708,0.063c0.011,0.001,0.02,0.005,0.031,0.005c0.269,0,0.54-0.035,0.81-0.09
		c0.078-0.016,0.153-0.04,0.229-0.06c0.115-0.031,0.231-0.05,0.346-0.091c0.064-0.023,0.119-0.06,0.181-0.086
		c0.115-0.047,0.223-0.101,0.333-0.158c0.151-0.078,0.294-0.163,0.431-0.258c0.094-0.065,0.185-0.133,0.274-0.206
		c0.137-0.113,0.262-0.233,0.382-0.36c0.048-0.051,0.105-0.089,0.152-0.143l35.435-41.722c0.952-1.121,1.234-2.664,0.739-4.049
		l-18.413-51.549c-0.02-0.057-0.058-0.102-0.081-0.158c-0.092-0.228-0.204-0.447-0.339-0.658c-0.055-0.087-0.109-0.171-0.171-0.253
		c-0.146-0.195-0.312-0.375-0.495-0.545c-0.059-0.055-0.111-0.117-0.173-0.169c-0.018-0.015-0.032-0.035-0.051-0.05
		c-0.24-0.192-0.498-0.347-0.764-0.477c-0.051-0.025-0.106-0.039-0.159-0.062c-0.252-0.111-0.509-0.193-0.774-0.251
		c-0.045-0.01-0.084-0.034-0.131-0.042l-53.85-9.828c-0.028-0.005-0.057,0.001-0.085-0.004c-0.272-0.044-0.547-0.048-0.825-0.037
		c-0.064,0.003-0.13-0.009-0.193-0.004c-0.345,0.031-0.687,0.099-1.021,0.218c-0.331,0.119-0.637,0.28-0.921,0.473
		c-0.077,0.052-0.141,0.125-0.215,0.183c-0.197,0.154-0.389,0.312-0.554,0.499c-0.019,0.021-0.044,0.035-0.062,0.056l-35.437,41.722
		c-0.035,0.041-0.053,0.092-0.086,0.135c-0.156,0.197-0.29,0.409-0.409,0.634c-0.033,0.064-0.076,0.122-0.106,0.188
		c-0.123,0.267-0.222,0.547-0.286,0.845c-0.005,0.025-0.003,0.049-0.008,0.073c-0.014,0.074-0.014,0.149-0.025,0.224
		C1160.338,107.553,1160.322,107.805,1160.334,108.055z M1261.831,110.915l-17.138-17.039l7.634-9.567L1261.831,110.915z
		 M1238.174,161.142l-3.812-10.668l22.795-11.683L1238.174,161.142z M1226.503,140.709l-31.179-26.483l38.523-13.76
		L1226.503,140.709z M1241.82,102.626l23.081,22.947l-30.083,15.42L1241.82,102.626z M1193.261,106.224l9.029-33.298l28.082,20.041
		L1193.261,106.224z M1220.251,146.197l-33.044,7.131l3.318-32.379L1220.251,146.197z M1226.61,153.243l3.812,10.669l-28.85-5.264
		L1226.61,153.243z M1238.392,88.578l-21.131-15.08l28.948,5.283L1238.392,88.578z M1184.277,107.907l-12.254-2.627l19.047-22.425
		L1184.277,107.907z M1182.76,116.001l-2.464,24.043l-9.505-26.609L1182.76,116.001z"/>
	<path fill="#FFCC39" d="M1432.266,393.075c-10.021,0-21.108,1.497-32.065,4.326c-35.802,9.251-59.535,28.876-55.202,45.652
		l4.989,19.314c2.192,8.485,11.15,14.373,25.223,16.579c4.091,0.641,8.501,0.958,13.133,0.958c9.964,0,20.961-1.467,32.049-4.332
		c16.244-4.195,30.863-10.919,41.165-18.932c11.244-8.747,16.229-18.235,14.037-26.718l-4.989-19.314
		C1467.769,399.63,1453.437,393.075,1432.266,393.075z M1402.259,405.37c10.296-2.658,20.672-4.065,30.007-4.065
		c16.667,0,28.589,4.459,30.371,11.361c1.3,5.035-2.753,11.654-11.122,18.164c-9.436,7.338-22.991,13.539-38.169,17.459
		c-10.296,2.66-20.674,4.067-30.011,4.067c-16.663,0-28.585-4.461-30.367-11.361C1350.346,430.847,1369.945,413.719,1402.259,405.37
		z M1456.505,450.144c-9.436,7.338-22.991,13.539-38.169,17.459c-15.181,3.922-30.044,5.061-41.85,3.211
		c-10.475-1.642-17.228-5.471-18.528-10.505l-1.2-4.643c6.636,3.176,15.693,4.92,26.577,4.92c10.023,0,21.112-1.497,32.069-4.328
		c16.243-4.195,30.863-10.919,41.165-18.932c4.167-3.242,7.47-6.585,9.871-9.941l1.187,4.594
		C1468.927,437.015,1464.874,443.634,1456.505,450.144z"/>
	<path fill="#FFCC39" d="M1383.363,448.569c8.616,0,18.645-1.415,28.999-4.089c11.903-3.074,22.764-7.467,30.582-12.367
		c11.682-7.324,12.928-13.525,11.917-17.437c-1.129-4.372-5.97-9.583-22.619-9.583c-8.616,0-18.645,1.415-28.999,4.089
		c-22.665,5.855-45.632,17.678-42.499,29.804C1361.874,443.359,1366.714,448.569,1383.363,448.569z M1405.301,417.151
		c9.554-2.469,19.123-3.828,26.941-3.828c10.302,0,14.375,2.341,14.65,3.412c0.151,0.579-0.824,3.703-8.321,8.405
		c-7.121,4.463-17.16,8.501-28.267,11.371c-9.554,2.469-19.123,3.828-26.941,3.828c-10.302,0-14.375-2.341-14.65-3.41
		C1367.988,434.12,1379.911,423.709,1405.301,417.151z"/>
	<path fill="#FFCC39" d="M1291.774,288.988c-10.495,0-19.032,8.538-19.032,19.032c0,10.495,8.538,19.032,19.032,19.032
		s19.032-8.538,19.032-19.032C1310.806,297.525,1302.269,288.988,1291.774,288.988z M1291.774,318.822
		c-5.956,0-10.802-4.846-10.802-10.802s4.847-10.802,10.802-10.802c5.956,0,10.802,4.847,10.802,10.802
		S1297.73,318.822,1291.774,318.822z"/>
	<path fill="#FFCC39" d="M1087.001,245.875l29.997,11.351c0.472,0.179,0.967,0.267,1.457,0.267c0.01,0,0.026,0,0.04,0
		c2.275,0,4.115-1.843,4.115-4.115c0-0.43-0.064-0.844-0.187-1.234l-5.076-31.084c-0.237-1.451-1.23-2.666-2.604-3.185
		c-1.374-0.52-2.926-0.269-4.061,0.663l-24.829,20.304c-1.139,0.93-1.694,2.397-1.457,3.848
		C1084.634,244.141,1085.626,245.357,1087.001,245.875z M1110.373,229.421l2.871,17.586l-16.665-6.305L1110.373,229.421z"/>
	<path fill="#FFCC39" d="M1040.459,74.807c10.495,0,19.032-8.538,19.032-19.032s-8.538-19.032-19.032-19.032
		s-19.032,8.538-19.032,19.032S1029.964,74.807,1040.459,74.807z M1040.459,44.972c5.956,0,10.802,4.847,10.802,10.802
		s-4.846,10.802-10.802,10.802s-10.802-4.847-10.802-10.802S1034.503,44.972,1040.459,44.972z"/>
	<path fill="#FFCC39" d="M1506.777,308.896c0.794,0.735,1.798,1.101,2.803,1.101c1.103,0,2.202-0.44,3.014-1.312l16.46-17.698
		l20.365,13.016c1.672,1.071,3.874,0.79,5.23-0.665l18.799-20.21c1.547-1.664,1.453-4.268-0.211-5.817
		c-1.664-1.543-4.264-1.455-5.817,0.211l-16.46,17.698l-20.365-13.016c-1.674-1.071-3.874-0.788-5.23,0.665l-18.799,20.21
		C1505.018,304.743,1505.113,307.347,1506.777,308.896z"/>
	<path fill="#FFCC39" d="M1346.365,87.741c0.195,0.028,0.388,0.04,0.581,0.04c2.017,0,3.78-1.485,4.069-3.54l3.374-23.933
		l24.15-0.981c1.985-0.08,3.631-1.569,3.908-3.536l3.852-27.331c0.318-2.25-1.25-4.332-3.5-4.65c-2.236-0.324-4.332,1.25-4.65,3.5
		l-3.374,23.933l-24.15,0.981c-1.985,0.08-3.631,1.569-3.908,3.536l-3.852,27.331C1342.548,85.342,1344.115,87.424,1346.365,87.741z
		"/>
	<path fill="#FFCC39" d="M788,49.65c-0.237-1.451-1.23-2.666-2.604-3.185c-1.38-0.522-2.924-0.269-4.061,0.663l-24.829,20.304
		c-1.139,0.93-1.694,2.397-1.457,3.848c0.237,1.451,1.23,2.666,2.604,3.185l29.999,11.351c0.474,0.179,0.966,0.267,1.457,0.267
		c0.01,0,0.026-0.002,0.04,0c2.275,0,4.115-1.843,4.115-4.115c0-0.43-0.064-0.844-0.187-1.234L788,49.65z M767.232,69.291
		l13.796-11.28l2.871,17.586L767.232,69.291z"/>
	<path fill="#FFCC39" d="M839.893,409.268c-10.495,0-19.032,8.538-19.032,19.032s8.538,19.032,19.032,19.032
		s19.032-8.538,19.032-19.032S850.388,409.268,839.893,409.268z M839.893,439.103c-5.956,0-10.802-4.846-10.802-10.802
		s4.846-10.802,10.802-10.802c5.956,0,10.802,4.847,10.802,10.802S845.849,439.103,839.893,439.103z"/>
	<path fill="#FFCC39" d="M302.985,919.09l-80.307-30.514c-1.871-0.711-3.828-1.073-5.817-1.073c-6.763,0-12.92,4.248-15.321,10.571
		l-47.659,125.433c-1.555,4.091-1.425,8.544,0.37,12.536c1.794,3.993,5.037,7.049,9.13,8.602l80.307,30.514
		c1.871,0.711,3.828,1.073,5.817,1.073c6.763,0,12.92-4.248,15.321-10.571l47.659-125.433
		C315.693,931.781,311.433,922.299,302.985,919.09z M304.792,937.307l-47.657,125.433c-1.198,3.147-4.262,5.262-7.629,5.262
		c-0.987,0-1.961-0.181-2.895-0.534l-80.307-30.516c-2.037-0.774-3.651-2.295-4.543-4.282c-0.894-1.987-0.96-4.204-0.187-6.241
		l47.659-125.433c1.198-3.147,4.262-5.262,7.629-5.262c0.987,0,1.961,0.181,2.895,0.534l80.307,30.514
		C304.267,928.379,306.387,933.101,304.792,937.307z"/>
	<path fill="#FFCC39" d="M245.57,952.732c-0.081-1.149-1.478-1.68-2.302-0.875c-4.006,3.916-11.737,8.986-22.409,11.955
		c-20.183,5.613-21.329,24.29-11.363,30.995c7.324,4.928,13.922,2.395,17.093,0.549c-2.915,4.223-7.193,8.986-12.738,11.352
		c-1.12,0.478-1.057,2.094,0.081,2.527l7.734,2.939l7.735,2.939c1.138,0.432,2.258-0.734,1.739-1.836
		c-2.575-5.45-2.611-11.853-1.986-16.946c1.144,3.486,4.396,9.761,13.145,10.94c11.904,1.604,23.45-13.121,12.086-30.721
		C248.379,967.245,245.966,958.32,245.57,952.732z"/>
	<path fill="#FFCC39" d="M71.754,746.063c6.291-2.108,11.385-6.538,14.345-12.476c2.958-5.938,3.428-12.673,1.32-18.962
		c-3.398-10.143-12.86-16.957-23.547-16.957c-2.678,0-5.333,0.436-7.891,1.292c-6.291,2.108-11.385,6.538-14.345,12.476
		c-2.958,5.938-3.428,12.673-1.32,18.962c3.398,10.143,12.86,16.957,23.547,16.957C66.541,747.355,69.196,746.919,71.754,746.063z
		 M48.12,727.786c-1.409-4.208-1.095-8.71,0.882-12.681c1.979-3.97,5.385-6.932,9.591-8.341c1.716-0.575,3.49-0.866,5.279-0.866
		c7.145,0,13.471,4.557,15.743,11.339c1.409,4.208,1.095,8.71-0.882,12.681c-1.979,3.97-5.385,6.932-9.591,8.341
		c-1.716,0.575-3.49,0.866-5.279,0.866C56.718,739.124,50.392,734.567,48.12,727.786z"/>
	<path fill="#FFCC39" d="M132.486,787.963c-0.721-2.156-3.058-3.319-5.208-2.596l-8.647,2.895
		c-20.986-6.663-31.289-33.335-32.387-36.344l3.849-1.289c2.156-0.721,3.317-3.054,2.596-5.208
		c-0.723-2.154-3.054-3.321-5.208-2.596l-30.23,10.123c-2.156,0.721-3.317,3.054-2.596,5.208c0.577,1.722,2.18,2.811,3.902,2.811
		c0.432,0,0.874-0.07,1.306-0.215l3.851-1.289c0.933,3.034,8.823,30.498-3.967,48.519l-8.646,2.895
		c-2.156,0.721-3.317,3.054-2.596,5.208l6.175,18.444c0.346,1.035,1.089,1.891,2.068,2.377c0.575,0.287,1.204,0.432,1.835,0.432
		c0.44,0,0.882-0.07,1.306-0.213l76.18-25.51c1.035-0.346,1.891-1.091,2.377-2.068c0.486-0.977,0.565-2.106,0.219-3.141
		L132.486,787.963z M71.522,756.849l6.914-2.316c1.025,2.909,9.778,26.331,28.764,37.557l-36.027,12.065
		C79.571,783.76,72.455,759.79,71.522,756.849z M61.176,828.015l-3.563-10.639l62.353-20.882c0.013-0.004,0.026-0.009,0.039-0.013
		l5.982-2.003l3.565,10.639L61.176,828.015z"/>
	<path fill="#FFCC39" d="M670.651,713.136c0.089-0.233,0.155-0.472,0.201-0.72c0.016-0.086,0.037-0.17,0.047-0.256
		c0.038-0.318,0.051-0.642,0.011-0.974c-0.04-0.333-0.129-0.645-0.241-0.945c-0.031-0.082-0.071-0.158-0.107-0.238
		c-0.1-0.223-0.217-0.433-0.353-0.631c-0.035-0.052-0.053-0.112-0.091-0.163l-32.8-43.826c-0.88-1.175-2.321-1.788-3.784-1.622
		l-54.352,6.492c-0.058,0.007-0.109,0.033-0.166,0.043c-0.24,0.039-0.475,0.099-0.708,0.182c-0.086,0.03-0.172,0.055-0.256,0.091
		c-0.293,0.126-0.579,0.277-0.846,0.476c-0.269,0.201-0.495,0.435-0.7,0.682c-0.054,0.066-0.099,0.137-0.15,0.206
		c-0.149,0.205-0.277,0.42-0.384,0.646c-0.024,0.05-0.062,0.09-0.084,0.142l-21.554,50.318c-0.579,1.35-0.392,2.908,0.488,4.085
		l32.8,43.826c0.039,0.052,0.092,0.09,0.134,0.14c0.125,0.152,0.26,0.295,0.408,0.43c0.08,0.073,0.159,0.143,0.245,0.208
		c0.151,0.117,0.312,0.219,0.482,0.314c0.096,0.055,0.188,0.113,0.288,0.16c0.042,0.02,0.076,0.048,0.119,0.066
		c0.149,0.063,0.302,0.096,0.453,0.142c0.092,0.027,0.18,0.064,0.274,0.085c0.296,0.066,0.594,0.107,0.89,0.107
		c0.007,0,0.014-0.003,0.022-0.003c0.154-0.001,0.312-0.01,0.469-0.027l54.352-6.492c1.459-0.175,2.715-1.115,3.295-2.467
		l21.554-50.318C670.629,713.242,670.631,713.187,670.651,713.136z M659.258,708.431l-44.917,5.365l-27.105-36.217l44.916-5.364
		L659.258,708.431z M580.647,682.512l27.105,36.217L589.94,760.31l-27.106-36.216L580.647,682.512z M642.422,758.187l-44.915,5.364
		l17.811-41.581l44.916-5.365L642.422,758.187z"/>
	<circle fill="#FFCC39" cx="627.261" cy="683.635" r="4.811"/>
	<circle fill="#FFCC39" cx="638.66" cy="698.318" r="4.811"/>
	<circle fill="#FFCC39" cx="608.768" cy="685.513" r="4.811"/>
	<circle fill="#FFCC39" cx="619.716" cy="701.25" r="4.812"/>
	<circle fill="#FFCC39" cx="583.03" cy="708.331" r="4.811"/>
	<circle fill="#FFCC39" cx="587.279" cy="736.853" r="4.811"/>
	<circle fill="#FFCC39" cx="630.302" cy="742.27" r="4.811"/>
	<path fill="#FFCC39" d="M433.896,685.22c0.952-1.121,1.234-2.664,0.739-4.049l-18.416-51.549c-0.019-0.053-0.055-0.095-0.075-0.147
		c-0.095-0.236-0.211-0.461-0.35-0.678c-0.052-0.081-0.103-0.16-0.161-0.237c-0.149-0.2-0.32-0.386-0.509-0.561
		c-0.056-0.051-0.103-0.109-0.162-0.158c-0.02-0.016-0.033-0.036-0.053-0.052c-0.241-0.192-0.498-0.348-0.765-0.477
		c-0.05-0.025-0.104-0.039-0.156-0.061c-0.252-0.111-0.51-0.194-0.774-0.251c-0.046-0.01-0.086-0.034-0.132-0.043l-53.85-9.828
		c-0.029-0.005-0.057,0-0.085-0.004c-0.273-0.044-0.549-0.048-0.826-0.037c-0.064,0.003-0.129-0.009-0.193-0.003
		c-0.345,0.031-0.687,0.099-1.02,0.217c-0.331,0.119-0.637,0.28-0.921,0.473c-0.079,0.053-0.143,0.127-0.219,0.186
		c-0.196,0.154-0.386,0.311-0.551,0.496c-0.019,0.021-0.044,0.035-0.062,0.056l-35.437,41.722c-0.035,0.041-0.052,0.09-0.085,0.132
		c-0.156,0.198-0.292,0.411-0.411,0.638c-0.033,0.063-0.075,0.122-0.105,0.186c-0.122,0.267-0.222,0.548-0.286,0.846
		c-0.005,0.025-0.004,0.049-0.008,0.073c-0.015,0.074-0.015,0.149-0.025,0.224c-0.035,0.256-0.05,0.508-0.038,0.758
		c0.005,0.095,0.014,0.188,0.026,0.283c0.03,0.258,0.084,0.508,0.161,0.752c0.016,0.052,0.015,0.105,0.033,0.156l18.416,51.549
		c0.496,1.384,1.692,2.399,3.137,2.664l53.85,9.828c0.237,0.042,0.473,0.062,0.708,0.063c0.011,0,0.021,0.005,0.031,0.005
		c0.269,0,0.539-0.035,0.81-0.09c0.078-0.016,0.152-0.04,0.229-0.06c0.115-0.031,0.231-0.05,0.346-0.091
		c0.064-0.023,0.119-0.06,0.181-0.086c0.114-0.047,0.223-0.101,0.333-0.158c0.15-0.078,0.294-0.163,0.431-0.258
		c0.094-0.065,0.185-0.133,0.274-0.206c0.137-0.112,0.262-0.233,0.382-0.36c0.048-0.051,0.106-0.089,0.152-0.143L433.896,685.22z
		 M396.8,716.18l-3.812-10.669l22.798-11.685L396.8,716.18z M420.459,665.954l-17.14-17.042l7.634-9.566L420.459,665.954z
		 M385.129,695.745l-31.179-26.481l38.523-13.762L385.129,695.745z M351.888,661.261l9.029-33.297l28.082,20.039L351.888,661.261z
		 M349.151,675.986l29.726,25.246l-33.042,7.131L349.151,675.986z M400.447,657.662l23.081,22.949l-30.083,15.418L400.447,657.662z
		 M397.018,643.614l-21.13-15.078l28.946,5.283L397.018,643.614z M342.903,662.945l-12.254-2.627l19.047-22.425L342.903,662.945z
		 M341.385,671.039l-2.463,24.042l-9.506-26.608L341.385,671.039z M385.237,708.279l3.812,10.671l-28.854-5.266L385.237,708.279z"/>
	<path fill="#FFCC39" d="M541.988,1003.607c8.618,0,18.647-1.415,29.001-4.089c22.665-5.855,45.632-17.68,42.501-29.808
		c-1.129-4.37-5.972-9.581-22.619-9.581c-8.616,0-18.645,1.415-28.999,4.089c-22.665,5.855-45.632,17.68-42.501,29.806
		C520.5,998.395,525.34,1003.607,541.988,1003.607z M563.929,972.187c9.554-2.467,19.123-3.828,26.941-3.828
		c10.302,0,14.375,2.343,14.65,3.41c0.725,2.809-11.198,13.219-36.59,19.78c-9.554,2.467-19.123,3.828-26.943,3.828
		c-10.3,0-14.373-2.343-14.648-3.41C526.614,989.158,538.538,978.747,563.929,972.187z"/>
	<path fill="#FFCC39" d="M629.233,965.644c-2.835-10.977-17.168-17.531-38.338-17.531c-10.021,0-21.11,1.495-32.067,4.326
		c-16.243,4.195-30.861,10.919-41.163,18.932c-11.244,8.747-16.229,18.237-14.037,26.72l4.989,19.314
		c2.192,8.483,11.148,14.371,25.221,16.577c4.095,0.641,8.503,0.958,13.137,0.958c9.964,0,20.961-1.467,32.047-4.33
		c16.243-4.196,30.861-10.919,41.163-18.932c11.244-8.747,16.229-18.237,14.037-26.72L629.233,965.644z M522.718,977.867
		c9.434-7.338,22.989-13.539,38.167-17.459c10.296-2.66,20.672-4.065,30.009-4.065c16.667,0,28.587,4.459,30.369,11.359
		c1.3,5.035-2.753,11.656-11.122,18.166c-9.434,7.338-22.989,13.539-38.167,17.459c-10.296,2.66-20.672,4.065-30.009,4.065
		c-16.667,0-28.587-4.459-30.369-11.359C510.296,990.998,514.349,984.378,522.718,977.867z M615.131,1005.182
		c-9.434,7.338-22.989,13.539-38.167,17.459c-15.178,3.92-30.042,5.06-41.85,3.211c-10.475-1.644-17.228-5.471-18.528-10.505
		l-1.2-4.645c6.636,3.176,15.694,4.92,26.579,4.92c10.021,0,21.11-1.495,32.067-4.326c16.243-4.195,30.861-10.919,41.163-18.932
		c4.167-3.242,7.47-6.586,9.871-9.942l1.187,4.593C627.553,992.051,623.5,998.672,615.131,1005.182z"/>
	<path fill="#FFCC39" d="M450.402,844.026c-10.495,0-19.032,8.538-19.032,19.032s8.538,19.032,19.032,19.032
		c10.495,0,19.032-8.538,19.032-19.032S460.897,844.026,450.402,844.026z M450.402,873.86c-5.956,0-10.802-4.846-10.802-10.802
		c0-5.956,4.846-10.802,10.802-10.802s10.802,4.847,10.802,10.802C461.204,869.014,456.358,873.86,450.402,873.86z"/>
	<path fill="#FFCC39" d="M245.627,800.911l29.997,11.353c0.472,0.179,0.966,0.267,1.457,0.267c0.012-0.002,0.028-0.002,0.04,0
		c2.275,0,4.115-1.843,4.115-4.115c0-0.43-0.064-0.844-0.187-1.234l-5.076-31.084c-0.237-1.451-1.23-2.664-2.604-3.185
		c-1.374-0.52-2.926-0.267-4.061,0.663l-24.829,20.302c-1.139,0.93-1.694,2.397-1.457,3.848
		C243.26,799.177,244.253,800.391,245.627,800.911z M269,784.459l2.871,17.586l-16.665-6.307L269,784.459z"/>
	<path fill="#FFCC39" d="M218.117,610.812c0-10.495-8.538-19.032-19.032-19.032c-10.495,0-19.032,8.538-19.032,19.032
		s8.538,19.032,19.032,19.032C209.58,629.845,218.117,621.307,218.117,610.812z M188.283,610.812
		c0-5.956,4.847-10.802,10.802-10.802s10.802,4.846,10.802,10.802c0,5.956-4.847,10.802-10.802,10.802
		S188.283,616.768,188.283,610.812z"/>
	<path fill="#FFCC39" d="M726.048,832.56l-16.46,17.698l-20.367-13.018c-1.674-1.071-3.874-0.79-5.23,0.665l-18.799,20.21
		c-1.547,1.664-1.453,4.268,0.211,5.817c0.794,0.735,1.798,1.101,2.803,1.101c1.103,0,2.202-0.44,3.014-1.312l16.46-17.698
		l20.367,13.018c1.672,1.071,3.874,0.79,5.23-0.665l18.799-20.21c1.547-1.664,1.453-4.268-0.211-5.817
		C730.202,830.806,727.6,830.895,726.048,832.56z"/>
	<path fill="#FFCC39" d="M505.574,642.819c2.017,0,3.78-1.485,4.069-3.54l3.374-23.933l24.148-0.983
		c1.987-0.08,3.631-1.569,3.908-3.536l3.852-27.331c0.318-2.25-1.25-4.332-3.5-4.65c-2.236-0.307-4.332,1.25-4.65,3.5l-3.374,23.933
		l-24.148,0.983c-1.987,0.08-3.631,1.569-3.908,3.536l-3.852,27.331c-0.317,2.25,1.25,4.332,3.5,4.65
		C505.189,642.807,505.382,642.819,505.574,642.819z"/>
	<path fill="#FFCC39" d="M1144.359,919.09l-80.307-30.516c-1.871-0.709-3.83-1.071-5.817-1.071c-6.763,0-12.92,4.248-15.321,10.571
		l-47.659,125.433c-1.555,4.091-1.425,8.544,0.37,12.536c1.794,3.993,5.035,7.049,9.128,8.602l80.307,30.516
		c1.871,0.709,3.83,1.071,5.817,1.071c6.763,0,12.92-4.248,15.321-10.571l47.661-125.433
		C1157.066,931.781,1152.807,922.299,1144.359,919.09z M1146.166,937.307l-47.659,125.433c-1.198,3.147-4.262,5.262-7.63,5.262
		c-0.987,0-1.959-0.181-2.895-0.534l-80.307-30.514c-2.035-0.776-3.649-2.295-4.543-4.284c-0.892-1.987-0.958-4.204-0.185-6.241
		l47.659-125.433c1.198-3.147,4.262-5.262,7.629-5.262c0.987,0,1.959,0.181,2.896,0.534l80.307,30.514
		C1145.641,928.379,1147.761,933.101,1146.166,937.307z"/>
	<path fill="#FFCC39" d="M1086.944,952.732c-0.081-1.149-1.478-1.68-2.302-0.875c-4.007,3.916-11.738,8.986-22.409,11.955
		c-20.184,5.613-21.329,24.29-11.363,30.995c7.324,4.928,13.922,2.395,17.092,0.549c-2.913,4.223-7.192,8.986-12.737,11.352
		c-1.12,0.478-1.057,2.094,0.081,2.527l7.735,2.939l7.735,2.939c1.138,0.432,2.259-0.734,1.738-1.836
		c-2.575-5.45-2.611-11.853-1.985-16.946c1.144,3.486,4.395,9.761,13.144,10.94c11.904,1.604,23.45-13.121,12.087-30.721
		C1089.752,967.245,1087.339,958.32,1086.944,952.732z"/>
	<path fill="#FFCC39" d="M913.125,746.063c12.986-4.35,20.013-18.452,15.667-31.438c-3.398-10.143-12.86-16.957-23.547-16.957
		c-2.678,0-5.333,0.436-7.891,1.292c-6.291,2.108-11.385,6.538-14.345,12.476c-2.958,5.938-3.428,12.673-1.32,18.962
		c3.396,10.143,12.858,16.957,23.547,16.957C907.913,747.355,910.567,746.919,913.125,746.063z M889.494,727.786
		c-1.409-4.208-1.095-8.71,0.882-12.681c1.979-3.97,5.385-6.932,9.591-8.341c1.716-0.575,3.49-0.866,5.279-0.866
		c7.145,0,13.471,4.557,15.743,11.339c2.907,8.682-1.792,18.114-10.477,21.022c-1.714,0.575-3.488,0.866-5.274,0.866
		C898.089,739.124,891.764,734.567,889.494,727.786z"/>
	<path fill="#FFCC39" d="M973.859,787.963c-0.721-2.156-3.058-3.319-5.208-2.596l-8.648,2.896
		c-20.987-6.664-31.287-33.338-32.385-36.345l3.847-1.289c2.156-0.721,3.317-3.054,2.596-5.208
		c-0.723-2.154-3.062-3.321-5.208-2.596l-30.228,10.123c-2.156,0.721-3.317,3.054-2.596,5.208c0.577,1.722,2.18,2.811,3.902,2.811
		c0.432,0,0.874-0.07,1.306-0.215l3.85-1.289c0.932,3.06,8.773,30.558-3.966,48.517l-8.648,2.896
		c-1.035,0.346-1.891,1.089-2.377,2.068c-0.486,0.977-0.565,2.106-0.219,3.141l6.177,18.444c0.577,1.722,2.18,2.811,3.902,2.811
		c0.432,0,0.874-0.07,1.306-0.215l76.18-25.51c1.035-0.346,1.891-1.091,2.377-2.068c0.486-0.977,0.565-2.106,0.219-3.141
		L973.859,787.963z M912.894,756.849l6.915-2.316c1.026,2.906,9.776,26.33,28.764,37.558l-36.024,12.064
		C920.946,783.76,913.827,759.792,912.894,756.849z M902.55,828.015l-3.565-10.639l62.356-20.883
		c0.011-0.004,0.022-0.007,0.032-0.011l5.988-2.005l3.565,10.639L902.55,828.015z"/>
	<path fill="#FFCC39" d="M1512.025,713.136c0.088-0.233,0.156-0.472,0.201-0.72c0.016-0.086,0.037-0.17,0.047-0.256
		c0.038-0.318,0.051-0.642,0.011-0.974c-0.04-0.332-0.129-0.643-0.239-0.941c-0.032-0.085-0.075-0.166-0.113-0.25
		c-0.099-0.216-0.212-0.421-0.344-0.615c-0.037-0.055-0.056-0.118-0.096-0.171l-32.8-43.826c-0.882-1.175-2.309-1.788-3.784-1.622
		l-54.352,6.492c-0.058,0.007-0.11,0.034-0.168,0.043c-0.238,0.038-0.472,0.099-0.704,0.181c-0.087,0.031-0.175,0.055-0.259,0.092
		c-0.293,0.126-0.579,0.277-0.846,0.476c-0.268,0.201-0.495,0.435-0.7,0.682c-0.054,0.066-0.099,0.137-0.15,0.206
		c-0.149,0.205-0.276,0.42-0.384,0.646c-0.024,0.05-0.062,0.09-0.084,0.142l-21.554,50.318c-0.579,1.35-0.392,2.908,0.488,4.085
		l32.8,43.826c0.039,0.052,0.093,0.09,0.134,0.14c0.126,0.152,0.26,0.295,0.408,0.43c0.08,0.073,0.16,0.143,0.245,0.208
		c0.151,0.117,0.312,0.219,0.482,0.314c0.095,0.055,0.188,0.113,0.288,0.16c0.041,0.02,0.076,0.048,0.119,0.066
		c0.149,0.063,0.302,0.096,0.453,0.142c0.092,0.027,0.18,0.064,0.274,0.085c0.296,0.066,0.594,0.107,0.89,0.107
		c0.007,0,0.014-0.003,0.021-0.003c0.155-0.001,0.312-0.01,0.469-0.027l54.353-6.492c1.459-0.175,2.715-1.115,3.295-2.467
		l21.554-50.318C1512.003,713.242,1512.005,713.187,1512.025,713.136z M1500.632,708.431l-44.919,5.365l-27.104-36.217l44.917-5.364
		L1500.632,708.431z M1422.02,682.512l27.104,36.217l-17.81,41.581l-27.106-36.215L1422.02,682.512z M1483.796,758.187
		l-44.916,5.364l17.81-41.581l44.918-5.365L1483.796,758.187z"/>
	<circle fill="#FFCC39" cx="1468.634" cy="683.635" r="4.811"/>
	<circle fill="#FFCC39" cx="1480.033" cy="698.318" r="4.811"/>
	<circle fill="#FFCC39" cx="1450.141" cy="685.513" r="4.812"/>
	<circle fill="#FFCC39" cx="1461.089" cy="701.25" r="4.812"/>
	<circle fill="#FFCC39" cx="1424.403" cy="708.331" r="4.811"/>
	<circle fill="#FFCC39" cx="1428.652" cy="736.853" r="4.811"/>
	<circle fill="#FFCC39" cx="1471.676" cy="742.27" r="4.812"/>
	<path fill="#FFCC39" d="M1275.267,685.22c0.952-1.121,1.234-2.664,0.739-4.049l-18.413-51.549
		c-0.019-0.053-0.055-0.096-0.076-0.148c-0.093-0.234-0.208-0.457-0.346-0.673c-0.054-0.084-0.108-0.165-0.167-0.245
		c-0.147-0.196-0.314-0.378-0.499-0.55c-0.058-0.054-0.109-0.116-0.17-0.166c-0.019-0.016-0.033-0.036-0.052-0.051
		c-0.24-0.192-0.497-0.347-0.762-0.477c-0.052-0.025-0.109-0.04-0.162-0.063c-0.251-0.109-0.507-0.193-0.77-0.249
		c-0.046-0.01-0.086-0.035-0.133-0.043l-53.85-9.828c-0.028-0.005-0.057,0-0.085-0.004c-0.272-0.044-0.547-0.048-0.825-0.037
		c-0.064,0.003-0.13-0.009-0.193-0.003c-0.345,0.031-0.687,0.099-1.021,0.217c-0.331,0.119-0.637,0.28-0.921,0.473
		c-0.077,0.052-0.141,0.125-0.215,0.183c-0.197,0.154-0.389,0.312-0.554,0.499c-0.019,0.021-0.044,0.035-0.062,0.056l-35.437,41.722
		c-0.034,0.041-0.052,0.09-0.085,0.132c-0.156,0.198-0.292,0.411-0.411,0.638c-0.033,0.063-0.075,0.122-0.105,0.186
		c-0.122,0.267-0.222,0.548-0.286,0.846c-0.005,0.025-0.003,0.049-0.008,0.073c-0.014,0.074-0.014,0.149-0.025,0.224
		c-0.035,0.256-0.05,0.508-0.038,0.758c0.004,0.095,0.014,0.188,0.025,0.283c0.03,0.258,0.084,0.508,0.162,0.752
		c0.016,0.052,0.015,0.105,0.033,0.156l18.413,51.549c0.494,1.384,1.692,2.399,3.137,2.664l53.852,9.828
		c0.237,0.042,0.473,0.062,0.708,0.063c0.011,0,0.02,0.005,0.031,0.005c0.269,0,0.54-0.035,0.81-0.09
		c0.078-0.016,0.153-0.04,0.229-0.06c0.115-0.031,0.231-0.05,0.346-0.091c0.064-0.023,0.119-0.06,0.181-0.086
		c0.115-0.047,0.223-0.101,0.333-0.158c0.151-0.078,0.294-0.163,0.431-0.258c0.094-0.065,0.185-0.133,0.274-0.206
		c0.137-0.112,0.262-0.233,0.382-0.36c0.048-0.051,0.105-0.089,0.152-0.143L1275.267,685.22z M1238.174,716.18l-3.812-10.669
		l22.796-11.683L1238.174,716.18z M1261.831,665.952l-17.138-17.04l7.634-9.566L1261.831,665.952z M1226.503,695.745l-31.179-26.481
		l38.523-13.762L1226.503,695.745z M1193.261,661.261l9.029-33.297l28.082,20.039L1193.261,661.261z M1190.525,675.986
		l29.725,25.247l-33.043,7.131L1190.525,675.986z M1241.82,657.662l23.081,22.949l-30.083,15.418L1241.82,657.662z
		 M1238.392,643.614l-21.13-15.078l28.947,5.283L1238.392,643.614z M1184.277,662.945l-12.254-2.627l19.047-22.425L1184.277,662.945
		z M1182.76,671.039l-2.464,24.042l-9.505-26.608L1182.76,671.039z M1226.61,708.279l3.812,10.671l-28.855-5.266L1226.61,708.279z"
		/>
	<path fill="#FFCC39" d="M1383.361,1003.607c8.618,0,18.645-1.415,29.001-4.089c11.903-3.076,22.764-7.469,30.582-12.37
		c11.682-7.324,12.928-13.525,11.917-17.437c-1.129-4.37-5.97-9.583-22.617-9.583c-8.618,0-18.645,1.415-29.001,4.089
		c-22.665,5.855-45.63,17.682-42.499,29.806C1361.874,998.395,1366.714,1003.607,1383.361,1003.607z M1405.301,972.187
		c9.554-2.467,19.123-3.828,26.943-3.828c10.302,0,14.373,2.343,14.648,3.412c0.151,0.579-0.824,3.703-8.321,8.405
		c-7.121,4.463-17.16,8.503-28.267,11.373c-9.554,2.467-19.123,3.828-26.943,3.828c-10.302,0-14.373-2.343-14.648-3.41
		C1367.988,989.158,1379.911,978.747,1405.301,972.187z"/>
	<path fill="#FFCC39" d="M1470.607,965.644c-2.837-10.977-17.17-17.531-38.338-17.531c-10.021,0-21.11,1.495-32.067,4.326
		c-35.802,9.249-59.535,28.874-55.202,45.652l4.989,19.314c2.934,11.355,17.744,17.624,38.113,17.624
		c9.727,0,20.722-1.431,32.292-4.418c16.244-4.196,30.863-10.919,41.165-18.932c11.244-8.747,16.229-18.237,14.037-26.72
		L1470.607,965.644z M1402.259,960.408c10.296-2.66,20.672-4.065,30.009-4.065c16.665,0,28.587,4.459,30.369,11.359
		c1.3,5.035-2.753,11.656-11.122,18.166c-9.434,7.338-22.991,13.539-38.169,17.459c-10.296,2.66-20.672,4.065-30.009,4.065
		c-16.665,0-28.587-4.459-30.369-11.359C1350.346,985.882,1369.945,968.755,1402.259,960.408z M1456.505,1005.182
		c-9.434,7.338-22.991,13.539-38.169,17.459c-32.312,8.347-57.754,2.857-60.378-7.294l-1.2-4.645
		c6.636,3.176,15.695,4.92,26.579,4.92c10.021,0,21.11-1.495,32.067-4.326c16.243-4.195,30.863-10.919,41.165-18.932
		c4.167-3.242,7.47-6.586,9.871-9.942l1.187,4.593C1468.927,992.051,1464.874,998.672,1456.505,1005.182z"/>
	<path fill="#FFCC39" d="M1291.774,844.026c-10.495,0-19.032,8.538-19.032,19.032s8.538,19.032,19.032,19.032
		s19.032-8.538,19.032-19.032S1302.269,844.026,1291.774,844.026z M1291.774,873.86c-5.956,0-10.802-4.846-10.802-10.802
		c0-5.956,4.847-10.802,10.802-10.802c5.956,0,10.802,4.847,10.802,10.802C1302.576,869.014,1297.73,873.86,1291.774,873.86z"/>
	<path fill="#FFCC39" d="M1087.001,800.911l29.997,11.353c0.472,0.179,0.967,0.267,1.457,0.267c0.012-0.002,0.028-0.002,0.04,0
		c2.275,0,4.115-1.843,4.115-4.115c0-0.43-0.064-0.844-0.187-1.234l-5.076-31.084c-0.237-1.451-1.23-2.664-2.604-3.185
		c-1.374-0.52-2.926-0.267-4.061,0.663l-24.829,20.302c-1.139,0.93-1.694,2.397-1.457,3.848
		C1084.634,799.177,1085.626,800.391,1087.001,800.911z M1110.373,784.459l2.871,17.586l-16.665-6.307L1110.373,784.459z"/>
	<path fill="#FFCC39" d="M1059.491,610.812c0-10.495-8.538-19.032-19.032-19.032s-19.032,8.538-19.032,19.032
		s8.538,19.032,19.032,19.032S1059.491,621.307,1059.491,610.812z M1029.656,610.812c0-5.956,4.847-10.802,10.802-10.802
		s10.802,4.846,10.802,10.802c0,5.956-4.846,10.802-10.802,10.802S1029.656,616.768,1029.656,610.812z"/>
	<path fill="#FFCC39" d="M1567.42,832.56l-16.46,17.696l-20.365-13.016c-1.674-1.071-3.874-0.79-5.23,0.665l-18.799,20.21
		c-1.547,1.664-1.453,4.268,0.211,5.817c0.794,0.735,1.798,1.101,2.803,1.101c1.103,0,2.202-0.44,3.014-1.312l16.46-17.696
		l20.365,13.016c1.672,1.071,3.874,0.79,5.23-0.665l18.799-20.21c1.547-1.664,1.453-4.268-0.211-5.817
		C1571.573,830.806,1568.973,830.895,1567.42,832.56z"/>
	<path fill="#FFCC39" d="M1346.946,642.819c2.017,0,3.78-1.485,4.069-3.54l3.374-23.933l24.15-0.983
		c1.987-0.08,3.631-1.569,3.908-3.536l3.852-27.331c0.318-2.25-1.25-4.332-3.5-4.65c-2.236-0.307-4.332,1.25-4.65,3.5l-3.374,23.933
		l-24.15,0.983c-1.987,0.08-3.631,1.569-3.908,3.536l-3.852,27.331c-0.318,2.25,1.25,4.332,3.5,4.65
		C1346.56,642.807,1346.753,642.819,1346.946,642.819z"/>
	<path fill="#FFCC39" d="M788,604.688c-0.237-1.451-1.23-2.666-2.604-3.185c-1.374-0.52-2.924-0.269-4.061,0.663l-24.829,20.302
		c-1.139,0.93-1.694,2.397-1.457,3.848c0.237,1.451,1.23,2.664,2.604,3.185l29.999,11.353c0.472,0.179,0.966,0.267,1.457,0.267
		c0.01,0,0.026,0,0.04,0c2.275,0,4.115-1.843,4.115-4.115c0-0.43-0.064-0.844-0.187-1.234L788,604.688z M767.232,624.327
		l13.796-11.278l2.871,17.586L767.232,624.327z"/>
	<path fill="#FFCC39" d="M839.893,964.306c-10.495,0-19.032,8.538-19.032,19.032c0,10.495,8.538,19.032,19.032,19.032
		s19.032-8.538,19.032-19.032C858.926,972.844,850.388,964.306,839.893,964.306z M839.893,994.141
		c-5.956,0-10.802-4.846-10.802-10.802c0-5.956,4.846-10.802,10.802-10.802c5.956,0,10.802,4.846,10.802,10.802
		C850.695,989.294,845.849,994.141,839.893,994.141z"/>
	<path fill="#FFCC39" d="M57.455,491.816c1.955-0.358,3.376-2.062,3.374-4.051l-0.022-27.602c-0.002-2.271-1.845-4.111-4.115-4.111
		c-0.002,0-0.002,0-0.004,0c-2.273,0.002-4.113,1.847-4.111,4.119l0.02,24.17l-23.772,4.36c-1.955,0.358-3.376,2.062-3.374,4.051
		l0.022,27.602c0.002,2.271,1.845,4.111,4.115,4.111c0.002,0,0.002,0,0.004,0c2.273-0.002,4.113-1.847,4.111-4.119l-0.02-24.17
		L57.455,491.816z"/>
	<path fill="#FFCC39" d="M1551.295,527.315c-1.374-0.52-2.926-0.267-4.061,0.661l-24.831,20.302
		c-1.139,0.932-1.694,2.399-1.457,3.85c0.237,1.451,1.23,2.664,2.604,3.185l29.999,11.353c0.472,0.179,0.966,0.267,1.457,0.267
		c0.012,0,0.024,0,0.04,0c2.275,0,4.115-1.843,4.115-4.115c0-0.43-0.064-0.844-0.187-1.234l-5.076-31.084
		C1553.662,529.049,1552.67,527.835,1551.295,527.315z M1533.131,550.139l13.794-11.278l2.871,17.586L1533.131,550.139z"/>
</g>
</svg>
