<?xml version="1.0" encoding="utf-8"?>
<!-- Generator: Adobe Illustrator 17.1.0, SVG Export Plug-In . SVG Version: 6.00 Build 0)  -->
<!DOCTYPE svg PUBLIC "-//W3C//DTD SVG 1.1//EN" "http://www.w3.org/Graphics/SVG/1.1/DTD/svg11.dtd">
<svg version="1.1" id="Layer_1" xmlns="http://www.w3.org/2000/svg" xmlns:xlink="http://www.w3.org/1999/xlink" x="0px" y="0px"
	 viewBox="100 135 1200 550" enable-background="new 100 135 1200 550" xml:space="preserve">
<g>
	<g>
		
			<path fill="#FCFAF2" stroke="#273B68" stroke-width="13.542" stroke-linecap="round" stroke-linejoin="round" stroke-miterlimit="10" d="
			M1184.496,424.844l-115.658-44.14c-8.861-3.382-13.303-13.307-9.921-22.168l44.14-115.658c3.382-8.861,13.307-13.303,22.168-9.921
			l115.658,44.14c8.861,3.382,13.303,13.307,9.921,22.168l-44.141,115.658C1203.281,423.784,1193.357,428.225,1184.496,424.844z"/>
		<g>
			
				<polyline fill="none" stroke="#273B68" stroke-width="9.028" stroke-linecap="round" stroke-linejoin="round" stroke-miterlimit="10" points="
				1160.594,375.548 1119.505,359.866 1149.126,282.252 1190.216,297.934 			"/>
			
				<line fill="none" stroke="#273B68" stroke-width="9.028" stroke-linecap="round" stroke-linejoin="round" stroke-miterlimit="10" x1="1134.315" y1="321.059" x2="1163.611" y2="332.24"/>
		</g>
	</g>
	<g>
		
			<path fill="#FCFAF2" stroke="#273B68" stroke-width="13.542" stroke-linecap="round" stroke-linejoin="round" stroke-miterlimit="10" d="
			M1029.897,556.907L912.4,595.887c-9.002,2.986-18.72-1.89-21.707-10.892l-38.98-117.497c-2.986-9.002,1.89-18.72,10.892-21.707
			l117.497-38.98c9.002-2.986,18.72,1.89,21.707,10.892l38.98,117.497C1043.776,544.202,1038.899,553.921,1029.897,556.907z"/>
		
			<line fill="none" stroke="#273B68" stroke-width="9.028" stroke-linecap="round" stroke-linejoin="round" stroke-miterlimit="10" x1="933.172" y1="461.925" x2="959.33" y2="540.773"/>
	</g>
	<g>
		
			<path fill="#FCFAF2" stroke="#273B68" stroke-width="13.542" stroke-linecap="round" stroke-linejoin="round" stroke-miterlimit="10" d="
			M1077.203,335.65l-120.946,26.402c-9.266,2.023-18.418-3.849-20.44-13.115L909.413,227.99
			c-2.023-9.266,3.849-18.418,13.115-20.441l120.946-26.402c9.266-2.023,18.418,3.849,20.441,13.115l26.402,120.946
			C1092.341,324.475,1086.469,333.627,1077.203,335.65z"/>
		
			<polyline fill="none" stroke="#273B68" stroke-width="9.028" stroke-linecap="round" stroke-linejoin="round" stroke-miterlimit="10" points="
			969.522,235.708 987.24,316.871 1030.209,307.491 		"/>
	</g>
	<g>
		
			<path fill="#FCFAF2" stroke="#273B68" stroke-width="13.542" stroke-linecap="round" stroke-linejoin="round" stroke-miterlimit="10" d="
			M1126.815,623.32l-116.238-42.59c-8.905-3.263-13.48-13.127-10.217-22.033l42.59-116.238c3.263-8.905,13.127-13.48,22.033-10.217
			l116.238,42.59c8.905,3.263,13.48,13.127,10.217,22.033l-42.59,116.238C1145.585,622.009,1135.721,626.583,1126.815,623.32z"/>
		<g>
			
				<line fill="none" stroke="#273B68" stroke-width="9.028" stroke-linecap="round" stroke-linejoin="round" stroke-miterlimit="10" x1="1084.38" y1="479.323" x2="1055.799" y2="557.327"/>
			
				<path fill="none" stroke="#273B68" stroke-width="9.028" stroke-linecap="round" stroke-linejoin="round" stroke-miterlimit="10" d="
				M1116.499,491.092l-32.119-11.769l-14.29,39.002l32.119,11.769c10.77,3.946,22.7-1.586,26.646-12.356
				C1132.801,506.968,1127.269,495.038,1116.499,491.092z"/>
		</g>
	</g>
	<g>
		
			<path fill="#FCFAF2" stroke="#273B68" stroke-width="13.542" stroke-linecap="round" stroke-linejoin="round" stroke-miterlimit="10" d="
			M897.271,392.927l-123.036-13.686c-9.426-1.049-16.218-9.54-15.169-18.966l13.686-123.036c1.049-9.426,9.54-16.218,18.966-15.169
			l123.036,13.686c9.426,1.049,16.218,9.54,15.169,18.966l-13.686,123.036C915.189,387.184,906.697,393.975,897.271,392.927z"/>
		<g>
			
				<path fill="none" stroke="#273B68" stroke-width="9.028" stroke-linecap="round" stroke-linejoin="round" stroke-miterlimit="10" d="
				M855.765,266.958l-33.997-3.782l-4.592,41.283l33.997,3.782c11.4,1.268,21.669-6.946,22.937-18.345
				C875.378,278.496,867.164,268.226,855.765,266.958z"/>
			
				<path fill="none" stroke="#273B68" stroke-width="9.028" stroke-linecap="round" stroke-linejoin="round" stroke-miterlimit="10" d="
				M851.173,308.241l-33.997-3.782l-4.592,41.283l33.997,3.782c11.4,1.268,21.669-6.946,22.937-18.345
				C870.786,319.778,862.572,309.509,851.173,308.241z"/>
		</g>
	</g>
	<g>
		
			<path fill="#FCFAF2" stroke="#273B68" stroke-width="13.542" stroke-linecap="round" stroke-linejoin="round" stroke-miterlimit="10" d="
			M774.672,322.565l-119.424,32.603c-9.15,2.498-18.592-2.894-21.09-12.044L601.555,223.7c-2.498-9.15,2.894-18.592,12.044-21.09
			l119.424-32.603c9.15-2.498,18.592,2.894,21.09,12.044l32.603,119.424C789.214,310.625,783.821,320.067,774.672,322.565z"/>
		<g>
			
				<polyline fill="none" stroke="#273B68" stroke-width="9.028" stroke-linecap="round" stroke-linejoin="round" stroke-miterlimit="10" points="
				669.62,312.338 683.196,222.517 740.53,292.979 			"/>
			
				<line fill="none" stroke="#273B68" stroke-width="9.028" stroke-linecap="round" stroke-linejoin="round" stroke-miterlimit="10" x1="673.014" y1="289.882" x2="726.196" y2="275.363"/>
		</g>
	</g>
	<g>
		
			<path fill="#FCFAF2" stroke="#273B68" stroke-width="13.542" stroke-linecap="round" stroke-linejoin="round" stroke-miterlimit="10" d="
			M588.542,394.725l-121.058-25.887c-9.275-1.983-15.186-11.11-13.202-20.384l25.887-121.058
			c1.983-9.275,11.11-15.186,20.384-13.202l121.058,25.887c9.275,1.983,15.186,11.11,13.202,20.384l-25.887,121.058
			C606.944,390.797,597.817,396.708,588.542,394.725z"/>
		<g>
			
				<line fill="none" stroke="#273B68" stroke-width="9.028" stroke-linecap="round" stroke-linejoin="round" stroke-miterlimit="10" x1="521.407" y1="257.034" x2="585.061" y2="270.646"/>
			
				<line fill="none" stroke="#273B68" stroke-width="9.028" stroke-linecap="round" stroke-linejoin="round" stroke-miterlimit="10" x1="553.265" y1="263.847" x2="535.831" y2="345.071"/>
		</g>
	</g>
	<g>
		
			<path fill="#FCFAF2" stroke="#273B68" stroke-width="13.542" stroke-linecap="round" stroke-linejoin="round" stroke-miterlimit="10" d="
			M720.956,555.247l-112.088,52.55c-8.588,4.026-18.813,0.328-22.839-8.259l-52.55-112.088c-4.026-8.587-0.328-18.813,8.259-22.839
			l112.088-52.55c8.588-4.026,18.813-0.328,22.839,8.259l52.55,112.088C733.241,540.996,729.543,551.221,720.956,555.247z"/>
		<g>
			
				<polyline fill="none" stroke="#273B68" stroke-width="9.028" stroke-linecap="round" stroke-linejoin="round" stroke-miterlimit="10" points="
				629.069,556.873 593.804,481.655 633.626,462.986 			"/>
			
				<line fill="none" stroke="#273B68" stroke-width="9.028" stroke-linecap="round" stroke-linejoin="round" stroke-miterlimit="10" x1="611.436" y1="519.264" x2="639.828" y2="505.954"/>
		</g>
	</g>
	<g>
		
			<path fill="#FCFAF2" stroke="#273B68" stroke-width="13.542" stroke-linecap="round" stroke-linejoin="round" stroke-miterlimit="10" d="
			M823.585,607.737l-119.118-33.703c-9.126-2.582-14.431-12.074-11.849-21.2l33.703-119.118c2.582-9.126,12.074-14.431,21.2-11.849
			l119.118,33.703c9.126,2.582,14.431,12.074,11.849,21.2l-33.703,119.118C842.203,605.014,832.711,610.319,823.585,607.737z"/>
		
			<polyline fill="none" stroke="#273B68" stroke-width="9.028" stroke-linecap="round" stroke-linejoin="round" stroke-miterlimit="10" points="
			775.702,468.847 753.085,548.783 795.404,560.757 		"/>
	</g>
	<g>
		
			<path fill="#FCFAF2" stroke="#273B68" stroke-width="9.028" stroke-linecap="round" stroke-linejoin="round" stroke-miterlimit="10" d="
			M265.213,602.158c0,32.35-23.968,48.446-56.318,48.446s-60.832-16.096-60.832-48.446s26.225-58.575,58.575-58.575
			S265.213,569.808,265.213,602.158z"/>
		<g>
			<circle fill="#273B68" cx="212.237" cy="595.549" r="6.684"/>
			<circle fill="#273B68" cx="245.479" cy="595.549" r="6.684"/>
		</g>
		
			<path fill="none" stroke="#273B68" stroke-width="9.028" stroke-linecap="round" stroke-linejoin="round" stroke-miterlimit="10" d="
			M167.622,585.516c15.014-5.327,29.648-23.574,36.269-21.644c7.428,2.166-10.958,31.034-30.706,35.769"/>
		
			<path fill="none" stroke="#273B68" stroke-width="9.028" stroke-linecap="round" stroke-linejoin="round" stroke-miterlimit="10" d="
			M257.783,573.594c10.195,0.837,19.976-17.634,24.322-12.761c4.765,5.343-7.355,24.963-18.408,28.033"/>
		
			<path fill="none" stroke="#273B68" stroke-width="9.028" stroke-linecap="round" stroke-linejoin="round" stroke-miterlimit="10" d="
			M317.601,569.851c0,0,18.922-28.371,55.76-27.773"/>
		<path fill="#273B68" d="M215.967,619.074c0-7.119,5.771-12.89,12.89-12.89c7.119,0,12.89,5.771,12.89,12.89H215.967z"/>
		<g>
			
				<line fill="none" stroke="#273B68" stroke-width="9.028" stroke-linecap="round" stroke-linejoin="round" stroke-miterlimit="10" x1="379.566" y1="436.794" x2="497.92" y2="612.426"/>
			<g>
				
					<line fill="none" stroke="#273B68" stroke-width="9.028" stroke-linecap="round" stroke-linejoin="round" stroke-miterlimit="10" x1="397.576" y1="463.52" x2="371.104" y2="481.359"/>
				
					<line fill="none" stroke="#273B68" stroke-width="9.028" stroke-linecap="round" stroke-linejoin="round" stroke-miterlimit="10" x1="479.909" y1="585.699" x2="453.437" y2="603.538"/>
			</g>
		</g>
	</g>
</g>
</svg>
