<?xml version="1.0" encoding="utf-8"?>
<!-- Generator: Adobe Illustrator 17.1.0, SVG Export Plug-In . SVG Version: 6.00 Build 0)  -->
<!DOCTYPE svg PUBLIC "-//W3C//DTD SVG 1.1//EN" "http://www.w3.org/Graphics/SVG/1.1/DTD/svg11.dtd">
<svg version="1.1" id="Layer_1" xmlns="http://www.w3.org/2000/svg" xmlns:xlink="http://www.w3.org/1999/xlink" x="0px" y="0px"
	 viewBox="0 0 500 375" enable-background="new 0 0 500 375" xml:space="preserve">
<g>
	<g>
		
			<line fill="none" stroke="#273C69" stroke-width="7.1669" stroke-linecap="round" stroke-linejoin="round" stroke-miterlimit="10" x1="116.57" y1="135.959" x2="148.052" y2="140.6"/>
		
			<line fill="none" stroke="#273C69" stroke-width="7.1669" stroke-linecap="round" stroke-linejoin="round" stroke-miterlimit="10" x1="132.326" y1="138.282" x2="126.373" y2="178.455"/>
	</g>
	<g>
		
			<path fill="none" stroke="#273C69" stroke-width="7.1669" stroke-linecap="round" stroke-linejoin="round" stroke-miterlimit="10" d="
			M246.218,131.544l-15.607,6.006l7.293,18.951l15.607-6.006c5.233-2.014,7.843-7.889,5.829-13.122
			C257.327,132.14,251.452,129.53,246.218,131.544z"/>
		
			<path fill="none" stroke="#273C69" stroke-width="7.1669" stroke-linecap="round" stroke-linejoin="round" stroke-miterlimit="10" d="
			M253.512,150.496l-15.607,6.006l7.293,18.951l15.607-6.006c5.233-2.014,7.843-7.889,5.829-13.122
			C264.62,151.091,258.745,148.482,253.512,150.496z"/>
	</g>
	
		<polyline fill="none" stroke="#273C69" stroke-width="7.1669" stroke-linecap="round" stroke-linejoin="round" stroke-miterlimit="10" points="
		307.981,145.787 297.699,185.076 318.499,190.519 	"/>
	<g>
		
			<polyline fill="none" stroke="#273C69" stroke-width="7.1669" stroke-linecap="round" stroke-linejoin="round" stroke-miterlimit="10" points="
			382.976,177.681 362.436,184.038 350.429,145.242 370.969,138.885 		"/>
		
			<line fill="none" stroke="#273C69" stroke-width="7.1669" stroke-linecap="round" stroke-linejoin="round" stroke-miterlimit="10" x1="356.433" y1="164.64" x2="371.077" y2="160.108"/>
	</g>
	<g>
		
			<polyline fill="none" stroke="#273C69" stroke-width="7.1669" stroke-linecap="round" stroke-linejoin="round" stroke-miterlimit="10" points="
			152.664,261.525 145.051,221.633 166.171,217.602 		"/>
		
			<line fill="none" stroke="#273C69" stroke-width="7.1669" stroke-linecap="round" stroke-linejoin="round" stroke-miterlimit="10" x1="148.858" y1="241.579" x2="163.915" y2="238.706"/>
	</g>
	
		<polyline fill="none" stroke="#273C69" stroke-width="7.1669" stroke-linecap="round" stroke-linejoin="round" stroke-miterlimit="10" points="
		216.397,220.967 203.785,259.571 224.222,266.249 	"/>
	
		<line fill="none" stroke="#273C69" stroke-width="7.1669" stroke-linecap="round" stroke-linejoin="round" stroke-miterlimit="10" x1="265.38" y1="207.538" x2="274.18" y2="247.185"/>
	<g>
		
			<line fill="none" stroke="#273C69" stroke-width="7.1669" stroke-linecap="round" stroke-linejoin="round" stroke-miterlimit="10" x1="331.37" y1="219.429" x2="319.123" y2="258.151"/>
		
			<path fill="none" stroke="#273C69" stroke-width="7.1669" stroke-linecap="round" stroke-linejoin="round" stroke-miterlimit="10" d="
			M347.314,224.472l-15.944-5.043l-6.123,19.361l15.944,5.043c5.346,1.691,11.051-1.272,12.742-6.619
			C355.624,231.868,352.66,226.163,347.314,224.472z"/>
	</g>
	<g>
		
			<path fill="none" stroke="#273C69" stroke-width="7.1669" stroke-linecap="round" stroke-linejoin="round" stroke-miterlimit="10" d="
			M208.61,186.904l-6.707-25.832c-1.932-7.443-9.533-11.91-16.976-9.978c-7.443,1.932-11.91,9.533-9.978,16.976l6.707,25.832"/>
		
			<line fill="none" stroke="#273C69" stroke-width="7.1669" stroke-linecap="round" stroke-linejoin="round" stroke-miterlimit="10" x1="178.054" y1="180.028" x2="205.008" y2="173.03"/>
	</g>
	<g>
		
			<path fill="none" stroke="#273C69" stroke-width="4.7779" stroke-linecap="round" stroke-linejoin="round" stroke-miterlimit="10" d="
			M429.553,310.324l-45.345-20.764c-3.578-1.638-5.15-5.867-3.512-9.444l32.432-70.824c1.638-3.578,5.867-5.15,9.444-3.511
			l45.345,20.764c3.578,1.638,5.15,5.867,3.512,9.444l-32.432,70.824C437.359,310.39,433.131,311.962,429.553,310.324z"/>
		<path fill="#273C69" d="M438.55,255.788c-3.122-5.621-4.177-10.884-4.191-14.136c-0.003-0.669-0.792-1.03-1.3-0.595
			c-2.471,2.114-7.145,4.754-13.44,6.062c-11.907,2.475-13.289,13.25-7.774,17.517c4.053,3.136,7.972,1.923,9.88,0.975
			c-1.851,2.334-4.512,4.929-7.815,6.086c-0.667,0.234-0.693,1.173-0.05,1.467l4.367,2l4.367,2c0.643,0.294,1.337-0.339,1.078-0.996
			c-1.282-3.256-1.056-6.966-0.498-9.892c0.529,2.064,2.171,5.824,7.193,6.843C437.201,274.505,444.456,266.42,438.55,255.788z"/>
	</g>
	<g>
		
			<circle fill="none" stroke="#273C69" stroke-width="4.7779" stroke-linecap="round" stroke-linejoin="round" stroke-miterlimit="10" cx="39.955" cy="135.645" r="12.03"/>
		<g>
			
				<path fill="none" stroke="#273C69" stroke-width="4.7779" stroke-linecap="round" stroke-linejoin="round" stroke-miterlimit="10" d="
				M40.715,156.274c0,0,5.001,19.352-5.082,30.837"/>
			<g>
				
					<path fill="none" stroke="#273C69" stroke-width="4.7779" stroke-linecap="round" stroke-linejoin="round" stroke-miterlimit="10" d="
					M49.428,153.986c0,0,5.153,19.312,19.579,24.361"/>
			</g>
		</g>
		
			<line fill="none" stroke="#273C69" stroke-width="4.7779" stroke-linecap="round" stroke-linejoin="round" stroke-miterlimit="10" x1="35.557" y1="155.332" x2="53.458" y2="150.631"/>
		
			<rect x="30.435" y="182.544" transform="matrix(-0.9672 0.254 -0.254 -0.9672 153.548 356.5514)" fill="none" stroke="#273C69" stroke-width="4.7779" stroke-linecap="round" stroke-linejoin="round" stroke-miterlimit="10" width="46.638" height="11.291"/>
	</g>
	<g>
		
			<polygon fill="none" stroke="#273C69" stroke-width="4.7779" stroke-linecap="round" stroke-linejoin="round" stroke-miterlimit="10" points="
			53.553,299.065 36.239,272.417 50.66,244.099 82.394,242.429 99.708,269.077 85.287,297.395 		"/>
		
			<polyline fill="none" stroke="#273C69" stroke-width="4.7779" stroke-linecap="round" stroke-linejoin="round" stroke-miterlimit="10" points="
			50.66,244.099 67.973,270.747 99.708,269.077 		"/>
		
			<line fill="none" stroke="#273C69" stroke-width="4.7779" stroke-linecap="round" stroke-linejoin="round" stroke-miterlimit="10" x1="67.973" y1="270.747" x2="53.553" y2="299.065"/>
		<circle fill="#273C69" cx="77.87" cy="251.314" r="2.793"/>
		<g>
			<circle fill="#273C69" cx="83.908" cy="260.258" r="2.793"/>
			<circle fill="#273C69" cx="67.085" cy="251.691" r="2.793"/>
		</g>
		<circle fill="#273C69" cx="72.821" cy="261.227" r="2.793"/>
		<circle fill="#273C69" cx="51.298" cy="263.918" r="2.793"/>
		<circle fill="#273C69" cx="52.662" cy="280.603" r="2.793"/>
		<circle fill="#273C69" cx="77.376" cy="285.396" r="2.793"/>
	</g>
	<g>
		
			<polygon fill="none" stroke="#273C69" stroke-width="4.7779" stroke-linecap="round" stroke-linejoin="round" stroke-miterlimit="10" points="
			286.711,91.01 255.896,83.246 247.212,52.677 269.344,29.873 300.159,37.637 308.843,68.206 		"/>
		
			<polygon fill="none" stroke="#273C69" stroke-width="4.7779" stroke-linecap="round" stroke-linejoin="round" stroke-miterlimit="10" points="
			260.23,56.385 283.211,78.687 291.035,47.634 		"/>
		
			<polygon fill="none" stroke="#273C69" stroke-width="4.7779" stroke-linecap="round" stroke-linejoin="round" stroke-miterlimit="10" points="
			291.035,47.634 269.344,29.873 260.23,56.385 255.75,82.732 283.211,78.687 308.697,67.691 		"/>
		
			<line fill="none" stroke="#273C69" stroke-width="4.7779" stroke-linecap="round" stroke-linejoin="round" stroke-miterlimit="10" x1="260.23" y1="56.385" x2="247.212" y2="52.677"/>
		
			<line fill="none" stroke="#273C69" stroke-width="4.7779" stroke-linecap="round" stroke-linejoin="round" stroke-miterlimit="10" x1="291.035" y1="47.634" x2="300.159" y2="37.637"/>
		
			<line fill="none" stroke="#273C69" stroke-width="4.7779" stroke-linecap="round" stroke-linejoin="round" stroke-miterlimit="10" x1="283.211" y1="78.687" x2="286.711" y2="91.01"/>
	</g>
	<g>
		
			<ellipse transform="matrix(0.9827 -0.1854 0.1854 0.9827 -54.6582 50.2668)" fill="none" stroke="#273C69" stroke-width="4.7779" stroke-linecap="round" stroke-linejoin="round" stroke-miterlimit="10" cx="241.445" cy="317.388" rx="35.267" ry="15.256"/>
		
			<ellipse transform="matrix(0.9827 -0.1854 0.1854 0.9827 -54.6582 50.2668)" fill="none" stroke="#273C69" stroke-width="4.7779" stroke-linecap="round" stroke-linejoin="round" stroke-miterlimit="10" cx="241.445" cy="317.388" rx="25.827" ry="8.193"/>
		
			<path fill="none" stroke="#273C69" stroke-width="4.7779" stroke-linecap="round" stroke-linejoin="round" stroke-miterlimit="10" d="
			M276.101,310.85l2.147,11.38c1.562,8.28-12.687,17.919-31.827,21.53s-35.922-0.173-37.484-8.453l-2.147-11.38"/>
	</g>
	
		<circle fill="none" stroke="#273C69" stroke-width="4.7779" stroke-linecap="round" stroke-linejoin="round" stroke-miterlimit="10" cx="385.759" cy="69.711" r="8.66"/>
	
		<polygon fill="none" stroke="#273C69" stroke-width="4.7779" stroke-linecap="round" stroke-linejoin="round" stroke-miterlimit="10" points="
		325.78,316.753 340.944,305.947 342.72,324.482 	"/>
	
		<polygon fill="none" stroke="#273C69" stroke-width="4.7779" stroke-linecap="round" stroke-linejoin="round" stroke-miterlimit="10" points="
		83.029,84.005 83.789,65.401 99.521,75.361 	"/>
	
		<circle fill="none" stroke="#273C69" stroke-width="4.7779" stroke-linecap="round" stroke-linejoin="round" stroke-miterlimit="10" cx="171.23" cy="84.032" r="8.66"/>
	
		<polyline fill="none" stroke="#273C69" stroke-width="4.7779" stroke-linecap="round" stroke-linejoin="round" stroke-miterlimit="10" points="
		134.84,333.928 135.889,317.939 151.806,316.099 152.855,300.109 	"/>
	
		<polyline fill="none" stroke="#273C69" stroke-width="4.7779" stroke-linecap="round" stroke-linejoin="round" stroke-miterlimit="10" points="
		427.211,158.223 430.494,142.539 446.512,142.951 449.795,127.268 	"/>
</g>
</svg>
