<?xml version="1.0" encoding="utf-8"?>
<!-- Generator: Adobe Illustrator 17.1.0, SVG Export Plug-In . SVG Version: 6.00 Build 0)  -->
<!DOCTYPE svg PUBLIC "-//W3C//DTD SVG 1.1//EN" "http://www.w3.org/Graphics/SVG/1.1/DTD/svg11.dtd">
<svg version="1.1" id="Layer_1" xmlns="http://www.w3.org/2000/svg" xmlns:xlink="http://www.w3.org/1999/xlink" x="0px" y="0px"
	 viewBox="125 160 1150 500" enable-background="new 125 160 1150 500" xml:space="preserve">
<g>
	
		<path fill="#FCFAF2" stroke="#273B68" stroke-width="8.5619" stroke-linecap="round" stroke-linejoin="round" stroke-miterlimit="10" d="
		M324.014,570.014c0,30.68-22.73,45.945-53.41,45.945s-57.691-15.265-57.691-45.945c0-30.68,24.871-55.551,55.551-55.551
		S324.014,539.334,324.014,570.014z"/>
	<g>
		<circle fill="#273B68" cx="273.773" cy="563.747" r="6.339"/>
		<circle fill="#273B68" cx="305.299" cy="563.747" r="6.339"/>
	</g>
	
		<path fill="none" stroke="#273B68" stroke-width="8.5619" stroke-linecap="round" stroke-linejoin="round" stroke-miterlimit="10" d="
		M231.462,554.232c14.239-5.052,28.117-22.357,34.397-20.526c7.045,2.054-10.392,29.432-29.121,33.922"/>
	
		<path fill="none" stroke="#273B68" stroke-width="8.5619" stroke-linecap="round" stroke-linejoin="round" stroke-miterlimit="10" d="
		M316.968,542.925c9.669,0.794,18.944-16.724,23.066-12.102c4.519,5.067-6.976,23.674-17.457,26.585"/>
	
		<path fill="none" stroke="#273B68" stroke-width="8.5619" stroke-linecap="round" stroke-linejoin="round" stroke-miterlimit="10" d="
		M373.698,545.797c0,0,17.945-26.906,52.882-26.339"/>
	<path fill="#273B68" d="M277.311,586.057c0-6.751,5.473-12.225,12.225-12.225c6.751,0,12.225,5.473,12.225,12.225H277.311z"/>
	<g>
		
			<line fill="none" stroke="#273B68" stroke-width="8.5619" stroke-linecap="round" stroke-linejoin="round" stroke-miterlimit="10" x1="425.445" y1="408.319" x2="515.176" y2="588.014"/>
		<g>
			
				<line fill="none" stroke="#273B68" stroke-width="8.5619" stroke-linecap="round" stroke-linejoin="round" stroke-miterlimit="10" x1="439.1" y1="435.664" x2="412.015" y2="449.188"/>
			
				<line fill="none" stroke="#273B68" stroke-width="8.5619" stroke-linecap="round" stroke-linejoin="round" stroke-miterlimit="10" x1="501.521" y1="560.669" x2="474.436" y2="574.194"/>
		</g>
	</g>
	<g>
		
			<path fill="#FCFAF2" stroke="#273B68" stroke-width="12.8428" stroke-linecap="round" stroke-linejoin="round" stroke-miterlimit="10" d="
			M631.451,350.015L532.59,404.84c-7.574,4.2-17.119,1.465-21.32-6.109l-54.825-98.862c-4.2-7.574-1.465-17.119,6.109-21.32
			l98.862-54.825c7.574-4.2,17.119-1.465,21.32,6.109l54.825,98.862C641.761,336.269,639.026,345.815,631.451,350.015z"/>
		<g>
			
				<line fill="none" stroke="#273B68" stroke-width="8.5619" stroke-linecap="round" stroke-linejoin="round" stroke-miterlimit="10" x1="513.741" y1="300.226" x2="552.695" y2="278.624"/>
			
				<line fill="none" stroke="#273B68" stroke-width="8.5619" stroke-linecap="round" stroke-linejoin="round" stroke-miterlimit="10" x1="533.237" y1="289.415" x2="560.769" y2="339.15"/>
		</g>
	</g>
	<g>
		
			<path fill="#FCFAF2" stroke="#273B68" stroke-width="12.8428" stroke-linecap="round" stroke-linejoin="round" stroke-miterlimit="10" d="
			M982.699,626.061l-108.577-31.473c-8.318-2.411-13.107-11.109-10.696-19.428l31.473-108.577
			c2.411-8.319,11.109-13.107,19.428-10.696l108.577,31.473c8.318,2.411,13.107,11.109,10.696,19.428l-31.473,108.577
			C999.716,623.683,991.017,628.472,982.699,626.061z"/>
		
			<line fill="none" stroke="#273B68" stroke-width="8.5619" stroke-linecap="round" stroke-linejoin="round" stroke-miterlimit="10" x1="956.426" y1="513.674" x2="940.6" y2="568.274"/>
	</g>
	<g>
		
			<path fill="#FCFAF2" stroke="#273B68" stroke-width="12.8428" stroke-linecap="round" stroke-linejoin="round" stroke-miterlimit="10" d="
			M730.278,406.972l-111.28-19.906c-8.526-1.525-14.201-9.673-12.676-18.198l19.906-111.28c1.525-8.526,9.673-14.201,18.198-12.676
			l111.28,19.906c8.526,1.525,14.201,9.673,12.676,18.198l-19.906,111.28C746.951,402.822,738.803,408.497,730.278,406.972z"/>
		<g>
			
				<polyline fill="none" stroke="#273B68" stroke-width="8.5619" stroke-linecap="round" stroke-linejoin="round" stroke-miterlimit="10" points="
				657.591,349.493 692.357,297.963 707.103,358.35 			"/>
			
				<line fill="none" stroke="#273B68" stroke-width="8.5619" stroke-linecap="round" stroke-linejoin="round" stroke-miterlimit="10" x1="666.282" y1="336.611" x2="703.417" y2="343.253"/>
		</g>
	</g>
	<g>
		
			<path fill="#FCFAF2" stroke="#273B68" stroke-width="12.8428" stroke-linecap="round" stroke-linejoin="round" stroke-miterlimit="10" d="
			M1174.887,550.577l-102.979,46.633c-7.89,3.573-17.182,0.073-20.755-7.816l-46.633-102.979c-3.573-7.89-0.073-17.182,7.817-20.755
			l102.979-46.633c7.89-3.573,17.182-0.073,20.755,7.816l46.633,102.979C1186.277,537.712,1182.777,547.004,1174.887,550.577z"/>
		<g>
			
				<line fill="none" stroke="#273B68" stroke-width="8.5619" stroke-linecap="round" stroke-linejoin="round" stroke-miterlimit="10" x1="1064.752" y1="489.985" x2="1088.203" y2="541.77"/>
			
				<path fill="none" stroke="#273B68" stroke-width="8.5619" stroke-linecap="round" stroke-linejoin="round" stroke-miterlimit="10" d="
				M1086.075,480.329l-21.323,9.656l11.725,25.893l21.323-9.656c7.15-3.238,10.321-11.659,7.084-18.809
				C1101.646,480.262,1093.225,477.091,1086.075,480.329z"/>
		</g>
	</g>
	<g>
		
			<path fill="#FCFAF2" stroke="#273B68" stroke-width="12.8428" stroke-linecap="round" stroke-linejoin="round" stroke-miterlimit="10" d="
			M991.853,420.568l-104.715-42.594c-8.023-3.263-11.881-12.412-8.617-20.435l42.594-104.715
			c3.263-8.023,12.412-11.881,20.435-8.617l104.715,42.594c8.023,3.263,11.881,12.412,8.618,20.435l-42.594,104.715
			C1009.024,419.974,999.875,423.832,991.853,420.568z"/>
		
			<polyline fill="none" stroke="#273B68" stroke-width="8.5619" stroke-linecap="round" stroke-linejoin="round" stroke-miterlimit="10" points="
			963.472,300.389 942.053,353.047 969.93,364.386 		"/>
	</g>
	<g>
		
			<path fill="#FCFAF2" stroke="#273B68" stroke-width="12.8428" stroke-linecap="round" stroke-linejoin="round" stroke-miterlimit="10" d="
			M1174.552,358.9l-110.742,22.707c-8.484,1.74-16.773-3.728-18.512-12.212l-22.707-110.742c-1.74-8.484,3.728-16.773,12.212-18.512
			l110.742-22.707c8.484-1.74,16.773,3.728,18.512,12.212l22.707,110.742C1188.504,348.872,1183.037,357.16,1174.552,358.9z"/>
		<g>
			
				<polyline fill="none" stroke="#273B68" stroke-width="8.5619" stroke-linecap="round" stroke-linejoin="round" stroke-miterlimit="10" points="
				1125.128,324.342 1095.646,330.387 1084.227,274.698 1113.71,268.653 			"/>
			
				<line fill="none" stroke="#273B68" stroke-width="8.5619" stroke-linecap="round" stroke-linejoin="round" stroke-miterlimit="10" x1="1089.937" y1="302.543" x2="1110.956" y2="298.233"/>
		</g>
	</g>
	<g>
		
			<path fill="#FCFAF2" stroke="#273B68" stroke-width="12.8428" stroke-linecap="round" stroke-linejoin="round" stroke-miterlimit="10" d="
			M903.961,332.023l-108.035,33.285c-8.277,2.55-17.054-2.093-19.604-10.37l-33.285-108.035c-2.55-8.277,2.093-17.054,10.37-19.604
			l108.035-33.285c8.277-2.55,17.054,2.093,19.604,10.37l33.285,108.035C916.88,320.696,912.238,329.473,903.961,332.023z"/>
		<g>
			
				<path fill="none" stroke="#273B68" stroke-width="8.5619" stroke-linecap="round" stroke-linejoin="round" stroke-miterlimit="10" d="
				M824.709,251.143l-22.37,6.892l8.369,27.164l22.37-6.892c7.501-2.311,11.708-10.265,9.397-17.766
				C840.164,253.04,832.21,248.833,824.709,251.143z"/>
			
				<path fill="none" stroke="#273B68" stroke-width="8.5619" stroke-linecap="round" stroke-linejoin="round" stroke-miterlimit="10" d="
				M833.078,278.307l-22.37,6.892l8.369,27.164l22.37-6.892c7.501-2.311,11.708-10.265,9.397-17.766
				C848.533,280.203,840.578,275.996,833.078,278.307z"/>
		</g>
	</g>
	<g>
		
			<path fill="#FCFAF2" stroke="#273B68" stroke-width="12.8428" stroke-linecap="round" stroke-linejoin="round" stroke-miterlimit="10" d="
			M878.674,561.824l-108.938,30.198c-8.346,2.314-16.988-2.577-19.301-10.923l-30.198-108.938
			c-2.314-8.346,2.577-16.988,10.923-19.301l108.938-30.198c8.346-2.314,16.988,2.577,19.301,10.923l30.198,108.938
			C891.91,550.869,887.02,559.51,878.674,561.824z"/>
		
			<polyline fill="none" stroke="#273B68" stroke-width="8.5619" stroke-linecap="round" stroke-linejoin="round" stroke-miterlimit="10" points="
			782.822,483.971 798.008,538.752 827.01,530.713 		"/>
	</g>
	<g>
		
			<path fill="#FCFAF2" stroke="#273B68" stroke-width="12.8428" stroke-linecap="round" stroke-linejoin="round" stroke-miterlimit="10" d="
			M673.475,606.478L571.092,558.55c-7.844-3.672-11.226-13.008-7.554-20.852l47.929-102.383c3.672-7.844,13.008-11.226,20.852-7.554
			l102.383,47.929c7.844,3.672,11.226,13.008,7.554,20.852l-47.929,102.383C690.655,606.768,681.319,610.15,673.475,606.478z"/>
		<g>
			
				<polyline fill="none" stroke="#273B68" stroke-width="8.5619" stroke-linecap="round" stroke-linejoin="round" stroke-miterlimit="10" points="
				627.217,536.482 651.319,484.997 678.576,497.757 			"/>
			
				<line fill="none" stroke="#273B68" stroke-width="8.5619" stroke-linecap="round" stroke-linejoin="round" stroke-miterlimit="10" x1="639.268" y1="510.74" x2="658.701" y2="519.837"/>
		</g>
	</g>
</g>
</svg>
